<?xml version="1.0" ?><svg id="Layer_1" style="enable-background:new 0 0 512 512;" version="1.1" viewBox="0 0 512 512" xml:space="preserve" xmlns="http://www.w3.org/2000/svg" xmlns:xlink="http://www.w3.org/1999/xlink"><style type="text/css">
	.st0{fill:#55A47E;}
	.st1{fill:#FFFFFF;}
</style><g><circle class="st0" cx="256" cy="256" r="256"/><g><path class="st1" d="M392.9,263.2c-2.7-20.5-20.1-36.1-40.8-36.5c-8.9-0.2-17.8-0.2-26.6-0.1v-23.8c0-2.9-0.5-5.6-1.3-8.2    c-2,0.6-4,1.1-6.1,1.4c-2.5,0.4-5.1,0.6-7.7,0.6h0c-2.4,0-4.9-0.2-7.2-0.6c-3.4,4.3-8,7.9-13.1,10.3c0.9-0.3,1.9-0.5,2.9-0.5    c5.9-0.3,10.8,5.2,10.8,10.8c0,0.1,0,0.2,0,0.3c0.2,6.7,0,13.5,0,20.3v146.4c0,6.1-5,10.6-10.8,10.8c-5.9,0.3-10.8-5.2-10.8-10.8    c0-0.1,0-0.2,0-0.3c-0.2-6.7,0-13.5,0-20.3V216.7c0-4.1,2.2-7.4,5.5-9.3c-2.5,1-5.1,1.7-7.8,2.2c-2.2,0.4-4.3,0.5-6.5,0.5    c-10.9,0-21.1-4.7-27.5-12.4c-1.8,0.6-3.8,1.1-5.7,1.5c-1.9,0.3-3.8,0.5-5.7,0.5c-1.3,0-2.7-0.1-4-0.2    c-5.5,6.1-13.2,10.2-21.8,11.6c-2.2,0.4-4.3,0.5-6.5,0.5c-10.3,0-19.8-4.1-26.2-11c-4.1,3-9,5-14.2,5.9c-1.9,0.3-3.8,0.5-5.7,0.5    c-5.7,0-11-1.4-15.5-3.8v201.7c0,14.4,11.7,26.1,26.1,26.1h132.7c14.4,0,26.1-11.7,26.1-26.1v-21.6l0,0c9.4-3.5,18.8-7,28.1-10.5    c1.6-0.6,3.1-1.1,4.7-1.7c9.8-3.7,18-10.1,23.5-19.1c5.7-9.4,6.2-19.9,7.1-30.5c1-11.3,2-22.6,3-33.8    C392.5,279.6,394,271.2,392.9,263.2z M185,237.3v146.4c0,6.1-5,10.6-10.8,10.8c-5.9,0.3-10.8-5.2-10.8-10.8c0-0.1,0-0.2,0-0.3    c-0.2-6.7,0-13.5,0-20.3V216.7c0-6.1,5-10.6,10.8-10.8c5.9-0.3,10.8,5.2,10.8,10.8c0,0.1,0,0.2,0,0.3    C185.2,223.8,185,230.5,185,237.3z M244.4,237.3v146.4c0,6.1-5,10.6-10.8,10.8c-5.9,0.3-10.8-5.2-10.8-10.8c0-0.1,0-0.2,0-0.3    c-0.2-6.7,0-13.5,0-20.3V216.7c0-6.1,5-10.6,10.8-10.8c5.9-0.3,10.8,5.2,10.8,10.8c0,0.1,0,0.2,0,0.3    C244.6,223.8,244.4,230.5,244.4,237.3z M371.7,267.9c-1.2,16.8-2.7,33.6-4.1,50.4c-0.6,6.7-1.2,13.4-2.9,19.8    c-3,6.9-10,11.4-17,14.1c-7.3,2.9-15.2,4.4-22.2,8c0-26.7,0-53.5,0-80.2l0-30.5c0.3-1.5,0.4-1.2,2-1.2c2.3,0,4.5,0,6.8,0    c4.5,0,9.1-0.1,13.6-0.1c2.4,0,4.8,0,7.2,0.4c8.6,1.5,15.7,9.3,16.5,18c0.1-0.4,0.1-0.9,0.2-1.3    C371.8,266.2,371.7,267.1,371.7,267.9z"/><path class="st1" d="M160.6,199.4c7-1.2,12.8-4.8,16.5-9.8c4.8,10.3,17.2,16.5,30.4,14.3c8.6-1.4,15.8-6.2,20-12.4    c3.6,1,7.4,1.2,11.4,0.5c3.5-0.6,6.7-1.8,9.5-3.5c5,10.1,17.2,16,30.2,13.9c9.6-1.6,17.3-7.2,21.3-14.5c5.3,1.5,11.1,1.9,17,0.9    c18.9-3.2,32-19.3,29.2-36c-0.8-4.5-2.6-8.6-5.3-12.1c0.9-4.9,0.9-9.9,0.1-14.8c-3.4-20.5-20.7-35.4-41-37    c-5.2-4.8-13.1-7.2-21.3-5.9c-4.7,0.8-8.9,2.7-12.2,5.4c-1.4-0.9-2.8-1.6-4.2-2.3c-6.8-3.2-14.3-4.2-21.8-2.9    c-6.2,1-12,3.6-16.8,7.4c-10-7.7-22.9-11-35.7-8.9c-21.1,3.5-36.8,21-38.1,41.6c-4.1,2.5-7.7,5.7-10.7,9.4    c-13.2,2.3-22.2,13.5-20.3,25.2c1.3,7.6,6.9,13.5,14.4,16.1c0,0.1,0.1,0.2,0.1,0.3c-0.7,2.6-0.8,5.3-0.4,8    C135,193.9,147.3,201.6,160.6,199.4z"/></g></g></svg>