<?xml version="1.0" ?><svg id="Layer_1" style="enable-background:new 0 0 512 512;" version="1.1" viewBox="0 0 512 512" xml:space="preserve" xmlns="http://www.w3.org/2000/svg" xmlns:xlink="http://www.w3.org/1999/xlink"><style type="text/css">
	.st0{fill:#64498E;}
	.st1{opacity:0.1;}
	.st2{fill:#8368AF;}
	.st3{fill:#FFFDFD;}
</style><g id="XMLID_210_"><g id="XMLID_160_"><circle class="st0" cx="256" cy="256" id="XMLID_181_" r="250"/><circle class="st1" cx="262.8" cy="265.3" id="XMLID_180_" r="202.8"/><circle class="st2" cx="256" cy="256" id="XMLID_179_" r="202.8"/></g><g id="XMLID_5_"><path class="st3" d="M143.6,331L121,250.5l26.4-7.4c10-2.8,18.3-3.1,24.9-1c6.6,2.1,11,6.9,13,14.2    c1.1,3.8,1.1,7.5,0.2,10.9c-0.9,3.5-3.1,6.5-6.4,9c5.1-0.3,9.2,0.8,12.4,3.4c3.2,2.6,5.4,6,6.6,10.2c2.2,7.8,1.2,14.5-2.9,20    c-4.1,5.5-11.1,9.6-21,12.4L143.6,331z M149.1,278.8l7.4-2.1c4.5-1.3,7.6-3,9.4-5.2c1.8-2.2,2.2-4.8,1.4-7.9    c-1-3.4-2.7-5.6-5.3-6.6c-2.6-1-6.1-0.8-10.5,0.4l-7.7,2.2L149.1,278.8z M152.6,291.2l5.7,20.2l12-3.4c4-1.1,6.7-2.7,8.3-4.9    c1.5-2.1,1.9-4.8,1-8.1c-1-3.4-2.6-5.8-4.8-7.1c-2.2-1.3-5.4-1.4-9.4-0.4l-0.6,0.2L152.6,291.2z" id="XMLID_10_"/><path class="st3" d="M273.4,258.9c2.8,9.9,1.9,19-2.5,27.2c-4.5,8.2-11.8,13.7-21.9,16.6    c-10.2,2.9-19.4,2-27.5-2.7c-8.1-4.6-13.6-11.9-16.4-21.8l-4.1-14.5c-2.8-9.9-1.9-18.9,2.6-27.1c4.5-8.2,11.8-13.8,22-16.6    c10.1-2.8,19.2-1.9,27.4,2.7c8.1,4.7,13.6,11.9,16.4,21.8L273.4,258.9z M250.7,249.6c-1.6-5.7-4.3-10.1-8-13    c-3.7-2.9-8.1-3.7-13-2.3c-5,1.4-8.4,4.3-10,8.8c-1.6,4.4-1.6,9.5,0,15.3l4.1,14.6c1.6,5.8,4.3,10.2,8.1,13.1    c3.7,2.9,8.1,3.7,13.2,2.3c4.9-1.4,8.2-4.3,9.8-8.7c1.7-4.4,1.7-9.6,0-15.4L250.7,249.6z" id="XMLID_170_"/><path class="st3" d="M351.7,236.9c2.8,9.9,1.9,19-2.5,27.2c-4.5,8.2-11.8,13.7-21.9,16.6    c-10.2,2.9-19.4,2-27.5-2.7c-8.1-4.6-13.6-11.9-16.4-21.8l-4.1-14.5c-2.8-9.9-1.9-18.9,2.6-27.1c4.5-8.2,11.8-13.8,22-16.6    c10.1-2.8,19.2-1.9,27.4,2.7c8.1,4.7,13.6,11.9,16.4,21.8L351.7,236.9z M328.9,227.6c-1.6-5.7-4.3-10.1-8-13    c-3.7-2.9-8.1-3.7-13-2.3c-5,1.4-8.4,4.3-10,8.8c-1.6,4.4-1.6,9.5,0,15.3l4.1,14.6c1.6,5.8,4.3,10.2,8.1,13.1    c3.7,2.9,8.1,3.7,13.2,2.3c4.9-1.4,8.2-4.3,9.8-8.7c1.7-4.4,1.7-9.6,0-15.4L328.9,227.6z" id="XMLID_173_"/><path class="st3" d="M383,232.9l-18.7,5.3l-14.6-52l18.7-5.3L383,232.9z M391,261.5l-18.7,5.3l-4.4-15.6l18.7-5.3    L391,261.5z" id="XMLID_176_"/></g></g></svg>