<?xml version="1.0" encoding="UTF-8"?>
<svg width="466px" height="156px" viewBox="0 0 466 156" version="1.1" xmlns="http://www.w3.org/2000/svg" xmlns:xlink="http://www.w3.org/1999/xlink">
    <!-- Generator: Sketch 42 (36781) - http://www.bohemiancoding.com/sketch -->
    <title>Jayway</title>
    <desc>Created with Sketch.</desc>
    <defs></defs>
    <g id="Page-1" stroke="none" stroke-width="1" fill="none" fill-rule="evenodd">
        <g id="Jayway" transform="translate(233.000000, 77.900000) scale(-1, 1) rotate(-180.000000) translate(-233.000000, -77.900000) translate(0.500000, -0.100000)" fill-rule="nonzero" fill="#FFFFFF">
            <path d="M17.2,153.9 C11.9,149.7 12.9,141.4 19.1,138.4 C25.4,135.5 31.5,139.6 31.5,146.8 C31.4,154.5 23.2,158.6 17.2,153.9 Z" id="Shape"></path>
            <path d="M66.9,116.5 C55.8,113.7 45.5,104.6 41.4,94.1 C38.7,87.2 37.7,72.7 39.4,65 C42,52.9 50.2,42.1 60.3,37.7 C63.2,36.4 67.9,35.4 72.5,35.1 C82.5,34.6 90,37.3 96.7,44 L101.5,48.8 L101.5,42.9 L101.5,36.9 L108,36.9 L114.5,36.9 L114.5,76.4 L114.5,115.9 L108,115.9 L101.5,115.9 L101.5,110.4 L101.5,104.8 L98.4,108.3 C91.7,116 78.3,119.5 66.9,116.5 Z M83.9,104.8 C89.1,103.4 95.8,96.9 98.6,90.6 C100.5,86.4 100.9,83.6 101,76.3 C101,67.8 100.8,66.7 97.5,60.3 C92.9,51.3 87.4,47.6 77.6,47.1 C67,46.5 59.7,50.7 54.7,60.3 C52.2,64.9 52,66.4 52,76.4 C52,86.7 52.2,87.7 55,92.8 C60.9,103.5 72,108.1 83.9,104.8 Z" id="Shape"></path>
            <path d="M325.9,116.5 C314.8,113.7 304.5,104.6 300.4,94.1 C297.7,87.2 296.7,72.7 298.4,65 C301,52.9 309.2,42.1 319.3,37.7 C322.2,36.4 326.9,35.4 331.5,35.1 C341.5,34.6 349,37.3 355.7,44 L360.5,48.8 L360.5,42.9 L360.5,36.9 L367,36.9 L373.5,36.9 L373.5,76.4 L373.5,115.9 L367,115.9 L360.5,115.9 L360.5,110.4 L360.5,104.8 L357.4,108.3 C350.7,116 337.3,119.5 325.9,116.5 Z M342.9,104.8 C345,104.2 348.6,102 351,99.8 C365.3,86.6 362.6,57.6 346.3,49.5 C332.4,42.6 315.8,50.3 311.5,65.7 C310.2,70.4 310.2,82.3 311.5,87 C315.4,100.8 329.1,108.6 342.9,104.8 Z" id="Shape"></path>
            <path d="M16.5,69.7 C16.5,41.9 16.1,22 15.5,19.8 C14.1,14.7 11.2,12.5 5.2,11.9 L0,11.4 L0,5.9 L0,0.4 L4.7,0.1 C18.2,-0.8 26.3,6.5 28.5,21.6 C29,25.3 29.5,48.1 29.5,72.2 L29.5,115.9 L23,115.9 L16.5,115.9 L16.5,69.7 Z" id="Shape"></path>
            <path d="M119.8,114.7 C120.1,114 127.1,96.9 135.4,76.7 L150.4,40 L143,21.6 C138.9,11.4 135.5,2.9 135.5,2.5 C135.5,2.1 138.3,1.9 141.7,2.1 L147.9,2.4 L169.1,55.3 C186,97.7 190.4,107.9 191.2,106.3 C191.7,105.3 198,89 205.1,70.1 C214.7,44.6 218.4,36 219.5,36.2 C220.4,36.3 225.5,46.7 232.5,62.7 C240,79.9 244.3,88.5 244.8,87.7 C245.3,87 250.5,75.2 256.4,61.4 C262.4,47.7 267.9,36.3 268.6,36.1 C269.8,35.9 279.7,60.5 300.3,115.1 C300.5,115.6 297.8,115.9 294,115.7 L287.3,115.4 L277.6,89.2 C272.3,74.8 267.7,63.3 267.3,63.7 C266.9,64.1 262,75.4 256.2,88.9 C250.3,103 245.2,113.5 244.4,113.7 C243.4,113.9 239.7,106.3 232.1,88.4 C222.2,65.3 221,63 220,65.1 C219.4,66.4 214.8,78.3 209.9,91.7 L201,116 L190.7,115.7 L180.3,115.4 L168.5,85.5 L156.7,55.7 L144.9,85.8 L133,115.9 L126.1,115.9 C121,115.9 119.4,115.6 119.8,114.7 Z" id="Shape"></path>
            <path d="M379.4,113.7 C379.9,112.4 386.9,95.3 394.9,75.7 L409.5,40 L402,21.5 C397.9,11.4 394.5,2.8 394.5,2.5 C394.5,2.2 397.3,1.9 400.8,1.9 L407,1.9 L429.6,58.9 L452.2,115.9 L445.9,115.9 L439.6,115.9 L427.7,85.8 L415.8,55.6 L403.9,85.8 L392,115.9 L385.3,115.9 C378.7,115.9 378.6,115.8 379.4,113.7 Z" id="Shape"></path>
            <path d="M450.4,52.4 C445.3,49.6 444.2,41.3 448.5,37.4 C449.5,36.5 452.1,35.5 454.2,35.2 C457.4,34.8 458.7,35.2 461.3,37.4 C470,44.7 460.4,57.9 450.4,52.4 Z" id="Shape"></path>
        </g>
    </g>
</svg>