<?xml version="1.0" encoding="UTF-8"?>
<svg width="583px" height="451px" viewBox="0 0 583 451" version="1.1" xmlns="http://www.w3.org/2000/svg" xmlns:xlink="http://www.w3.org/1999/xlink">
    <!-- Generator: Sketch 42 (36781) - http://www.bohemiancoding.com/sketch -->
    <title>logo</title>
    <desc>Created with Sketch.</desc>
    <defs></defs>
    <g id="Page-1" stroke="none" stroke-width="1" fill="none" fill-rule="evenodd">
        <g id="logo" fill-rule="nonzero">
            <g id="Group">
                <g transform="translate(144.000000, 0.000000)" id="Shape" fill="#00EDFF">
                    <g opacity="0.8" transform="translate(39.000000, 58.000000)">
                        <g>
                            <path d="M234.3,3.8 C232.3,0.5 228.1,-0.5 224.8,1.4 L3.6,133.9 C0.3,135.9 -0.7,140.1 1.2,143.4 C3.2,146.7 7.4,147.7 10.7,145.8 L232,13.3 C235.2,11.3 236.3,7.1 234.3,3.8 Z"></path>
                        </g>
                    </g>
                    <g opacity="0.8" transform="translate(19.000000, 113.000000)">
                        <g>
                            <path d="M234.8,4.2 C232.8,0.9 228.6,-0.1 225.3,1.8 L4,134.4 C0.7,136.4 -0.3,140.6 1.6,143.9 C3.6,147.2 7.8,148.2 11.1,146.3 L232.4,13.8 C235.7,11.7 236.7,7.5 234.8,4.2 Z"></path>
                        </g>
                    </g>
                    <g opacity="0.8" transform="translate(0.000000, 89.000000)">
                        <g>
                            <path d="M1.8,4.2 C-0.2,7.5 0.9,11.7 4.1,13.7 L224.6,147.4 C227.9,149.4 232.1,148.3 234.1,145.1 C236.1,141.8 235,137.6 231.8,135.6 L11.2,1.8 C8,-0.1 3.7,0.9 1.8,4.2 Z"></path>
                        </g>
                    </g>
                    <g opacity="0.8" transform="translate(58.000000, 81.000000)">
                        <g>
                            <path d="M1.9,3.6 C-0.1,6.9 1,11.1 4.2,13.1 L224.7,146.8 C228,148.8 232.2,147.7 234.2,144.5 C236.2,141.2 235.1,137 231.9,135 L11.4,1.3 C8.1,-0.7 3.9,0.3 1.9,3.6 Z"></path>
                        </g>
                    </g>
                    <g opacity="0.8" transform="translate(121.000000, 0.000000)">
                        <g>
                            <path d="M7.3,0.8 C3.5,0.8 0.4,3.9 0.4,7.7 L0.4,265.6 C0.4,269.4 3.5,272.5 7.3,272.5 C11.1,272.5 14.2,269.4 14.2,265.6 L14.2,7.7 C14.2,3.9 11.1,0.8 7.3,0.8 Z"></path>
                        </g>
                    </g>
                    <g opacity="0.8" transform="translate(158.000000, 46.000000)">
                        <g>
                            <path d="M7.7,0.1 C3.9,0.1 0.8,3.2 0.8,7 L0.8,264.9 C0.8,268.7 3.9,271.8 7.7,271.8 C11.5,271.8 14.6,268.7 14.6,264.9 L14.6,7 C14.6,3.2 11.6,0.1 7.7,0.1 Z"></path>
                        </g>
                    </g>
                </g>
                <g transform="translate(0.000000, 393.000000)" id="Shape" fill="#FFFFFF">
                    <path d="M0.1,28.6 C0.1,25.1 0.8,21.7 2.1,18.4 C3.4,15 5.3,12 7.8,9.4 C10.3,6.7 13.3,4.6 16.9,2.9 C20.5,1.2 24.6,0.4 29.1,0.4 C34.6,0.4 39.4,1.5 43.4,3.8 C47.4,6.1 50.4,9.1 52.4,12.8 L40.5,21.3 C40,19.9 39.3,18.8 38.4,17.9 C37.5,17 36.5,16.3 35.5,15.7 C34.4,15.2 33.3,14.8 32.2,14.6 C31.1,14.4 29.9,14.3 28.9,14.3 C26.7,14.3 24.7,14.7 23.1,15.6 C21.5,16.5 20.1,17.6 19.1,19 C18.1,20.4 17.3,22 16.8,23.8 C16.3,25.6 16,27.4 16,29.1 C16,31.1 16.3,33 16.9,34.8 C17.5,36.6 18.3,38.2 19.5,39.6 C20.6,41 22,42.1 23.6,42.9 C25.2,43.7 27.1,44.1 29.1,44.1 C30.2,44.1 31.3,44 32.4,43.7 C33.5,43.5 34.6,43.1 35.6,42.5 C36.6,41.9 37.6,41.2 38.4,40.3 C39.2,39.4 39.9,38.3 40.4,37.1 L53.1,44.7 C52.2,46.8 51,48.6 49.2,50.3 C47.5,52 45.5,53.3 43.3,54.5 C41.1,55.7 38.7,56.5 36.2,57.1 C33.7,57.7 31.2,58 28.8,58 C24.6,58 20.7,57.2 17.2,55.5 C13.7,53.8 10.7,51.6 8.2,48.8 C5.7,46 3.7,42.9 2.3,39.4 C0.8,35.8 0.1,32.2 0.1,28.6 Z"></path>
                    <path d="M95.2,57.9 C90.9,57.9 87,57.1 83.4,55.4 C79.9,53.7 76.9,51.6 74.4,48.9 C71.9,46.2 69.9,43.1 68.6,39.7 C67.2,36.2 66.5,32.7 66.5,29 C66.5,25.3 67.2,21.7 68.7,18.2 C70.1,14.7 72.2,11.7 74.7,9 C77.3,6.4 80.4,4.3 83.9,2.7 C87.4,1.1 91.3,0.3 95.5,0.3 C99.8,0.3 103.7,1.1 107.3,2.8 C110.9,4.5 113.8,6.6 116.3,9.4 C118.8,12.1 120.7,15.2 122.1,18.7 C123.5,22.2 124.1,25.7 124.1,29.3 C124.1,33 123.4,36.6 121.9,40.1 C120.5,43.5 118.5,46.6 115.9,49.2 C113.3,51.8 110.3,54 106.7,55.6 C103.1,57.2 99.4,57.9 95.2,57.9 Z M82.3,29.1 C82.3,31 82.6,32.9 83.1,34.7 C83.6,36.5 84.4,38.1 85.5,39.5 C86.6,40.9 87.9,42 89.5,42.9 C91.1,43.8 93.1,44.2 95.3,44.2 C97.5,44.2 99.5,43.8 101.1,42.9 C102.8,42 104.1,40.9 105.1,39.5 C106.1,38.1 106.9,36.5 107.4,34.7 C107.9,32.9 108.2,31 108.2,29.2 C108.2,27.3 107.9,25.4 107.4,23.6 C106.9,21.8 106.1,20.2 105,18.9 C103.9,17.5 102.5,16.4 100.9,15.6 C99.3,14.8 97.4,14.4 95.2,14.4 C93,14.4 91,14.8 89.4,15.7 C87.8,16.6 86.4,17.7 85.4,19.1 C84.3,20.5 83.5,22.1 83,23.9 C82.5,25.4 82.3,27.3 82.3,29.1 Z"></path>
                    <polygon points="142.8 57.5 142.8 0.7 158.4 0.7 158.4 43.9 184.2 43.9 184.2 57.5 142.8 57.5"></polygon>
                    <path d="M201.6,57.5 L201.6,0.7 L223.4,0.7 C228.1,0.7 232.2,1.4 235.8,2.9 C239.4,4.4 242.4,6.4 244.8,9 C247.2,11.6 249,14.6 250.2,18 C251.4,21.4 252,25.1 252,29 C252,33.3 251.3,37.2 250,40.7 C248.6,44.2 246.7,47.2 244.2,49.7 C241.7,52.2 238.7,54.1 235.2,55.5 C231.7,56.9 227.8,57.5 223.4,57.5 L201.6,57.5 L201.6,57.5 Z M236.2,29 C236.2,26.8 235.9,24.8 235.3,23 C234.7,21.2 233.9,19.6 232.8,18.4 C231.7,17.1 230.4,16.1 228.8,15.4 C227.2,14.7 225.4,14.3 223.4,14.3 L217.2,14.3 L217.2,43.9 L223.4,43.9 C225.4,43.9 227.2,43.5 228.8,42.8 C230.4,42.1 231.7,41 232.8,39.7 C233.9,38.4 234.7,36.8 235.3,35 C235.9,33.1 236.2,31.1 236.2,29 Z"></path>
                    <polygon points="270.8 57.5 270.8 0.7 309.8 0.7 309.8 14.3 286.4 14.3 286.4 23.7 305.4 23.7 305.4 36.3 286.4 36.3 286.4 57.4 270.8 57.4"></polygon>
                    <path d="M327.9,57.5 L327.9,0.7 L354,0.7 C356.8,0.7 359.3,1.3 361.7,2.4 C364,3.5 366.1,5 367.7,6.9 C369.4,8.7 370.7,10.8 371.7,13.2 C372.7,15.6 373.1,18 373.1,20.4 C373.1,23.7 372.4,26.8 370.9,29.6 C369.5,32.5 367.5,34.8 364.9,36.6 L376.9,57.5 L359.3,57.5 L349.3,40.1 L343.5,40.1 L343.5,57.5 L327.9,57.5 L327.9,57.5 Z M343.5,26.4 L353.3,26.4 C354.3,26.4 355.2,25.9 356,24.8 C356.8,23.7 357.2,22.2 357.2,20.3 C357.2,18.3 356.7,16.8 355.8,15.8 C354.8,14.8 353.9,14.2 352.9,14.2 L343.5,14.2 L343.5,26.4 L343.5,26.4 Z"></path>
                    <path d="M418.8,57.9 C414.5,57.9 410.6,57.1 407,55.4 C403.5,53.7 400.5,51.6 398,48.9 C395.5,46.2 393.5,43.1 392.2,39.7 C390.9,36.3 390.1,32.7 390.1,29 C390.1,25.3 390.8,21.7 392.3,18.2 C393.7,14.7 395.8,11.7 398.3,9 C400.9,6.4 404,4.3 407.5,2.7 C411,1.1 414.9,0.3 419.1,0.3 C423.4,0.3 427.3,1.1 430.9,2.8 C434.5,4.5 437.4,6.6 439.9,9.4 C442.4,12.1 444.3,15.2 445.7,18.7 C447.1,22.2 447.7,25.7 447.7,29.3 C447.7,33 447,36.6 445.5,40.1 C444.1,43.5 442.1,46.6 439.5,49.2 C436.9,51.8 433.9,54 430.3,55.6 C426.9,57.1 423,57.9 418.8,57.9 Z M405.9,29.1 C405.9,31 406.2,32.9 406.7,34.7 C407.2,36.5 408,38.1 409.1,39.5 C410.2,40.9 411.5,42 413.1,42.9 C414.7,43.8 416.7,44.2 418.9,44.2 C421.1,44.2 423.1,43.8 424.7,42.9 C426.4,42 427.7,40.9 428.7,39.5 C429.7,38.1 430.5,36.5 431,34.7 C431.5,32.9 431.8,31 431.8,29.2 C431.8,27.3 431.5,25.4 431,23.6 C430.5,21.8 429.7,20.2 428.6,18.9 C427.5,17.5 426.1,16.4 424.5,15.6 C422.9,14.8 421,14.4 418.8,14.4 C416.6,14.4 414.6,14.8 413,15.7 C411.4,16.6 410,17.7 409,19.1 C407.9,20.5 407.1,22.1 406.6,23.9 C406.1,25.4 405.9,27.3 405.9,29.1 Z"></path>
                    <polygon points="481.9 29.5 481.9 57.4 466.3 57.4 466.3 0.6 478.5 0.6 501.3 29.5 501.3 0.6 516.9 0.6 516.9 57.4 504.5 57.4"></polygon>
                    <polygon points="582.8 14.3 566.5 14.3 566.5 57.5 550.9 57.5 550.9 14.3 534.5 14.3 534.5 0.7 582.8 0.7"></polygon>
                </g>
            </g>
        </g>
    </g>
</svg>