<?xml version="1.0" encoding="UTF-8" standalone="no"?>
<svg width="584px" height="368px" viewBox="0 0 584 368" version="1.1" xmlns="http://www.w3.org/2000/svg" xmlns:xlink="http://www.w3.org/1999/xlink" xmlns:sketch="http://www.bohemiancoding.com/sketch/ns">
    <!-- Generator: Sketch 3.0.1 (7597) - http://www.bohemiancoding.com/sketch -->
    <title>logo</title>
    <description>Created with Sketch.</description>
    <defs></defs>
    <g id="Page-1" stroke="none" stroke-width="1" fill="none" fill-rule="evenodd" sketch:type="MSPage">
        <g id="logo" sketch:type="MSLayerGroup" transform="translate(0.000000, 1.000000)">
            <g id="Group" sketch:type="MSShapeGroup">
                <g transform="translate(0.000000, 298.000000)" id="Shape" fill="#FFFFFF">
                    <path d="M32.331,14.723 C28.067,14.723 24.747,16.468 22.358,19.956 C19.971,23.447 18.776,28.26 18.776,34.393 C18.776,47.143 23.626,53.518 33.327,53.518 C36.256,53.518 39.1,53.11 41.846,52.291 C44.597,51.479 47.361,50.496 50.143,49.349 L50.143,64.489 C44.612,66.933 38.359,68.159 31.379,68.159 C21.379,68.159 13.71,65.259 8.379,59.457 C3.045,53.655 0.38,45.269 0.38,34.305 C0.38,27.447 1.671,21.418 4.252,16.221 C6.835,11.025 10.554,7.031 15.404,4.24 C20.253,1.44 25.958,0.039 32.511,0.039 C39.671,0.039 46.516,1.6 53.041,4.712 L47.561,18.806 C45.113,17.66 42.663,16.692 40.219,15.908 C37.768,15.12 35.14,14.723 32.331,14.723 L32.331,14.723 Z"></path>
                    <path d="M126.919,34.033 C126.919,45.18 124.183,53.655 118.713,59.456 C113.242,65.258 105.236,68.159 94.692,68.159 C84.297,68.159 76.331,65.243 70.784,59.414 C65.24,53.579 62.468,45.092 62.468,33.943 C62.468,22.911 65.224,14.49 70.739,8.673 C76.252,2.857 84.268,-0.052 94.784,-0.052 C105.329,-0.052 113.322,2.833 118.76,8.604 C124.195,14.376 126.919,22.854 126.919,34.033 L126.919,34.033 Z M81.323,34.033 C81.323,46.844 85.778,53.246 94.691,53.246 C99.225,53.246 102.586,51.691 104.775,48.58 C106.965,45.466 108.062,40.618 108.062,34.033 C108.062,27.415 106.951,22.527 104.729,19.367 C102.509,16.211 99.19,14.632 94.782,14.632 C85.807,14.631 81.323,21.098 81.323,34.033 L81.323,34.033 Z"></path>
                    <path d="M140.736,67.25 L140.736,0.99 L158.638,0.99 L158.638,52.793 L184.157,52.793 L184.157,67.25 L140.736,67.25 L140.736,67.25 Z"></path>
                    <path d="M252.863,32.713 C252.863,43.774 249.82,52.291 243.73,58.279 C237.641,64.258 229.084,67.249 218.055,67.249 L196.618,67.249 L196.618,0.988 L219.551,0.988 C230.187,0.988 238.397,3.709 244.186,9.147 C249.97,14.587 252.863,22.445 252.863,32.713 L252.863,32.713 Z M234.281,33.354 C234.281,27.28 233.082,22.778 230.679,19.845 C228.274,16.915 224.626,15.45 219.73,15.45 L214.521,15.45 L214.521,52.566 L218.509,52.566 C223.947,52.566 227.935,50.99 230.476,47.829 C233.01,44.674 234.281,39.847 234.281,33.354 L234.281,33.354 Z"></path>
                    <path d="M284.224,67.251 L266.595,67.25 L266.595,0.99 L305.754,0.99 L305.754,15.355 L284.224,15.355 L284.224,28.001 L304.078,28.001 L304.078,42.367 L284.224,42.367 L284.224,67.251 L284.224,67.251 Z"></path>
                    <path d="M336.389,43.142 L336.389,67.253 L318.487,67.253 L318.487,0.989 L340.196,0.989 C358.206,0.989 367.21,7.517 367.21,20.57 C367.21,28.245 363.462,34.181 355.972,38.382 L375.277,67.253 L354.974,67.253 L340.923,43.143 L336.389,43.142 L336.389,43.142 Z M336.389,29.681 L339.743,29.681 C345.997,29.681 349.126,26.918 349.126,21.385 C349.126,16.824 346.058,14.543 339.929,14.543 L336.39,14.543 L336.39,29.681 L336.389,29.681 Z"></path>
                    <path d="M445.164,34.036 C445.164,45.182 442.428,53.654 436.959,59.457 C431.49,65.258 423.48,68.16 412.936,68.16 C402.543,68.16 394.575,65.242 389.032,59.414 C383.485,53.578 380.714,45.09 380.714,33.942 C380.714,22.91 383.47,14.49 388.985,8.674 C394.499,2.855 402.514,-0.053 413.028,-0.053 C423.573,-0.053 431.563,2.833 437.007,8.604 C442.442,14.376 445.164,22.854 445.164,34.036 L445.164,34.036 Z M399.567,34.036 C399.567,46.845 404.022,53.248 412.936,53.248 C417.471,53.248 420.831,51.691 423.02,48.581 C425.213,45.467 426.307,40.618 426.307,34.036 C426.307,27.415 425.198,22.529 422.975,19.368 C420.756,16.211 417.438,14.635 413.028,14.635 C404.053,14.634 399.567,21.098 399.567,34.036 L399.567,34.036 Z"></path>
                    <path d="M522.071,67.255 L498.594,67.255 L474.391,20.57 L473.985,20.57 C474.559,27.912 474.846,33.514 474.846,37.383 L474.846,67.251 L458.983,67.251 L458.983,0.987 L482.372,0.987 L506.481,47.039 L506.754,47.039 C506.332,40.36 506.119,34.998 506.119,30.948 L506.119,0.99 L522.07,0.99 L522.07,67.255 L522.071,67.255 Z"></path>
                    <path d="M567.481,67.255 L549.583,67.255 L549.583,15.633 L533.405,15.633 L533.405,0.992 L583.622,0.992 L583.622,15.633 L567.483,15.633 L567.483,67.255 L567.481,67.255 L567.481,67.255 Z"></path>
                </g>
                <g transform="translate(174.000000, 0.000000)" id="Shape" fill="#01cef9" opacity="0.8">
                    <path d="M219.602,48.88 C218.028,46.253 214.622,45.401 211.995,46.971 L34.051,153.531 C31.422,155.105 30.57,158.513 32.14,161.139 C33.714,163.766 37.119,164.621 39.751,163.048 L217.694,56.487 C220.321,54.915 221.176,51.508 219.602,48.88 L219.602,48.88 Z"></path>
                    <path d="M203.858,93.451 C202.282,90.824 198.878,89.97 196.251,91.543 L18.305,198.105 C15.678,199.676 14.821,203.084 16.396,205.711 C17.97,208.338 21.376,209.19 24.002,207.616 L201.949,101.057 C204.574,99.484 205.432,96.076 203.858,93.451 L203.858,93.451 Z"></path>
                    <path d="M1.2,74.098 C-0.39,76.718 0.448,80.128 3.065,81.715 L180.418,189.261 C183.037,190.85 186.449,190.015 188.035,187.395 C189.625,184.776 188.787,181.366 186.168,179.776 L8.818,72.232 C6.197,70.644 2.789,71.48 1.2,74.098 L1.2,74.098 Z"></path>
                    <path d="M47.964,67.194 C46.375,69.815 47.212,73.226 49.831,74.814 L227.18,182.362 C229.801,183.946 233.209,183.111 234.799,180.494 C236.389,177.874 235.551,174.465 232.932,172.877 L55.582,65.33 C52.963,63.744 49.552,64.578 47.964,67.194 L47.964,67.194 Z"></path>
                    <path d="M102.927,-0.16 C99.861,-0.16 97.378,2.323 97.378,5.385 L97.378,212.796 C97.378,215.857 99.86,218.343 102.927,218.343 C105.985,218.343 108.472,215.857 108.472,212.796 L108.472,5.385 C108.472,2.324 105.985,-0.16 102.927,-0.16 L102.927,-0.16 Z"></path>
                    <path d="M133.074,36.249 C130.012,36.249 127.527,38.731 127.527,41.793 L127.527,249.203 C127.527,252.265 130.013,254.75 133.074,254.75 C136.136,254.75 138.619,252.266 138.619,249.203 L138.619,41.793 C138.621,38.731 136.137,36.249 133.074,36.249 L133.074,36.249 Z"></path>
                </g>
            </g>
        </g>
    </g>
</svg>