<?xml version="1.0" encoding="utf-8"?>
<!-- Generator: Adobe Illustrator 17.1.0, SVG Export Plug-In . SVG Version: 6.00 Build 0)  -->
<!DOCTYPE svg PUBLIC "-//W3C//DTD SVG 1.1//EN" "http://www.w3.org/Graphics/SVG/1.1/DTD/svg11.dtd" [
	<!ENTITY ns_extend "http://ns.adobe.com/Extensibility/1.0/">
	<!ENTITY ns_ai "http://ns.adobe.com/AdobeIllustrator/10.0/">
	<!ENTITY ns_graphs "http://ns.adobe.com/Graphs/1.0/">
	<!ENTITY ns_vars "http://ns.adobe.com/Variables/1.0/">
	<!ENTITY ns_imrep "http://ns.adobe.com/ImageReplacement/1.0/">
	<!ENTITY ns_sfw "http://ns.adobe.com/SaveForWeb/1.0/">
	<!ENTITY ns_custom "http://ns.adobe.com/GenericCustomNamespace/1.0/">
	<!ENTITY ns_adobe_xpath "http://ns.adobe.com/XPath/1.0/">
]>
<svg version="1.1" id="Layer_1" xmlns:x="&ns_extend;" xmlns:i="&ns_ai;" xmlns:graph="&ns_graphs;"
	 xmlns="http://www.w3.org/2000/svg" xmlns:xlink="http://www.w3.org/1999/xlink" x="0px" y="0px" viewBox="0 0 3442 3520.6"
	 enable-background="new 0 0 3442 3520.6" xml:space="preserve">
<switch>
	<g i:extraneous="self">
		<g opacity="5.000000e-02">
			<path fill="none" stroke="#F5236C" stroke-width="6" stroke-linejoin="round" stroke-miterlimit="10" d="M712.2,964.2
				c48.1,11.8,57.8,87.9,102.5,110.8c57.3,29.3,113.3,30.3,175.7,27.9c53.1-2,82.7,27.3,128.7,48.7c48.9,22.8,109.8,13.4,160.3,37.9
				c43.3,21.1,89.1,44.5,128,72.9c79.3,57.7,57.5,145.9,27.7,227.6c-27,74.2-66.3,77.6-134.9,99.5c-53.6,17.1-87.6,55-93,112.1
				c-7.3,78.1-21.6,179.9-123.4,137.1c-98.7-41.5-180.5-113.6-277.6-158.2c-55.2-25.3-63.8-81.7-59.3-136.4
				c2.1-25.1,14.6-56.9,11.6-81.6c-4.3-34.9-34.4-31.8-61-49.5c-62.6-41.7-77-129.6-81.7-198.9c-4.8-72-7.7-174,47.7-228.8
				C683.1,966.1,698.8,960.9,712.2,964.2z"/>
			<path fill="none" stroke="#F5236C" stroke-width="6" stroke-miterlimit="10" d="M709.6,1169.2c32.1-24.1,112.7,9.3,144,16.7
				c64.5,15.1,127.1,37.4,187.2,65.3c20.6,9.6,48.3,15.1,66.6,28.7c48.8,36.2,67.4,104.6,75.8,161.4c7.5,50.7-2.8,106.7-39,142.9
				c-40.8,40.8-115.8,44.9-155.1,2.7c-64.2-69-7.2-200.7-76.4-264.7c-24.6-22.8-59.4-30.1-92.4-36c-44.6-7.9-127.2-29.8-123.9-88.7
				C697.1,1184,701.9,1174.9,709.6,1169.2z"/>
			<path fill="none" stroke="#F5236C" stroke-width="6" stroke-miterlimit="10" d="M970.3,395.8c-10.8,29.5-53,42.6-69.7,75.9
				c-41,81.6,2.4,177.7,83.6,215.4c90.2,41.8,193.6,32.1,288.1,57.5c86.3,23.3,152.7,80.9,201.8,153.8
				c53.4,79.2,43.2,144.2,61.1,228.2c8.4,39.3,27.2,79.4,57.2,108.6c51.3,49.9,136,51.9,181.7,107.9c61.4,75.1,12.6,206.2-42.8,270
				c-42.8,49.3-96.3,97.3-157.2,119.7c-50.2,18.5-93.3,42.1-128,86.2c-60.7,77.1-20.8,137.9-30.7,223.8
				c-12.5,107.6-83,205.9-196,194.2c-159.9-16.6-291.7-129-374.7-262.5c-26.9-43.2-49.6-90.8-88.9-123.1
				c-37.3-30.7-85.4-44.4-128.3-66.5c-89-45.9-153.2-133.2-177.7-229.5c-13-51.2-11.9-100.4-4.7-152.3c8.9-64.3,3.9-128.7,10.2-193
				c8.2-83.9,32.1-206.4-11.9-276.9c-36.6-58.5-59.6-102-67.2-170.5C363.1,643,403.9,569.6,482.1,480.9
				c58.1-65.9,144.3-122.8,222.1-163.4c85-44.3,220.7-75.9,264.3,41.9C974,374.3,973.9,385.9,970.3,395.8z"/>
		</g>
		<path opacity="5.000000e-02" fill="none" stroke="#F5236C" stroke-width="6" stroke-miterlimit="10" d="M1710.8,413.1
			c-22.8,59.3-40.5,116.5-28.9,188.5c10.6,65.5,41,127.6,85.7,176.7c47.5,52.2,119.6,70.1,183.9,95.4
			c100.7,39.5,196,92.8,282.4,157.8c47.8,35.9,93.8,76.5,122.6,128.9c28.8,52.3,38,118.6,11,171.9c-24.5,48.5-72.4,76.9-119.2,100.5
			c-46.7,23.5-104.2,81.2-125.5,129c-16.2,36.3-12.1,85,20,108.5c22.9,16.7,53.9,17,79.7,29c36.9,17.2,59.6,60.4,52.9,100.5
			c-6.7,40.1-42.3,73.6-82.7,77.8c-33.8,3.5-66.5-11.2-100.1-16.5c-57.4-9-119.3,12.4-157,56.7c-37.7,44.2-48.8,110.3-25.4,163.5
			c23.4,53.2,81.3,89.9,139.3,86.1c65.4-4.3,117.9-53.3,176.9,1c30.6,28.1,49.2,67.3,79.1,96.1c47.7,46.1,123.7,60,184.6,33.9
			c59.2-25.4,99.2-82.5,124.1-141.9c24.8-59.5,37.5-123.3,60.4-183.6c34.8-91.4,107.5-160.3,188.8-212.1
			c60.6-38.5,134.7-88.8,161.3-158.1c55.4-144-20.3-276.2-100-394.2c-82-121.4-188.2-226.6-311.3-306.1
			c-78.7-50.9-166.6-93.8-222.3-169.1c-73.3-99.1-75.6-232.9-63.3-355.6c6.6-66,13.1-142.3-34.1-188.8c-24.1-23.7-57.7-34.4-90-44.3
			c-106.9-32.8-228.2-64.3-325.7-9.5c-75.3,42.3-109.6,121.8-137,199.5C1731.2,361.9,1720.5,387.7,1710.8,413.1z"/>
		<path opacity="5.000000e-02" fill="none" stroke="#F5236C" stroke-width="6" stroke-miterlimit="10" d="M1126.9,2417.3
			c-22.2-2.5-44.1-5.5-65.8-9.1c-129.5-21.2-253.8-157.1-389.4-76.9c-75.3,44.6-114.3,196.8-134.4,272.5
			c-29.6,111.8-45.1,273.8,69.8,346.2c81.8,51.5,191.7,44.6,280.4,81.4c116.3,48.2,157.4,170.6,224,266.8
			c67.6,97.7,167.8,143,289.4,123.7c157.3-24.9,219.6-154.8,302.4-270.3c67.2-93.7,166.9-173.4,265.6-231.8
			c135.5-80.2,337.7-119.8,418.7-268c147.9-270.3-219.1-294.2-390.1-294.2c-149.7,0-287.5,25.6-434.2,48.4
			C1422,2428.2,1270.7,2433.6,1126.9,2417.3z"/>
		<path opacity="5.000000e-02" fill="none" stroke="#F5236C" stroke-width="6" stroke-miterlimit="10" d="M911.4,2477
			c-48.4-3.5-99.8,10.1-137.4,36.2c-61.2,42.4-75,118.7-70.6,188.5c13,205.9,160.4,177.1,304,223.6
			c164.9,53.3,185.7,308.7,392.2,138.2c154.5-127.6,267.4-267.3,444.2-370c31.6-18.4,138.2-65.1,140.4-105.8
			c3.4-65.4-120.9-97.6-166.6-102.2c-140.6-14-287.5,28.4-416.2,82c-72.8,30.3-158.6,75.5-239.7,58.1
			c-47.5-10.2-91.4-35.5-125.6-69.8C993.7,2513.2,978.4,2481.9,911.4,2477z"/>
		<path opacity="5.000000e-02" fill="none" stroke="#F5236C" stroke-width="6" stroke-miterlimit="10" d="M943.3,2645.7
			c-46.9-10.6-97.1,7.9-78.4,64.2c17.3,52.1,95.8,43.2,134.4,55.4c72.2,22.9,150.5,127.2,224,112.6
			c130.2-25.8,44.6-152.8-33.8-182.4C1101.5,2662.2,1041.3,2667.8,943.3,2645.7z"/>
		<path opacity="5.000000e-02" fill="none" stroke="#F5236C" stroke-width="6" stroke-miterlimit="10" d="M1936.6,344.4
			c-32.7,27-58.6,58-68.7,83.1c-29.5,73.4,14.2,173.3,76.6,217.8c45.9,32.7,162.8,62,186.8-12.2c10.5-32.6-3.8-68.8-3.9-102.1
			c-0.3-61.5,62.6-167.9,18-221.6C2096.8,251.2,2002.7,289.8,1936.6,344.4z"/>
		<path opacity="5.000000e-02" fill="none" stroke="#F5236C" stroke-width="6" stroke-miterlimit="10" d="M2391.4,962.4
			c-0.4,1.2-0.8,2.5-1,4c-7.3,42,46.7,74.3,73.8,96.1c81.4,65.4,112.1,169.1,69.4,267.8c-38,88-119,152-144.1,246.5
			c-14.3,54,12.7,99.8,19.4,151.9c8.4,65.3-39.5,138.4-47,203.3c-3.6,31.1-5.7,69.1,19.3,92.7c72.3,68.4,147.6-76.2,174.6-125.1
			c69.8-126.5,192.3-212,266.2-334.5c66.7-110.7-11.2-244.5-66.4-342.2c-65.5-116.1-133.6-184.6-257.9-238.7
			C2477.9,975.7,2403.1,928.7,2391.4,962.4z"/>
	</g>
</switch>

</svg>
