<?xml version="1.0" ?><!DOCTYPE svg  PUBLIC '-//W3C//DTD SVG 1.1//EN'  'http://www.w3.org/Graphics/SVG/1.1/DTD/svg11.dtd'><svg height="43.3492mm" style="shape-rendering:geometricPrecision; text-rendering:geometricPrecision; image-rendering:optimizeQuality; fill-rule:evenodd; clip-rule:evenodd" version="1.1" viewBox="0 0 4335 4335" width="43.3492mm" xml:space="preserve" xmlns="http://www.w3.org/2000/svg" xmlns:xlink="http://www.w3.org/1999/xlink"><defs><style type="text/css">
   <![CDATA[
    .fil3 {fill:#666666}
    .fil1 {fill:#999999}
    .fil0 {fill:#B3B3B3}
    .fil2 {fill:#E6E6E6}
    .fil4 {fill:white}
    .fil5 {fill:#0088FF;fill-rule:nonzero}
   ]]>
  </style></defs><g id="Layer_x0020_1"><g id="_474356808"><path class="fil0" d="M2147 94c1124,0 2036,911 2036,2036 0,1124 -911,2036 -2036,2036 -1124,0 -2036,-911 -2036,-2036 0,-1124 911,-2036 2036,-2036z"/><path class="fil1" d="M2135 4165c-1119,-7 -2024,-915 -2024,-2036 0,-1120 905,-2029 2024,-2036l0 4071z"/><path class="fil2" d="M3042 1422l67 679c0,0 197,180 132,334 -65,154 -246,345 -307,526 -61,182 -255,619 -800,639 -545,20 -807,-652 -807,-652l-80 -274c0,0 -132,100 -152,-287 -20,-388 103,-401 103,-401 0,0 188,-471 222,-504 34,-34 222,-330 336,-350 114,-20 673,20 673,20l612 269z"/><path class="fil3" d="M1297 2147l-2 1c3,-47 8,-96 18,-145l0 -1 0 0c9,-48 22,-96 39,-142 96,-247 128,-319 128,-319 0,0 80,16 104,-24 24,-40 120,-200 255,-128 136,72 471,375 622,423 152,48 519,80 519,80l72 487c0,0 93,-41 140,-121 11,36 17,82 6,129 -24,104 -80,263 -152,287 -72,24 -255,597 -447,717 -334,209 -570,209 -904,0 -191,-120 -375,-693 -447,-717 -72,-24 -128,-184 -152,-287 -24,-104 38,-203 38,-203l10 31 -1 0 1 0c34,104 64,195 64,195l96 32 0 0 0 0 0 0 0 0 0 -1 0 -1 0 -1 0 -1c-6,-43 -9,-88 -10,-131l0 -4c-1,-16 -1,-32 -1,-50l1 0c0,-39 2,-76 4,-109zm1933 -141c4,-168 -3,-389 -3,-528 0,-215 16,-359 -311,-591 -327,-231 -750,-351 -1021,-255 -271,96 -439,367 -439,367 0,0 -144,-48 -295,223 -152,271 -128,614 -96,734 3,12 7,27 12,43 -147,67 -124,300 -116,435 8,136 247,375 247,375 98,295 347,722 662,814 101,29 197,37 276,37 95,0 185,-10 277,-37 315,-92 564,-519 662,-814 0,0 239,-239 247,-375 8,-132 30,-355 -104,-429z"/><path class="fil0" d="M2147 1893c327,0 592,265 592,592 0,327 -265,592 -592,592 -327,0 -592,-265 -592,-592 0,-327 265,-592 592,-592zm0 74c286,0 518,232 518,518 0,286 -232,518 -518,518 -286,0 -518,-232 -518,-518 0,-286 232,-518 518,-518z"/><path class="fil4" d="M2147 1933c305,0 551,247 551,551 0,305 -247,551 -551,551 -305,0 -551,-247 -551,-551 0,-305 247,-551 551,-551z"/><path class="fil5" d="M2057 2599l0 -35c0,-30 6,-56 19,-79 13,-22 36,-46 71,-71 33,-24 55,-43 65,-58 11,-15 16,-31 16,-50 0,-20 -8,-36 -23,-47 -15,-11 -36,-16 -63,-16 -47,0 -101,15 -162,46l-51 -103c70,-39 145,-59 223,-59 65,0 116,16 155,47 38,31 57,73 57,125 0,35 -8,65 -24,90 -16,25 -46,54 -90,85 -30,22 -49,39 -57,51 -8,12 -12,27 -12,46l0 28 -125 0zm-15 162c0,-26 7,-46 21,-60 14,-14 35,-20 62,-20 26,0 46,7 61,21 14,14 21,34 21,60 0,25 -7,45 -22,59 -14,14 -35,21 -61,21 -26,0 -47,-7 -61,-21 -15,-14 -22,-34 -22,-59z"/></g></g></svg>