<?xml version="1.0" encoding="UTF-8" standalone="no"?>
<svg width="2038px" height="404px" viewBox="0 0 2038 404" version="1.1" xmlns="http://www.w3.org/2000/svg" xmlns:xlink="http://www.w3.org/1999/xlink" xmlns:sketch="http://www.bohemiancoding.com/sketch/ns">
    <!-- Generator: Sketch 3.0 (7574) - http://www.bohemiancoding.com/sketch -->
    <title>DLBi-2C-H</title>
    <description>Created with Sketch.</description>
    <defs>
        <path id="path-1" d="M0.06,0.147 L2037.91,0.147 L2037.91,404 L0.06,404"></path>
    </defs>
    <g id="Page-1" stroke="none" stroke-width="1" fill="none" fill-rule="evenodd" sketch:type="MSPage">
        <g id="DLBi-2C-H" sketch:type="MSLayerGroup">
            <path d="M548.005,59.983 L435.662,59.983 L435.662,83.995 L463.926,83.995 L462.499,286.418 L435.662,286.418 L435.662,310.439 L535.84,310.439 C620.279,310.439 673.593,269.646 673.593,181.626 C673.593,98.63 622.78,59.983 548.005,59.983 M612.771,260.291 C594.88,278.181 568.762,286.418 531.907,286.418 L493.269,286.418 L494.702,83.995 L533.694,83.995 C567.33,83.995 590.936,87.918 611.688,106.168 C629.579,121.903 640.671,148.341 640.671,181.617 C640.671,216.332 629.579,243.478 612.771,260.291" id="Fill-1" fill="#20211F" sketch:type="MSShapeGroup"></path>
            <path d="M1142.55,240.851 C1142.55,210.082 1143.27,180.859 1143.98,149.548 L1202.03,149.548 L1202.03,125.527 L1144.34,125.527 L1145.77,78.793 L1115.67,80.51 L1115.01,125.527 L1085.6,125.527 L1085.6,149.548 L1114.63,149.548 C1114.28,176.945 1113.21,231.546 1113.21,254.091 C1113.21,277.703 1113.21,314.632 1164.73,314.632 C1179.77,314.632 1196.93,310.74 1206.22,306.076 L1207.3,281.326 C1199.43,284.541 1185.84,288.765 1170.8,288.765 C1142.55,288.765 1142.55,267.33 1142.55,240.851" id="Fill-2" fill="#20211F" sketch:type="MSShapeGroup"></path>
            <path d="M1374.28,188.078 C1374.28,139.066 1348.68,121.513 1301.11,121.513 C1278.57,121.513 1256.69,127.574 1236.15,135.821 L1236.15,180.32 L1263.31,180.32 L1263.31,151.546 C1277.02,145.826 1293.72,144.806 1304.08,144.806 C1333.08,144.806 1346.7,157.277 1346.7,191.98 L1346.7,205.218 C1282.06,205.218 1229.55,208.205 1229.55,261.748 C1229.55,306.826 1265.6,314.693 1286.69,314.693 C1319.27,314.693 1337.43,299.677 1348.51,270.324 L1349.23,270.324 C1347.8,277.173 1345.72,292.169 1345.72,302.902 L1345.72,310.439 L1393.66,310.439 L1393.66,286.408 L1372.9,286.408 C1372.9,253.162 1374.28,204.171 1374.28,188.078 M1293.42,292.169 C1274.45,292.169 1258.72,281.078 1258.72,260.32 C1258.72,225.607 1302.73,225.607 1346.38,225.607 C1346.38,277.023 1312.45,292.169 1293.42,292.169" id="Fill-3" fill="#20211F" sketch:type="MSShapeGroup"></path>
            <path d="M1491.75,203.072 C1464.56,198.429 1447.04,192.339 1447.04,172.312 C1447.04,152.144 1472.66,144.048 1489.25,144.048 C1497.83,144.048 1515,145.326 1521.79,151.046 L1522.47,177.375 L1549.71,177.375 L1548.27,132.795 C1533.97,126.715 1505.34,121.603 1489.97,121.603 C1437.01,121.603 1417.32,147.322 1417.32,177.015 C1417.32,213.146 1442.01,221.703 1491.39,232.435 C1511.43,236.728 1530,243.158 1530,261.398 C1530,281.925 1505.11,292.169 1487.81,292.169 C1475.65,292.169 1457.04,289.423 1445.96,284.062 L1445.28,256.626 L1418.04,256.626 L1419.48,303.74 C1430.93,309.82 1462.77,314.773 1482.81,314.773 C1536.11,314.773 1558.3,288.615 1558.3,255.699 C1558.3,225.287 1538.62,210.951 1491.75,203.072" id="Fill-4" fill="#20211F" sketch:type="MSShapeGroup"></path>
            <path d="M1721.53,286.418 L1636.77,286.418 L1638.21,84.004 L1664.41,84.004 L1664.41,59.973 L1578.32,59.973 L1578.32,84.004 L1607.44,84.004 L1606.01,286.418 L1578.32,286.418 L1578.32,310.439 L1748.76,310.439 L1748.95,248.808 L1722.7,248.808 L1721.53,286.418" id="Fill-5" fill="#20211F" sketch:type="MSShapeGroup"></path>
            <path d="M1869.75,179.101 L1869.75,178.382 C1897.15,173.73 1918.4,154.062 1918.4,120.785 C1918.4,94.667 1905.87,76.796 1886.91,67.85 C1872.61,61.042 1859.01,59.973 1834.67,59.973 L1747.45,59.973 L1747.45,84.004 L1775.98,84.004 L1773.87,310.429 L1846.12,310.429 C1890.84,310.429 1934.87,294.316 1934.87,240.652 C1934.87,200.238 1902.04,178.742 1869.75,179.101 L1869.75,179.101 Z M1806.76,83.236 L1837.17,83.236 C1853.63,83.236 1887.62,82.497 1887.62,125.427 C1887.62,163.357 1855.43,170.535 1823.94,170.535 L1806.05,170.535 L1806.76,83.236 L1806.76,83.236 Z M1828.59,287.177 L1805.34,287.177 L1806.05,193.039 L1836.11,193.039 C1865.8,193.039 1901.93,199.16 1901.93,240.662 C1901.93,287.527 1859.01,287.177 1828.59,287.177 L1828.59,287.177 Z" id="Fill-6" fill="#20211F" sketch:type="MSShapeGroup"></path>
            <path d="M758.511,125.527 L700.011,125.527 L700.011,149.539 L729.169,149.539 L727.735,286.418 L702.946,286.418 L702.946,310.439 L781.214,310.439 L781.214,286.418 L757.079,286.418 L758.511,125.527" id="Fill-7" fill="#20211F" sketch:type="MSShapeGroup"></path>
            <path d="M1049.32,125.527 L990.821,125.527 L990.821,149.539 L1019.98,149.539 L1018.55,286.418 L993.757,286.418 L993.757,310.439 L1072.02,310.439 L1072.02,286.418 L1047.89,286.418 L1049.32,125.527" id="Fill-8" fill="#20211F" sketch:type="MSShapeGroup"></path>
            <path d="M1956.7,125.527 L1956.7,149.539 L1985.87,149.539 L1984.45,286.408 L1959.64,286.408 L1959.64,310.429 L2037.91,310.429 L2037.91,286.408 L2013.78,286.408 L2015.2,125.527 L1956.7,125.527" id="Fill-9" fill="#20211F" sketch:type="MSShapeGroup"></path>
            <path d="M923.021,298.349 L874.089,290.193 C851.036,286.638 844.044,284.162 844.044,274.947 C844.044,261.828 868.05,257.195 875.503,257.195 C918.397,257.195 952.788,233.115 952.788,192.33 C952.788,179.601 950.501,165.744 939.528,152.785 C937.753,150.697 936.104,148.9 934.622,147.353 L966.481,150.886 L966.481,125.527 L900.896,126.845 L900.966,126.975 C893.933,124.928 885.825,123.541 876.565,123.541 C831.888,123.541 800.907,151.916 800.907,189.853 C800.907,236.298 834.339,248.699 847.224,251.544 L847.224,252.253 C831.579,256.148 813.792,261.109 813.792,279.898 C813.792,296.912 826.981,305.068 841.702,308.273 L841.702,308.982 C817.78,314.293 795.491,326.343 795.491,354 C795.491,389.812 838.677,404 882.646,404 C928.388,404 972.315,384.859 972.315,342.668 C972.315,313.236 951.39,302.941 923.021,298.349 M828.339,190.203 C828.339,163.267 849.255,147.402 877.974,147.402 C913.071,147.402 926.546,171.414 926.546,189.146 C926.546,214.664 906.692,235.242 875.503,235.242 C849.964,235.242 828.339,215.732 828.339,190.203 M883.999,381.666 C865.923,381.666 823.022,377.761 823.022,349.396 C823.022,325.296 859.544,316.519 863.087,316.519 L912.019,323.619 C928.317,326.095 943.214,329.179 943.214,345.494 C943.214,370.882 906.692,381.666 883.999,381.666" id="Fill-10" fill="#20211F" sketch:type="MSShapeGroup"></path>
            <path d="M740.171,59.504 C728.149,59.504 718.376,69.278 718.376,81.298 C718.376,93.319 728.149,103.093 740.171,103.093 C752.181,103.093 761.966,93.319 761.966,81.298 C761.966,69.278 752.181,59.504 740.171,59.504" id="Fill-11" fill="#20211F" sketch:type="MSShapeGroup"></path>
            <path d="M1030.98,59.504 C1018.96,59.504 1009.19,69.278 1009.19,81.298 C1009.19,93.319 1018.96,103.093 1030.98,103.093 C1042.99,103.093 1052.77,93.319 1052.77,81.298 C1052.77,69.278 1042.99,59.504 1030.98,59.504" id="Fill-12" fill="#20211F" sketch:type="MSShapeGroup"></path>
            <g id="Group-16">
                <mask id="mask-2" sketch:name="Clip 14" fill="white">
                    <use xlink:href="#path-1"></use>
                </mask>
                <g id="Clip-14"></g>
                <path d="M1996.87,59.504 C1984.85,59.504 1975.06,69.278 1975.06,81.298 C1975.06,93.319 1984.85,103.093 1996.87,103.093 C2008.88,103.093 2018.66,93.319 2018.66,81.298 C2018.66,69.278 2008.88,59.504 1996.87,59.504" id="Fill-13" fill="#20211F" sketch:type="MSShapeGroup" mask="url(#mask-2)"></path>
                <path d="M186.069,0.147 C83.31,0.147 0,83.443 0,186.207 C0,288.971 83.31,372.267 186.069,372.267 C288.834,372.267 372.135,288.971 372.135,186.207 C372.135,83.443 288.834,0.147 186.069,0.147" id="Fill-15" fill="#D9222C" sketch:type="MSShapeGroup" mask="url(#mask-2)"></path>
            </g>
            <path d="M111.006,100.595 L111.051,100.645 L110.956,100.475 L111.006,100.595" id="Fill-17" fill="#FFFFFF" sketch:type="MSShapeGroup"></path>
            <path d="M218.532,135.758 L223.06,127.373 L231.222,123.718 L223.06,119.415 L218.972,109.311 L214.873,118.986 L206.716,122.419 L214.679,127.152 L218.532,135.758" id="Fill-18" fill="#FFFFFF" sketch:type="MSShapeGroup"></path>
            <path d="M162.478,60.5 L164.879,56.047 L169.227,54.1 L164.879,51.814 L162.712,46.443 L160.535,51.585 L156.192,53.421 L160.421,55.927 L162.478,60.5" id="Fill-19" fill="#FFFFFF" sketch:type="MSShapeGroup"></path>
            <path d="M168.862,236.417 L165.508,244.374 L158.769,247.218 L165.323,251.102 L168.513,258.201 L172.227,251.293 L178.961,248.277 L172.227,244.723 L168.862,236.417" id="Fill-20" fill="#FFFFFF" sketch:type="MSShapeGroup"></path>
            <path d="M82.417,159.22 L79.626,152.322 L76.836,158.921 L71.265,161.277 L76.69,164.502 L79.337,170.373 L82.417,164.642 L87.987,162.156 L82.417,159.22" id="Fill-21" fill="#FFFFFF" sketch:type="MSShapeGroup"></path>
            <path d="M262.716,203.58 C261.732,206.914 253.565,213.483 255.508,209.509 C257.459,205.526 255.622,194.664 255.622,194.664 C260.884,189.083 263.689,200.264 262.716,203.58 L262.716,203.58 Z M245.978,227.061 C245.858,227.351 245.594,228.129 245.429,229.427 C245.224,231.803 245.519,234.849 245.519,235.298 C245.519,235.717 244.979,236.306 244.28,236.306 C243.577,236.426 242.668,235.897 241.715,233.431 L241.705,233.401 C241.391,232.663 241.136,231.914 241.051,231.254 C240.767,229.587 241.715,229.527 243.447,228.649 C244.774,227.85 246.053,226.912 246.053,226.912 L245.978,227.061 L245.978,227.061 Z M308.477,286.585 C304.479,282.293 298.129,284.709 292.038,286.505 C286.059,288.283 286.896,282.212 286.896,282.212 C286.896,282.212 292.957,284.508 299.562,282.212 C308.557,279.067 309.805,269.334 309.805,269.334 C306.77,274.495 302.067,275.513 302.067,275.513 C303.62,273.906 303.355,270.232 303.355,270.232 C300.984,275.733 293.347,276.501 288.674,271.979 C287.241,270.591 286.822,268.824 286.937,267.057 C287.396,263.592 289.063,259.049 293.671,254.437 C301.424,246.7 309.161,232.942 305.512,220.891 C302.292,207.453 297.649,198.857 291.749,194.883 C285.719,189.931 275.29,185.967 271.427,185.847 C267.448,184.35 256.161,187.785 254.22,188.543 C252.298,189.283 252.393,188.972 252.393,188.972 C252.393,188.972 241.32,170.692 226.594,169.415 C211.883,168.117 204.779,170.164 201.22,169.734 C197.686,169.285 188.116,166.709 185.426,164.352 C182.74,161.976 178.761,158.212 177.034,157.354 C175.316,156.496 177.463,149.726 177.249,145.423 C177.034,141.13 179.405,136.297 176.929,131.026 C176.47,128.86 176.255,128.22 176.255,127.872 C180.753,135.609 185.336,131.156 185.336,131.156 C185.336,131.156 181.172,131.895 181.377,128.241 C181.571,124.816 179.211,123.319 178.517,122.371 C177.817,121.442 179.15,118.835 177.328,115.421 C175.512,112.007 176.939,110.779 176.939,110.779 C180.848,122.24 187.287,117.638 187.287,117.638 C187.287,117.638 182.105,117.258 181.767,110.32 C181.437,103.371 177.229,101.554 174.608,101.484 C172.771,101.434 170.51,100.306 169.336,99.627 C169.037,99.427 168.713,99.228 168.423,99.007 C166.83,97.81 165.503,96.043 164.265,94.485 C162.577,92.369 160.625,90.212 158.424,88.615 C156.762,87.407 154.646,86.688 152.688,86.058 C151.67,85.729 150.637,85.39 149.554,85.28 C148.235,85.16 146.793,85.13 145.36,85.211 C145.205,83.523 144.637,81.157 142.929,78.122 C139.37,71.841 130.934,72.96 130.934,72.96 C133.154,73.928 137.817,76.664 136.679,81.037 C135.536,85.45 132.551,85.45 132.551,85.45 C132.551,85.45 135.421,83.833 133.234,79.03 C131.447,75.107 126.775,75.865 126.775,75.865 C126.775,75.865 133.01,79.33 128.317,83.552 C125.447,86.159 120.875,77.802 115.628,80.258 C110.73,82.564 113.557,87.337 113.676,87.976 C113.287,87.856 112.808,87.776 112.453,87.776 L112.368,87.796 L111.819,87.486 C111.354,86.398 110.281,85.629 109.014,85.629 L108.604,85.71 L107.646,85.17 C107.156,84.372 106.308,83.793 105.305,83.793 L105.205,83.822 L104.581,83.473 C104.142,82.525 103.188,81.866 102.085,81.866 L101.785,81.916 L100.877,81.417 C100.487,80.488 99.559,79.819 98.476,79.819 L98.126,79.899 L97.687,79.649 C97.343,78.64 96.399,77.892 95.256,77.892 C95.062,77.892 94.887,77.952 94.702,77.992 L93.883,77.543 C93.559,76.594 92.69,75.885 91.637,75.885 L91.112,75.995 L90.194,75.496 C89.854,74.727 89.091,74.177 88.192,74.177 L87.913,74.228 L87.259,73.869 C87.015,72.94 86.185,72.241 85.188,72.241 C84.957,72.241 84.768,72.311 84.563,72.361 L84.193,72.162 C83.949,71.373 83.23,70.794 82.352,70.794 L81.893,70.873 L81.423,70.624 C81.188,69.855 80.515,69.286 79.676,69.286 L79.182,69.385 L78.857,69.206 C78.652,68.397 77.969,67.778 77.09,67.778 C76.886,67.778 76.69,67.828 76.506,67.898 L75.962,67.598 C75.797,66.91 75.198,66.38 74.449,66.38 L73.96,66.48 L71.699,65.232 C71.699,65.232 66.158,62.886 68.469,66.201 C68.724,66.58 69.582,67.25 70.86,68.177 C70.975,68.947 71.599,69.555 72.408,69.555 L72.702,69.496 L73.222,69.855 C73.336,70.773 74.09,71.492 75.023,71.492 L75.482,71.402 L75.862,71.652 C76.097,72.42 76.77,72.99 77.619,72.99 L77.804,72.96 C78.019,73.099 78.243,73.24 78.468,73.389 C78.742,74.158 79.441,74.707 80.3,74.707 L80.43,74.687 C80.645,74.827 80.839,74.957 81.044,75.087 C81.338,75.975 82.137,76.654 83.12,76.654 L83.375,76.604 C83.6,76.744 83.824,76.904 84.069,77.063 C84.349,77.932 85.152,78.591 86.136,78.591 L86.37,78.531 C86.69,78.751 87.015,78.951 87.323,79.15 C87.668,80.068 88.537,80.738 89.57,80.738 L89.745,80.708 C90.084,80.918 90.429,81.136 90.769,81.356 C91.123,82.365 92.066,83.093 93.199,83.093 L93.443,83.053 C93.629,83.173 93.823,83.294 94.018,83.413 C94.407,84.372 95.336,85.041 96.419,85.041 L96.534,85.02 C96.849,85.211 97.158,85.41 97.452,85.589 C97.852,86.638 98.835,87.396 100.019,87.396 L100.253,87.357 L100.692,87.636 C101.121,88.634 102.104,89.334 103.248,89.334 L103.383,89.314 C103.647,89.483 103.892,89.632 104.151,89.802 C104.601,90.901 105.685,91.7 106.972,91.7 L107.146,91.66 L107.596,91.939 C108.025,93.027 109.068,93.776 110.281,93.816 L110.396,94.196 C109.108,94.475 106.184,95.264 104.936,97.101 C103.303,99.498 102.369,101.254 100.867,101.404 C100.867,101.404 102.115,103.751 106.673,99.917 C110.945,96.322 113.911,99.697 114.28,100.146 C114.365,100.376 113.945,100.266 113.287,100.925 C112.328,101.893 112.104,101.893 110.701,103.291 C109.313,104.689 109.413,105.118 107.706,106.945 C105.969,108.762 106.298,108.233 104.69,109.621 C103.078,111.039 101.57,111.668 100.497,113.285 C99.424,114.902 98.565,115.332 98.995,116.949 C99.424,118.556 97.492,121.461 101.142,124.158 C104.796,126.834 104.905,125.226 105.664,125.226 C106.408,125.226 106.408,126.513 108.025,126.404 C109.638,126.293 112.328,126.194 112.857,124.896 C113.401,123.598 114.904,122.32 116.407,121.561 C117.919,120.812 129.196,120.922 133.284,116.62 C137.378,112.327 135.646,115.761 135.646,115.761 C135.646,115.761 134.144,124.158 131.567,128.451 C128.991,132.744 127.274,141.549 126.63,144.564 C125.977,147.57 124.259,164.552 124.045,166.5 C123.82,168.425 118.249,167.567 116.951,175.095 C115.653,182.632 117.38,196.181 117.38,196.181 C117.38,196.181 102.544,194.664 98.885,194.025 C95.226,193.376 91.148,193.595 89.64,196.82 C88.138,200.044 86.41,197.898 85.776,202.191 C85.122,206.495 87.054,207.343 87.483,209.929 C87.913,212.515 88.996,220.242 88.996,224.116 C88.996,227.99 88.352,234.01 89.64,235.298 C90.933,236.576 93.724,235.088 93.948,236.386 C94.163,237.674 95.012,237.464 96.085,239.601 C97.168,241.767 100.173,248.636 107.91,246.49 C109.198,240.24 107.481,237.464 104.486,234.859 C102.544,234.429 102.115,235.298 102.115,235.298 L101.031,234.23 C101.031,234.23 102.319,232.502 101.891,231.224 C101.461,229.926 97.597,228.419 96.31,223.257 C95.012,218.095 96.31,211.646 95.012,208.641 C93.724,205.636 101.256,205.845 102.319,206.065 C103.402,206.265 111.999,215.53 122.972,213.374 C125.762,214.891 130.279,218.754 130.279,218.754 C130.279,218.754 126.63,229.707 125.977,238.752 C123.186,240.24 123.82,243.904 123.4,245.841 C122.972,247.768 121.469,248.407 121.029,253.369 C120.6,258.291 119.741,259.819 118.453,262.824 C117.155,265.819 116.512,268.185 113.936,270.351 C111.354,272.498 108.994,272.278 108.34,274.215 C107.706,276.152 106.408,277.65 104.251,278.728 C102.115,279.806 99.314,283.451 98.456,286.255 C97.597,289.061 104.69,292.496 111.56,289.261 C113.287,286.895 111.784,283.021 111.784,283.021 C111.784,283.021 114.16,283.021 116.297,281.953 C118.453,280.875 119.526,276.801 120.171,273.996 C120.814,271.21 129.636,254.657 130.924,253.369 C132.211,252.071 131.782,249.934 131.782,249.934 L133.929,247.768 C133.929,247.768 135.875,238.523 136.734,236.576 C137.593,234.659 145.535,222.409 145.535,222.409 C145.535,222.409 145.535,220.891 146.394,217.667 C147.252,214.431 161.669,225.843 193.053,217.457 C193.053,220.472 192.839,226.912 194.565,229.058 C196.283,231.224 201.539,235.957 203.257,237.464 C204.984,238.952 204.439,241.318 205.957,244.124 C207.47,246.919 210.261,247.128 213.051,250.364 C215.842,253.558 215.637,257.222 214.993,258.52 C214.339,259.819 199.083,272.918 197.785,274.215 C196.498,275.513 193.277,276.152 191.979,279.367 C190.692,282.591 186.828,283.021 186.828,283.021 C186.828,283.021 183.803,283.67 183.159,285.626 C182.525,287.543 180.149,292.066 180.803,293.994 C181.447,295.94 192.194,294.852 193.922,292.715 C195.639,290.548 193.277,286.255 194.137,286.046 C194.995,285.827 196.059,285.827 196.059,285.827 C196.059,285.827 201.659,286.895 202.947,283.9 C204.226,280.875 203.82,280.016 203.82,280.016 C203.82,280.016 216.485,270.131 219.275,269.273 C222.086,268.405 227.896,264.332 228.541,262.185 C229.185,260.008 227.468,256.584 225.296,254.007 C223.149,251.422 223.579,249.495 223.579,249.495 C223.579,249.495 222.516,238.752 222.291,236.576 C222.086,234.429 230.463,247.128 242.289,247.128 C245.304,250.574 247.45,252.071 247.45,252.071 L234.766,265.819 C234.766,265.819 230.678,266.467 229.185,269.922 C227.667,273.367 229.614,281.304 228.745,284.099 C227.896,286.895 236.054,288.413 238.63,290.129 C241.645,286.046 241.645,278.728 240.143,278.089 C238.63,277.44 235.839,278.089 236.054,276.572 C236.269,275.084 237.352,274.644 238.854,274.435 C240.347,274.215 240.143,270.991 240.347,270.131 C240.571,269.273 256.92,254.657 256.92,254.657 L254.12,261.306 C251.114,266.258 250.041,275.284 253.251,279.168 C256.48,283.021 257.879,282.501 257.879,282.501 C257.879,282.501 263.584,298.935 277.337,296.36 C279.729,295.46 280.752,295.401 281.171,295.451 C293.815,302.27 295.862,294.093 301.238,290.539 C306.431,287.125 307.608,294.273 307.608,294.273 C307.608,294.273 312.4,290.829 308.477,286.585 L308.477,286.585 Z" id="Fill-22" fill="#FFFFFF" sketch:type="MSShapeGroup"></path>
            <path d="M279.563,159.839 L282.404,154.529 L287.581,152.222 L282.404,149.497 L279.838,143.097 L277.242,149.216 L272.081,151.404 L277.117,154.388 L279.563,159.839" id="Fill-23" fill="#FFFFFF" sketch:type="MSShapeGroup"></path>
        </g>
    </g>
</svg>