<?xml version="1.0" encoding="UTF-8"?>
<svg width="495px" height="575px" viewBox="0 0 495 575" version="1.1" xmlns="http://www.w3.org/2000/svg" xmlns:xlink="http://www.w3.org/1999/xlink">
    <!-- Generator: Sketch 46.2 (44496) - http://www.bohemiancoding.com/sketch -->
    <title>Menu_Mark + Name_Black</title>
    <desc>Created with Sketch.</desc>
    <defs></defs>
    <g id="Page-1" stroke="none" stroke-width="1" fill="none" fill-rule="evenodd">
        <g id="Menu_Mark-+-Name_Black" transform="translate(0.000000, -1.000000)" fill-rule="nonzero" fill="#00EDFF">
            <g id="g10" transform="translate(247.500000, 288.460000) scale(-1, 1) rotate(-180.000000) translate(-247.500000, -288.460000) translate(0.000000, 0.960000)">
                <g id="g12">
                    <polyline id="path14" points="173.347996 4.01874657 169.851996 4.01874657 154.874663 36.5989324 154.874663 0.580207985 151.202663 0.580207985 151.202663 43.2442656 155.689329 43.2442656 171.601329 8.79895978 187.451995 43.2442656 191.997329 43.2442656 191.997329 0.580207985 188.269329 0.580207985 188.269329 36.5989324 173.347996 4.01874657"></polyline>
                    <polyline id="path16" points="214.387995 0.580207985 214.387995 43.2442656 240.031994 43.2442656 240.031994 40.0374657 218.291995 40.0374657 218.291995 24.1854661 235.777327 24.1854661 235.777327 20.9811995 218.291995 20.9811995 218.291995 3.78802657 240.263994 3.78802657 240.263994 0.580207985 214.387995 0.580207985"></polyline>
                    <polyline id="path18" points="259.271994 43.2442656 263.177327 43.2442656 287.246659 6.8187465 287.246659 43.2442656 290.861326 43.2442656 290.861326 0.580207985 286.955993 0.580207985 262.883993 36.9494657 262.883993 0.580207985 259.271994 0.580207985 259.271994 43.2442656"></polyline>
                    <path d="M338.717325,43.2442656 L342.679991,43.2442656 L342.679991,13.9854663 C342.679991,5.47759986 336.327992,0 327.877325,0 C319.542659,0 313.131992,5.47759986 313.131992,13.9854663 L313.131992,43.2442656 L317.035992,43.2442656 L317.035992,13.928133 C317.035992,7.04947982 321.815992,3.26145325 327.877325,3.26145325 C333.995992,3.26145325 338.717325,7.04947982 338.717325,13.928133 L338.717325,43.2442656" id="path20"></path>
                    <path d="M313.126659,434.153322 L313.126659,248.873327 C313.126659,216.758661 303.234659,209.349328 286.939993,202.003995 L286.939993,201.778662 L393.305324,201.778662 L393.305324,202.002662 C377.011991,209.305328 367.066657,216.663995 367.066657,248.873327 L367.035991,387.09599 C367.035991,402.065323 366.662658,424.117323 393.086657,433.947989 L393.086657,434.153322 L313.126659,434.153322" id="path22"></path>
                    <path d="M259.79466,258.127994 L181.009329,426.191989 C177.359996,434.711989 171.155996,434.153322 167.966662,434.153322 L88.8051978,434.153322 L88.8051978,433.993322 C110.713997,427.015989 125.718264,414.37599 143.751996,373.893324 L226.811994,198.006662 L227.307994,198.006662 L259.79466,258.127994" id="path24"></path>
                    <path d="M494.229321,327.849325 C494.229321,464.326655 383.590657,574.965319 247.117327,574.965319 C110.637464,574.965319 0,464.326655 0,327.849325 C0,191.370662 110.637464,80.7349313 247.117327,80.7349313 C383.590657,80.7349313 494.229321,191.370662 494.229321,327.849325 M469.873322,327.849325 C469.873322,204.822662 370.138657,105.093197 247.117327,105.093197 C124.091197,105.093197 24.3614661,204.822662 24.3614661,327.849325 C24.3614661,450.875989 124.091197,550.60532 247.117327,550.60532 C370.138657,550.60532 469.873322,450.875989 469.873322,327.849325" id="path26"></path>
                </g>
            </g>
        </g>
    </g>
</svg>