<svg xmlns="http://www.w3.org/2000/svg" width="350" height="91" viewBox="0 0 350 91">
  <g fill="none" fill-rule="evenodd">
    <g fill="#00EDFF" fill-rule="nonzero" transform="translate(86.259 20.519)">
      <path d="M1.129 37.452C1.02968645 37.3487394.982285601 37.2061694 1 37.064L1 6.429C.979672907 6.28661468 1.02756276 6.14296763 1.1292652 6.0412652 1.23096763 5.93956276 1.37461468 5.89167291 1.517 5.912L9.273 5.912C12.505 5.912 14.961 6.558 16.773 7.98 18.453 9.402 19.358 11.599 19.358 14.702 19.4978011 16.7251798 19.0487132 18.7455545 18.065 20.519 17.1785701 21.9775102 15.8049297 23.0755724 14.187 23.619 14.0888417 23.6323869 13.997822 23.677721 13.928 23.748 13.9274542 23.7823773 13.9408699 23.8155071 13.9651814 23.8398186 13.9894929 23.8641301 14.0226227 23.8775458 14.057 23.877 15.091 25.557 16.384 27.626 17.935 29.952 19.486 32.408 20.908 34.735 22.33 37.061 22.33 37.19 22.459 37.32 22.33 37.32 22.33 37.449 22.201 37.449 22.071 37.449L20 37.449C19.8578306 37.4667144 19.7152606 37.4193135 19.612 37.32 19.483 37.32 19.483 37.191 19.353 37.061 18.06 34.861 16.509 32.408 14.829 29.693 13.149 26.978 11.985 25.298 11.468 24.522 11.4587814 24.3829556 11.3480444 24.2722186 11.209 24.263L3.709 24.263C3.56995555 24.2722186 3.45921864 24.3829556 3.45 24.522L3.45 37.064C3.47032709 37.2063853 3.42243724 37.3500324 3.3207348 37.4517348 3.21903237 37.5534372 3.07538532 37.6013271 2.933 37.581L1.388 37.581C1.259 37.582 1.129 37.582 1.129 37.452zM9.143 22.328C10.6462361 22.3808012 12.1437388 22.1163958 13.538 21.552 14.577389 21.0946487 15.4076487 20.264389 15.865 19.225 16.4431856 17.8800531 16.7085191 16.4214028 16.641 14.959 16.6983246 13.5810964 16.4325804 12.2088838 15.865 10.952 15.3125142 9.96695279 14.4486807 9.19316057 13.409 8.752 11.946532 8.2904617 10.4181958 8.07222448 8.885 8.106L3.715 8.106C3.57595555 8.11521864 3.46521864 8.22595555 3.456 8.365L3.456 21.941C3.46521864 22.0800444 3.57595555 22.1907814 3.715 22.2L9.144 22.2 9.143 22.328zM40.555 37.84C39.194006 38.1157225 37.8075284 38.2457886 36.419 38.228 32.412 38.228 29.31 37.194 27.5 35.128 25.555 33.057 24.655 29.825 24.655 25.304 24.655 21.297 25.555 18.195 27.37 15.868 29.185 13.541 31.894 12.504 35.642 12.504 39.39 12.504 41.976 13.538 43.398 15.477 44.9445505 17.9038533 45.7121908 20.7455181 45.598 23.621 45.6352315 24.2273833 45.5918531 24.8360261 45.469 25.431 45.4842425 25.5378551 45.4482978 25.6456521 45.3719749 25.7219749 45.2956521 25.7982978 45.1878551 25.8342425 45.081 25.819L27.37 25.819C27.241 25.819 27.111 25.948 27.111 26.207 27.111 29.5676667 27.8866667 32.0236667 29.438 33.575 30.989 35.126 33.316 36.031 36.677 36.031 37.8013637 36.0089966 38.9235399 35.9225213 40.038 35.772 41.0190239 35.5885784 41.9740557 35.2863531 42.882 34.872L43.141 34.872C43.1753773 34.8714542 43.2085071 34.8848699 43.2328186 34.9091814 43.2571301 34.9334929 43.2705458 34.9666227 43.27 35.001L43.399 35.13 43.787 36.423 43.787 36.552C43.777826 36.6514059 43.7318129 36.7437887 43.658 36.811 43.658 36.94 43.529 36.94 43.399 36.94 42.4912567 37.3548753 41.5361599 37.6571211 40.555 37.84L40.555 37.84zM27.37 23.75L42.882 23.75C43.011 23.75 43.141 23.75 43.141 23.621L43.141 23.362C43.1887345 21.6907403 42.9256044 20.025154 42.365 18.45 41.9228197 17.2002252 41.0528508 16.1471236 39.909 15.477 38.5116462 14.7582026 36.9558713 14.4026165 35.385 14.443 32.541 14.443 30.473 15.343 29.185 17.028 27.8514287 18.8717212 27.1282992 21.0865676 27.117 23.362 27.111 23.621 27.24 23.75 27.37 23.75zM67.829 34.867C67.9230362 35.1700434 68.1025564 35.4394974 68.346 35.643 68.7081607 35.8188575 69.106439 35.907554 69.509 35.902L71.06 35.902C71.319 35.902 71.577 36.031 71.577 36.29L71.577 37.066C71.577 37.325 71.448 37.454 71.189 37.583 70.4658301 37.7406467 69.7290093 37.8273906 68.989 37.842 68.1640286 37.8826726 67.3479462 37.6561195 66.662 37.196 66.0786679 36.6210912 65.7924547 35.8096619 65.886 34.996 65.886 34.9244791 65.8280209 34.8665 65.7565 34.8665 65.6849791 34.8665 65.627 34.9244791 65.627 34.996 64.334 37.064 61.878 38.096 58.388 38.096 56.685347 38.1241563 54.9875341 37.906583 53.347 37.45 52.0691603 37.142696 50.9588977 36.3547677 50.247 35.25 49.4068887 33.9437144 48.9999379 32.4058393 49.084 30.855 48.9834928 29.2619563 49.3906688 27.678066 50.247 26.331 51.0138047 25.2802765 52.10205 24.5079733 53.347 24.131 54.9875341 23.674417 56.685347 23.4568437 58.388 23.485 59.7276982 23.4895498 61.0658638 23.5760446 62.395 23.744 63.3448339 23.8864256 64.2631698 24.1908464 65.11 24.644L65.239 24.644 65.368 24.515 65.368 21.415C65.3969342 20.0512454 65.178052 18.6935662 64.722 17.408 64.3003561 16.4482083 63.5060134 15.7015262 62.522 15.34 61.0619256 14.868028 59.5318181 14.6495378 57.998 14.694 57.262302 14.672359 56.5261271 14.7155256 55.798 14.823 55.022 14.823 54.247 14.952 53.598 14.952L53.469 14.952C53.34 14.952 53.34 14.952 53.21 14.823 53.081 14.823 53.081 14.694 53.081 14.564L53.081 13.275C53.081 13.016 53.21 12.887 53.469 12.758 54.9652749 12.5165216 56.4774582 12.3868295 57.993 12.37 59.9190561 12.3087319 61.841743 12.5710394 63.681 13.146 64.9849918 13.5484109 66.090973 14.4246335 66.781 15.602 67.5275027 17.0822129 67.8834255 18.7286141 67.815 20.385L67.815 33.445C67.7521789 33.9172637 67.7568929 34.3960647 67.829 34.867L67.829 34.867zM63.693 34.475C64.9510848 33.2655431 65.6131043 31.5636774 65.503 29.822 65.5724942 28.8720612 65.3468777 27.9238434 64.857 27.107 64.3775775 26.4070583 63.6282019 25.9385173 62.789 25.814 61.3891337 25.5047586 59.9556869 25.3743842 58.523 25.426 57.1339611 25.3947646 55.7459947 25.5249703 54.387 25.814 53.4409738 26.0130726 52.6077736 26.5684201 52.06 27.365 51.4864291 28.3885307 51.2171986 29.5546179 51.284 30.726 51.230936 31.8132841 51.5009485 32.8919422 52.06 33.826 52.583085 34.5906125 53.3640883 35.1412198 54.26 35.377 55.5752 35.6670231 56.9205895 35.7972979 58.267 35.765 60.72 35.901 62.529 35.513 63.693 34.475zM85.279 38.098C81.272 38.098 78.299 37.064 76.36 35.125 74.421 33.057 73.387 29.825 73.387 25.301 73.387 20.906 74.421 17.674 76.36 15.606 78.299 13.538 81.401 12.506 85.279 12.506 86.0997369 12.4877718 86.9206887 12.5308918 87.735 12.635 88.5103333 12.7643333 89.1566667 12.8936667 89.674 13.023 89.933 13.152 90.062 13.282 90.062 13.54L89.803 14.962C89.803 15.091 89.674 15.091 89.674 15.221L89.415 15.221C88.1159656 14.8336505 86.7628101 14.6590606 85.408 14.704 82.047 14.704 79.72 15.604 78.169 17.289 76.618 18.974 75.969 21.684 75.969 25.303 75.879288 27.3246782 76.1850026 29.3444322 76.869 31.249 77.4613427 32.7397163 78.5585549 33.9749649 79.969 34.739 81.6947241 35.5869124 83.6060946 35.9868628 85.527 35.902 86.9229203 35.921384 88.3148025 35.7473988 89.663 35.385L89.792 35.385C89.921 35.385 90.051 35.514 90.18 35.644L90.439 36.937 90.439 37.066C90.439 37.195 90.439 37.195 90.31 37.325 90.240178 37.395279 90.1491583 37.4406131 90.051 37.454 88.5102251 37.9460405 86.895086 38.1640098 85.279 38.098zM98.984 34.091C99.1277853 34.6120161 99.4453385 35.0682342 99.884 35.384 100.440266 35.6770639 101.066486 35.8113034 101.694 35.772L104.021 35.772C104.127855 35.7567575 104.235652 35.7927022 104.311975 35.8690251 104.388298 35.9453479 104.424242 36.0531449 104.409 36.16L104.409 37.194C104.409 37.323 104.409 37.323 104.28 37.453 104.151 37.583 104.151 37.582 104.021 37.582 103.633 37.582 103.121 37.711 102.599 37.711 102.077 37.711 101.565 37.84 101.177 37.84 100.158406 37.9180045 99.136463 37.7402902 98.204 37.323 97.4946389 36.9154957 96.9470112 36.2764202 96.653 35.513 96.2946262 34.3849188 96.1200627 33.2065308 96.136 32.023L96.136 15.477C96.1365458 15.4426227 96.1231301 15.4094929 96.0988186 15.3851814 96.0745071 15.3608699 96.0413773 15.3474542 96.007 15.348 95.937178 15.277721 95.8461583 15.2323869 95.748 15.219L91.999 15.219C91.8566147 15.2393271 91.7129676 15.1914372 91.6112652 15.0897348 91.5095628 14.9880324 91.4616729 14.8443853 91.482 14.702L91.482 13.538C91.4616729 13.3956147 91.5095628 13.2519676 91.6112652 13.1502652 91.7129676 13.0485628 91.8566147 13.0006729 91.999 13.021L95.748 13.021C95.8870444 13.0117814 95.9977814 12.9010444 96.007 12.762L96.007 7.075C95.9866729 6.93261468 96.0345628 6.78896763 96.1362652 6.6872652 96.2379676 6.58556276 96.3816147 6.53767291 96.524 6.558L98.075 6.558C98.2173853 6.53767291 98.3610324 6.58556276 98.4627348 6.6872652 98.5644372 6.78896763 98.6123271 6.93261468 98.592 7.075L98.592 12.758C98.6012186 12.8970444 98.7119556 13.0077814 98.851 13.017L104.022 13.017C104.164385 12.9966729 104.308032 13.0445628 104.409735 13.1462652 104.511437 13.2479676 104.559327 13.3916147 104.539 13.534L104.539 14.697C104.559327 14.8393853 104.511437 14.9830324 104.409735 15.0847348 104.308032 15.1864372 104.164385 15.2343271 104.022 15.214L98.851 15.214C98.722 15.214 98.722 15.214 98.592 15.343L98.463 15.472 98.463 31.764C98.723 32.669 98.852 33.574 98.984 34.091zM112.554 13.151C112.653314 13.2542606 112.700714 13.3968306 112.683 13.539L112.683 37.064C112.700714 37.2061694 112.653314 37.3487394 112.554 37.452 112.425 37.581 112.425 37.581 112.166 37.581L110.615 37.581C110.472615 37.6013271 110.328968 37.5534372 110.227265 37.4517348 110.125563 37.3500324 110.077673 37.2063853 110.098 37.064L110.098 15.477C110.098546 15.4426227 110.08513 15.4094929 110.060819 15.3851814 110.036507 15.3608699 110.003377 15.3474542 109.969 15.348 109.899178 15.277721 109.808158 15.2323869 109.71 15.219L106.737 15.219C106.594615 15.2393271 106.450968 15.1914372 106.349265 15.0897348 106.247563 14.9880324 106.199673 14.8443853 106.22 14.702L106.22 13.538C106.199673 13.3956147 106.247563 13.2519676 106.349265 13.1502652 106.450968 13.0485628 106.594615 13.0006729 106.737 13.021L111.908 13.021C112.42 13.021 112.554 13.021 112.554 13.151zM113.071 3.198C113.804152 3.93783756 113.913162 5.09231881 113.33145 5.95631077 112.749738 6.82030273 111.639045 7.15357693 110.67776 6.75257646 109.716474 6.351576 109.171876 5.32779696 109.376595 4.30654215 109.581314 3.28528735 110.478429 2.55051137 111.52 2.551 112.07707 2.65354071 112.605845 2.87377826 113.071 3.197L113.071 3.198zM125.998 37.064C124.447 33.574 122.898 29.564 121.086 24.913 119.274 20.262 117.986 16.64 116.95 13.796 116.942124 13.6167568 116.898253 13.4409323 116.821 13.279 116.821 13.15 116.821 13.15 116.95 13.02 116.95 12.891 117.079 12.891 117.209 12.891L118.889 12.891C119.148 12.891 119.406 13.02 119.406 13.279 120.569 16.64 121.862 20.518 123.542 24.913 125.222 29.308 126.515 32.54 127.42 34.737 127.549 34.866 127.679 34.996 127.808 34.996L128.067 34.996 128.196 34.867C129.096 32.667 130.396 29.438 132.074 25.043 133.752 20.648 135.047 16.77 136.21 13.543 136.21 13.414 136.339 13.284 136.339 13.155 136.468 13.155 136.598 13.026 136.727 13.026L138.278 13.026C138.407 13.026 138.537 13.026 138.537 13.155 138.666 13.155 138.666 13.284 138.666 13.414L138.537 13.802C137.503 16.646 136.21 20.394 134.401 25.177 132.591 29.83 131.04 33.838 129.618 37.198 129.489 37.327 129.489 37.457 129.359 37.586 129.255739 37.6853135 129.113169 37.7327144 128.971 37.715L126.644 37.715C126.341237 37.6069551 126.103707 37.3675871 125.998 37.064zM157.28 37.84C155.919006 38.1157225 154.532528 38.2457886 153.144 38.228 149.137 38.228 146.035 37.194 144.225 35.128 142.286 33.06 141.381 29.828 141.381 25.304 141.381 21.297 142.281 18.195 144.096 15.868 145.911 13.541 148.619 12.504 152.367 12.504 156.115 12.504 158.701 13.538 160.123 15.477 161.669551 17.9038533 162.437191 20.7455181 162.323 23.621 162.360243 24.2273833 162.316865 24.8360277 162.194 25.431 162.209242 25.5378551 162.173298 25.6456521 162.096975 25.7219749 162.020652 25.7982978 161.912855 25.8342425 161.806 25.819L144.226 25.819C144.097 25.819 143.967 25.948 143.967 26.207 143.967 29.5676667 144.742667 32.0236667 146.294 33.575 147.845 35.126 150.172 36.031 153.533 36.031 154.657364 36.0089966 155.77954 35.9225213 156.894 35.772 157.875021 35.5885688 158.830052 35.2863439 159.738 34.872L159.997 34.872C160.031377 34.8714542 160.064507 34.8848699 160.088819 34.9091814 160.11313 34.9334929 160.126546 34.9666227 160.126 35.001L160.255 35.13 160.643 36.423 160.643 36.552C160.633826 36.6514059 160.587813 36.7437887 160.514 36.811 160.514 36.94 160.385 36.94 160.255 36.94 159.280569 37.2942714 158.287405 37.5947244 157.28 37.84L157.28 37.84zM144.095 23.75L159.607 23.75C159.736 23.75 159.866 23.75 159.866 23.621L159.866 23.362C159.913734 21.6907403 159.650604 20.025154 159.09 18.45 158.64782 17.2002252 157.777851 16.1471236 156.634 15.477 155.236646 14.7582026 153.680871 14.4026165 152.11 14.443 149.266 14.443 147.198 15.343 145.91 17.028 144.576429 18.8717212 143.853299 21.0865676 143.842 23.362 143.707 23.621 143.836 23.75 144.095 23.75L144.095 23.75zM169.301 47.406C169.172 47.277 169.172 47.277 169.172 47.018L169.172 1.518C169.151673 1.37561468 169.199563 1.23196763 169.301265 1.1302652 169.402968 1.02856276 169.546615.980672907 169.689 1.001L170.723 1.001C170.865385.980672907 171.009032 1.02856276 171.110735 1.1302652 171.212437 1.23196763 171.260327 1.37561468 171.24 1.518L171.24 47.148C171.260327 47.2903853 171.212437 47.4340324 171.110735 47.5357348 171.009032 47.6374372 170.865385 47.6853271 170.723 47.665L169.689 47.665C169.56 47.535 169.431 47.535 169.301 47.406z"/>
    </g>
    <g transform="translate(.524 .884)">
      <circle cx="43.045" cy="44.636" r="4.007" fill="#FFF" fill-rule="nonzero"/>
      <path stroke="#00EDFF" stroke-width=".5" d="M24.3,22.274 C34.253,26.54 44.336,30.805 53.643,36.493 C62.95,42.181 71.483,49.161 77.558,58.209 C78.2541427,59.1908178 78.7785905,60.283671 79.109,61.441 C79.4209371,62.6416487 79.0791865,63.9178973 78.209,64.802 C77.1217231,65.5709932 75.7632041,65.852191 74.46,65.578 C68.772,64.932 63.343,62.863 58.173,60.537 C50.154,56.917 42.4,52.779 34.643,48.514 C23.914,42.698 13.185,36.879 3.749,29.379 C2.586,28.479 1.422,27.179 1.681,25.76 C3.749,24.726 6.205,25.501 8.273,26.148 C25.6392584,32.3359703 42.3170996,40.3079288 58.039,49.936 C63.21,53.168 68.38,56.529 72.517,61.053 C73.81,62.475 74.844,64.802 73.417,65.965 C72.8234577,66.4046605 72.0796128,66.5906217 71.349,66.482 C68.6291461,66.4413701 65.9296211,66.0058215 63.335,65.189 C40.8321411,59.2814343 20.2804413,47.5553428 3.745,31.189 C2.582,30.026 1.289,28.089 2.323,26.794 C2.90976362,26.1982919 3.68991529,25.8316206 4.523,25.76 C8.013,25.243 11.632,25.889 14.993,26.536 C33.17987,30.1795771 50.3453876,37.7705012 65.278,48.773 C67.8812739,50.5153039 70.1568047,52.703158 72,55.236 C72.776,56.27 73.163,57.951 72.129,58.855 C71.6323159,59.1784924 71.0372381,59.315927 70.449,59.243 C67.112808,59.1359455 63.8071812,58.570651 60.625,57.563 C39.820843,51.9712694 20.5237484,41.8149218 4.136,27.832 C2.585,26.539 1.036,24.859 1.421,22.92 C4.911,22.403 8.53,23.437 11.891,24.471 C20.3191065,27.2734615 28.5646996,30.5975487 36.58,34.424 C49.765,40.758 62.95,48.124 72.257,59.372 C73.0111463,60.1910277 73.5836589,61.1602098 73.937,62.216 C74.2492568,63.2977681 73.8968023,64.4620429 73.037,65.189 C72.4112601,65.5554735 71.6935815,65.7348931 70.969,65.706 C68.000408,65.7095779 65.0445146,65.3184853 62.179,64.543 C46.926,60.665 33.095,52.522 20.298,43.343 C15.382,39.725 10.47,35.979 6.463,31.322 C4.912,29.512 3.619,27.056 4.783,24.988 C5.817,23.308 8.144,23.049 10.212,23.178 C29.731,23.695 48.732,31.063 64.89,41.921 C68.5033113,44.2494647 71.8046523,47.0295944 74.714,50.194 C77.6563693,53.3655046 79.6294154,57.3129848 80.4,61.57 C80.6644872,62.7439949 80.5278793,63.9727622 80.012,65.06 C78.849,66.999 76.134,66.999 73.937,66.611 C68.5178863,65.5583441 63.1985616,64.0448457 58.037,62.087 C39.552,55.107 20.68,46.317 7.754,31.193 C5.34609347,28.4320475 3.3445779,25.3415512 1.81,22.015 C1.47047516,21.2888204 1.37945698,20.4710625 1.551,19.688 C1.939,18.266 3.751,17.878 5.3,17.878 C8.59286268,17.9961034 11.854389,18.5612776 14.995,19.558 C26.484679,22.3969667 37.5625014,26.6987726 47.957,32.358 C58.384682,38.0392926 67.3634953,46.0463136 74.197,55.758 C75.49,57.697 76.782,60.024 76.265,62.35 C72.904,63.643 69.156,63.126 65.536,62.479 C43.756064,58.7711491 23.412074,49.1550216 6.722,34.679 C4.007,32.356 1.422,29.771 0,26.54 C1.163,25.118 3.361,25.377 5.171,25.894 C11.1657088,27.6625397 17.0382568,29.8214861 22.751,32.357 C38.1734308,39.0675419 53.1533478,46.7523939 67.6,55.365"/>
      <path stroke="#00EDFF" stroke-width=".5" d="M80.789,31.193 C76.1689063,35.3197733 71.3366731,39.2027164 66.312,42.826 C50.8,54.072 33.352,63.121 14.477,66.223 C11.3989026,66.7588751 8.29065657,67.1041987 5.17,67.257 C4.27,67.257 2.97,67.257 2.714,66.357 C2.455,65.581 3.102,64.806 3.614,64.157 C13.179,53.299 25.46,45.285 37.74,37.657 C49.12,30.546 60.752,23.437 73.421,18.913 C75.231,18.267 77.687,17.75 78.979,19.172 C75.36,27.186 68.379,33.262 61.399,38.562 C51.0732314,46.5529206 39.9392065,53.4407998 28.179,59.113 C21.845,62.213 15.253,64.93 8.272,65.313 C8.401,64.02 9.435,62.986 10.34,62.081 C14.9933333,57.4276667 19.776,52.9033333 24.688,48.508 C34.512,39.718 44.982,31.316 57.133,26.408 C62.2033591,24.260702 67.6557113,23.1613194 73.162,23.176 C74.455,23.176 76.135,23.564 76.652,24.727 C77.169,25.761 76.652,27.054 76.006,28.088 C73.679,32.354 70.318,35.844 66.828,39.334 C59.5560314,46.9359416 51.3468489,53.5822543 42.398,59.113 C33.4051115,64.6581225 23.2970009,68.1454207 12.798,69.325 C11.118,69.454 8.92,69.454 7.757,67.903 C8.657,64.93 10.857,62.474 13.057,60.276 C16.935,56.398 21.071,52.649 25.337,49.03 C32.5504967,42.766298 40.3921732,37.2650603 48.737,32.614 C57.1247638,27.9631214 66.3505861,25.019491 75.882,23.953 C76.658,25.763 75.623,27.831 74.331,29.511 C68.773,37.396 60.888,43.211 52.744,48.511 C41.11,56.011 28.444,62.471 14.87,64.023 C11.509,64.411 7.761,64.54 4.787,62.73 C5.304,60.53 7.114,58.981 8.794,57.43 C18.489,49.286 28.313,41.143 39.171,34.421 C50.029,27.699 61.792,22.27 74.201,20.073 C75.881,19.814 77.95,19.814 78.596,21.366 C76.528,26.537 72.779,30.802 68.772,34.68 C60.1044813,43.5197974 50.0628876,50.8979288 39.037,56.528 C30.893,60.664 21.974,64.028 12.926,63.637 C10.987,63.508 8.79,63.249 7.497,61.698 C8.81539778,58.9192905 10.7088224,56.4522144 13.052,54.46 C28.0122463,39.9404651 45.9066399,28.7907791 65.533,21.76 C68.377,20.726 71.733,19.821 74.323,21.243 C74.064,23.958 72.123,26.026 70.316,28.094 C62.692,36.363 54.678,44.248 45.5,50.711 C36.322,57.174 25.723,61.828 14.477,62.991 C11.6349929,63.2941217 8.76493862,63.2086694 5.946,62.737 C4.395,62.345 2.585,61.437 2.452,59.889 C2.44204618,58.8319154 2.92206661,57.8297805 3.752,57.175 C7.10807267,53.3902147 10.9301768,50.0459155 15.127,47.222 C26.083184,39.2313519 37.6687504,32.1414922 49.77,26.022 C55.97,22.79 62.309,19.947 69.16,18.654 C70.3126366,18.2822527 71.564864,18.3751831 72.65,18.913 C74.33,19.947 74.201,22.403 73.684,24.213 C72.4225306,27.9884008 70.398671,31.4642929 67.738,34.425 C61.7038291,41.193298 54.2404651,46.5354954 45.888,50.065 C37.5698329,53.5714086 28.8389036,56.0039849 19.906,57.304 C17.062,57.692 13.96,58.08 11.762,56.27 C13.572,52.004 17.708,49.419 21.715,46.963 C35.3067475,38.7986794 49.3778902,31.4603934 63.852,24.988 C67.7369435,23.0542793 71.8687941,21.6626397 76.132,20.852 C77.425,21.886 76.649,24.084 75.744,25.376 C72.383,30.288 67.859,34.166 63.205,37.656 C49.12,48.772 33.352,58.337 15.899,62.087 C12.926,62.733 9.177,62.987 7.238,60.536 C8.66,57.175 11.633,54.719 14.477,52.522 C28.696,41.663 43.303,31.322 58.552,21.886 C61.525,20.076 64.752,18.137 68.247,18.137 C68.893,20.593 67.347,23.178 65.791,25.246 C60.6308892,32.1941037 54.9265874,38.7209967 48.732,44.765"/>
      <path stroke="#00EDFF" stroke-width=".5" d="M49.895,9.864 C51.834,17.364 54.161,84.964 43.561,83.544 C34.901,82.51 33.608,8.701 41.623,5.081 C51.447,14.646 52.481,37.397 52.869,50.065 C53.128,56.528 53.903,85.483 44.338,78.503 C36.711,72.815 35.807,47.48 35.807,39.078 C35.807,34.037 41.495,-0.477 45.89,2.238 C50.285,4.953 61.402,57.692 54.163,77.599 C48.603,92.981 40.717,87.939 35.676,76.047 C30.635,64.284 30.505,50.065 30.893,37.527 C31.022,32.615 31.152,4.565 39.554,4.306 C46.922,4.047 49.895,31.322 50.541,36.106 C52.48,49.42 53.126,64.156 50.67,77.47 C48.085,91.818 43.043,93.499 38.39,79.28 C31.928,59.631 22.233,22.144 35.159,3.272 C42.915,-8.228 47.18,13.742 48.99,20.852 C52.0161357,33.2440063 53.4496978,45.9713225 53.256,58.726 C53.127,63.25 52.739,89.749 43.82,89.361 C36.32,88.973 33.22,57.433 32.574,51.745 C31.152,38.945 30.247,23.695 34.254,11.286 C38.649,-2.545 43.949,4.694 47.568,14.647 C52.609,28.347 54.677,43.861 54.936,58.467 C55.066,65.318 53.903,96.341 42.917,87.681 C33.867,80.571 27.404,6.374 40.33,3.142 C54.549,17.49 50.283,56.399 47.439,74.237"/>
    </g>
    <g fill="#00EDFF" fill-rule="nonzero" transform="translate(275.501 23.492)">
      <path d="M21.682 12.505C23.5381978 13.3507763 25.0452022 14.811857 25.948 16.641 26.9667338 18.9143368 27.4530875 21.3902259 27.37 23.88 27.4378256 26.4102169 26.95253 28.9247443 25.948 31.248 25.0833916 33.1046383 23.5644985 34.5772454 21.682 35.384 16.8634541 37.2799301 11.5055459 37.2799301 6.687 35.384 4.83080217 34.5382237 3.32379778 33.077143 2.421 31.248 1.40341831 28.9287919.917553817 26.4113169.999 23.88.915877221 21.390223 1.40223244 18.9143261 2.421 16.641 3.32379778 14.811857 4.83080217 13.3507763 6.687 12.505 11.536735 10.781348 16.832265 10.781348 21.682 12.505zM17.675 28.663C18.4522005 27.1938147 18.8099372 25.5390231 18.709 23.88 18.8099372 22.2209769 18.4522005 20.5661853 17.675 19.097 16.7837986 18.108978 15.5155741 17.5449994 14.185 17.5449994 12.8544259 17.5449994 11.5862014 18.108978 10.695 19.097 9.9177995 20.5661853 9.56006282 22.2209769 9.661 23.88 9.62513532 25.0983655 9.75567254 26.3159278 10.049 27.499 10.2550298 28.3046144 10.7645478 28.9993792 11.471 29.438 12.3011984 29.8941945 13.2393073 30.1174057 14.186 30.084 15.5211318 30.2821846 16.8582493 29.7376033 17.675 28.663L17.675 28.663zM29.955 11.729C30.0582606 11.6296865 30.2008306 11.5822856 30.343 11.6L37.711 11.6C37.8533853 11.5796729 37.9970324 11.6275628 38.0987348 11.7292652 38.2004372 11.8309676 38.2483271 11.9746147 38.228 12.117L38.228 14.185C38.228 14.314 38.228 14.444 38.357 14.444 38.486 14.444 38.486 14.444 38.616 14.315 40.167 12.247 42.623 11.215 45.725 11.215 47.5907939 11.1280163 49.450803 11.4822712 51.154 12.249 52.3726863 12.9231071 53.2948695 14.0290134 53.739 15.349 54.2097438 17.1190581 54.42724 18.9469016 54.385 20.778L54.385 35.901C54.4053271 36.0433853 54.3574372 36.1870324 54.2557348 36.2887348 54.1540324 36.3904372 54.0103853 36.4383271 53.868 36.418L46.5 36.418C46.3576147 36.4383271 46.2139676 36.3904372 46.1122652 36.2887348 46.0105628 36.1870324 45.9626729 36.0433853 45.983 35.901L45.983 22.329C45.9870742 21.4176431 45.9003121 20.5081488 45.724 19.614 45.6173312 19.0057947 45.235703 18.4809638 44.69 18.192 44.0352959 17.7780647 43.2605443 17.5959981 42.49 17.675 41.5274963 17.6542945 40.581179 17.9247705 39.775 18.451 39.0175059 19.0362463 38.4727001 19.8536305 38.224 20.778 37.9279484 21.8727475 37.7971706 23.0055933 37.836 24.139L37.836 35.772C37.8563271 35.9143853 37.8084372 36.0580324 37.7067348 36.1597348 37.6050324 36.2614372 37.4613853 36.3093271 37.319 36.289L29.951 36.289C29.8086147 36.3093271 29.6649676 36.2614372 29.5632652 36.1597348 29.4615628 36.0580324 29.4136729 35.9143853 29.434 35.772L29.434 12.112C29.6500667 12.055262 29.8363811 11.9182976 29.955 11.729L29.955 11.729zM59.944 36.16C59.8016147 36.1803271 59.6579676 36.1324372 59.5562652 36.0307348 59.4545628 35.9290324 59.4066729 35.7853853 59.427 35.643L59.427 18.709C59.4177814 18.5699556 59.3070444 18.4592186 59.168 18.45L56.068 18.45C55.9256147 18.4703271 55.7819676 18.4224372 55.6802652 18.3207348 55.5785628 18.2190324 55.5306729 18.0753853 55.551 17.933L55.551 12.117C55.5306729 11.9746147 55.5785628 11.8309676 55.6802652 11.7292652 55.7819676 11.6275628 55.9256147 11.5796729 56.068 11.6L59.168 11.6C59.3070444 11.5907814 59.4177814 11.4800444 59.427 11.341L59.427 9.79C59.427 6.817 60.327 4.619 62.012 3.198 63.697 1.777 66.278.998 69.768.998 70.4170127.976547432 71.0665491 1.01976053 71.707 1.127 72.2775932 1.11805685 72.8455936 1.20562358 73.387 1.386 73.4851583 1.39938689 73.576178 1.44472102 73.646 1.515 73.646 1.644 73.775 1.774 73.775 1.903L73.775 7.332C73.775 7.461 73.775 7.591 73.646 7.591 73.517 7.72 73.517 7.72 73.387 7.72L71.319 7.72C70.3690612 7.65050583 69.4208434 7.87612229 68.604 8.366 68.0440889 8.90131278 67.7584627 9.66249186 67.828 10.434L67.828 11.08C67.8372186 11.2190444 67.9479556 11.3297814 68.087 11.339L71.836 11.339C71.9783853 11.3186729 72.1220324 11.3665628 72.2237348 11.4682652 72.3254372 11.5699676 72.3733271 11.7136147 72.353 11.856L72.353 17.8C72.3733271 17.9423853 72.3254372 18.0860324 72.2237348 18.1877348 72.1220324 18.2894372 71.9783853 18.3373271 71.836 18.317L68.087 18.317C67.9479556 18.3262186 67.8372186 18.4369556 67.828 18.576L67.828 35.513C67.8483271 35.6553853 67.8004372 35.7990324 67.6987348 35.9007348 67.5970324 36.0024372 67.4533853 36.0503271 67.311 36.03L59.943 36.03 59.944 36.16z"/>
    </g>
    <path fill="#00EDFF" fill-rule="nonzero" d="M274.95,52.025 L274.95,52.025 C274.304,52.1543333 273.528333,52.2836667 272.623,52.413 C271.808688,52.5171045 270.987737,52.5602245 270.167,52.542 C268.53622,52.6143006 266.908034,52.3498012 265.384,51.765 C264.19366,51.2424898 263.262523,50.2645254 262.799,49.05 C262.217545,47.435464 261.954034,45.7236602 262.023,44.009 C261.966706,42.2525816 262.229633,40.5005269 262.799,38.838 C263.257575,37.5896297 264.184954,36.5693331 265.384,35.994 C266.924107,35.300059 268.609906,34.991179 270.296,35.094 C271.116737,35.0757755 271.937688,35.1188955 272.752,35.223 C273.652,35.352 274.303,35.352 274.82,35.482 C275.079,35.482 275.208,35.482 275.337,35.223 L276.371,28.631 C276.371,28.372 276.242,28.243 275.983,28.114 C275.011071,27.8458385 274.015399,27.6726926 273.01,27.597 C271.849947,27.4894945 270.684824,27.4464283 269.52,27.468 C264.22,27.468 260.213,28.761 257.628,31.217 L257.499,56.679 C258.339967,57.4698338 259.299592,58.124093 260.343,58.618 C263.193433,59.8540899 266.286831,60.4284609 269.391,60.298 C270.598771,60.3195622 271.80683,60.2765007 273.01,60.169 C273.974783,60.1070664 274.929145,59.9335767 275.854,59.652 C276.113,59.523 276.242,59.393 276.242,59.135 L276.242,59.005 L275.466,52.542 C275.337,52.154 275.079,52.025 274.95,52.025 Z"/>
  </g>
</svg>
