<?xml version="1.0" ?><svg id="Layer_1" style="enable-background:new 0 0 512 512;" version="1.1" viewBox="0 0 512 512" xml:space="preserve" xmlns="http://www.w3.org/2000/svg" xmlns:xlink="http://www.w3.org/1999/xlink"><style type="text/css">
	.st0{fill:#F78E2F;}
	.st1{fill:#E87C23;}
	.st2{fill:#FFFFFF;}
</style><g id="XMLID_1595_"><circle class="st0" cx="256" cy="256" id="XMLID_1884_" r="256"/><path class="st1" d="M352.9,128.4c0.2-0.4-0.2-0.7-0.6-0.5l-15.9,8.4c-0.1,0.1-0.3,0-0.4-0.1l-12.9-12.5   c-0.3-0.3-0.7,0-0.7,0.4l3.1,17.7c0,0.1,0,0.3-0.2,0.3l-15.9,8.4c-0.3,0.2-0.3,0.7,0.1,0.8l7.1,6c-1.1,0.9-2.2,1.8-3.4,2.8   c-1.9,1.6-3.8,3.4-5.8,5.3c0,0,0,0,0,0c-0.1-0.1-0.2-0.2-0.4-0.2l-52-51.5c0.3-0.2,0.1-0.7-0.3-0.7l-8.3,0.2l-16-16.9   c-0.1-0.4-0.7-0.4-0.8,0l-5.1,17.2c0,0.1-0.2,0.2-0.3,0.2l-17.9,0.5c-0.4,0-0.5,0.5-0.2,0.7l14,13.8l-4.1,13.9   c-0.1,0.4,0.3,0.7,0.6,0.4l2.3-1.7l6.5,8.7c0,1.4-0.1,2.9-0.1,4.4c0,2.8,0.1,5.8,0.3,8.8c0.2,3,0.5,6.2,0.9,9.3   c0.4,3.2,0.9,6.4,1.6,9.5c0.3,1.6,0.7,3.2,1,4.7c0.3,1.6,0.8,3.1,1.2,4.7c0.8,3.1,1.8,6.1,2.8,8.9c0.5,1.4,1,2.8,1.5,4.2   c0.5,1.4,1,2.7,1.6,4c0.2,0.5,0.4,0.9,0.6,1.4l-30.2-30.9c0.1-0.3-0.2-0.5-0.4-0.3l-9.9,7.7c-0.1,0.1-0.2,0.1-0.3,0l-10.4-7   c-0.2-0.2-0.5,0.1-0.4,0.3l4.3,11.8c0,0.1,0,0.2-0.1,0.3l-9.9,7.7c-0.1,0.1-0.1,0.2-0.1,0.3l-38.4-32.2c0-0.4-0.5-0.6-0.7-0.2   l-10.6,14.5c-0.1,0.1-0.2,0.2-0.4,0.1l-17.1-5.6c-0.4-0.1-0.7,0.3-0.5,0.6l10.5,14.5c0.1,0.1,0.1,0.3,0,0.4l-10.6,14.5   c-0.2,0.3,0.1,0.7,0.4,0.6c0,0,43.9,44.1,44,44.1l-4.4,0.9c-0.3,0.1-0.3,0.4-0.1,0.5l2.7,1.3l8.2,9l-0.9,7.7c0,0.3,0.3,0.4,0.5,0.2   l15.1,14.1c-2.5,0.5-5,0.9-7.5,1.2c-3.1,0.4-6.1,0.7-9.1,0.9c-2.9,0.2-5.8,0.3-8.5,0.3c-0.2,0-0.4,0-0.6,0l-12.8-14.8   c0.2-0.3-0.2-0.7-0.5-0.6l-16.5,7.2L110,265.7c-0.3-0.3-0.7-0.1-0.7,0.3l1.7,17.9c0,0.1-0.1,0.3-0.2,0.3l-16.5,7.2   c-0.4,0.2-0.3,0.7,0.1,0.8l81.3,83l-11.5,1c-0.4,0-0.5,0.5-0.2,0.7l15.7,9.1l-3,13c-0.1,0.4-1.3,5.5-1,5.2l109.8,106.2   C402.9,496.8,496.1,404,510.1,286.8L352.9,128.4z M179.9,284.5c-0.1,0-0.1,0-0.2,0l0.2-0.2L179.9,284.5z M216.8,243.3   c0.8,0.1,1.5,1,0,0.6L216.8,243.3z M212.9,242.6L212.9,242.6C212.9,242.5,212.9,242.5,212.9,242.6L212.9,242.6z M214.9,244.5   L214.9,244.5C214.9,244.5,214.9,244.5,214.9,244.5L214.9,244.5z M215.5,243.6c-0.2-0.1-0.4-0.1-0.7-0.2l0-0.5   c0.3,0.1,0.7,0.1,1,0.2L215.5,243.6z M216.8,246.4L216.8,246.4C216.8,246.4,216.8,246.4,216.8,246.4L216.8,246.4z M217.5,245.5   c-0.2-0.1-0.4-0.1-0.7-0.2l0-0.5c0.3,0.1,0.7,0.1,1,0.2L217.5,245.5z M218.7,247.3l0-0.5C219.1,246.8,219,247.3,218.7,247.3z    M218.7,245.9l0-0.6C219.5,245.4,220.3,246.3,218.7,245.9z" id="XMLID_1900_"/><g id="XMLID_242_"><g id="XMLID_1619_"><g id="XMLID_1633_"><g id="XMLID_1644_"><path class="st2" d="M341.7,209l-8.9-8.8c-0.1-0.1-0.1-0.2,0-0.3l5.7-11.2c0.1-0.2-0.1-0.5-0.4-0.4l-11.2,5.7       c-0.1,0-0.2,0-0.3,0l-8.9-8.8c-0.2-0.2-0.5,0-0.5,0.2l2,12.4c0,0.1,0,0.2-0.1,0.2l-11.2,5.7c-0.2,0.1-0.2,0.5,0.1,0.5l12.4,1.9       c0.1,0,0.2,0.1,0.2,0.2l2,12.4c0,0.3,0.4,0.3,0.5,0.1l5.7-11.2c0-0.1,0.1-0.1,0.2-0.1l12.4,1.9       C341.7,209.5,341.9,209.2,341.7,209z" id="XMLID_1893_"/><path class="st2" d="M317.7,207.1c0,0,0,0.1-0.1,0.1c-0.9,1.6-2.4,3.9-4.3,6.6c-1,1.3-2.1,2.7-3.2,4.2       c-1.2,1.4-2.5,3-3.9,4.5c-1.4,1.5-2.9,3-4.5,4.5c-1.6,1.5-3.2,2.9-5,4.3c-0.8,0.7-1.7,1.4-2.6,2c-0.9,0.7-1.8,1.3-2.7,1.9       c-1.8,1.3-3.6,2.4-5.3,3.5c-0.9,0.6-1.8,1.1-2.6,1.6c-0.9,0.5-1.7,1-2.6,1.4c-1.7,0.9-3.3,1.7-4.8,2.4       c-1.5,0.7-2.9,1.3-4.2,1.8c-1.3,0.5-2.4,1-3.3,1.3c-1.8,0.7-2.9,1-2.9,1s1.1-0.3,3-0.8c0.9-0.2,2.1-0.6,3.4-1.1       c1.3-0.4,2.7-1,4.3-1.5c1.6-0.6,3.3-1.3,5-2.1c0.9-0.4,1.8-0.8,2.7-1.3c0.9-0.5,1.9-0.9,2.8-1.4c1.9-1,3.8-2.1,5.7-3.2       c0.9-0.6,1.9-1.2,2.8-1.8c0.9-0.6,1.9-1.3,2.8-1.9c1.9-1.3,3.6-2.7,5.4-4.1c1.7-1.4,3.4-2.9,4.9-4.3c1.6-1.4,3-2.9,4.3-4.3       c1.3-1.4,2.6-2.8,3.6-4.1c1.5-1.7,2.7-3.4,3.7-4.7l-0.7-4.1L317.7,207.1z" id="XMLID_1646_"/></g><g id="XMLID_1640_"><path class="st2" d="M181.8,199.6l9.9-7.7c0.1-0.1,0.1-0.2,0.1-0.3l-4.3-11.8c-0.1-0.3,0.2-0.5,0.4-0.3       l10.4,7c0.1,0.1,0.2,0.1,0.3,0l9.9-7.7c0.2-0.2,0.5,0,0.4,0.3l-3.4,12.1c0,0.1,0,0.2,0.1,0.2l10.4,7c0.2,0.2,0.1,0.5-0.1,0.5       l-12.5,0.5c-0.1,0-0.2,0.1-0.2,0.2l-3.4,12.1c-0.1,0.3-0.4,0.3-0.5,0l-4.3-11.8c0-0.1-0.1-0.2-0.2-0.1l-12.5,0.5       C181.8,200.1,181.6,199.8,181.8,199.6z" id="XMLID_1642_"/><path class="st2" d="M205.8,200.6c0,0,0,0.1,0.1,0.1c0.7,1.7,1.9,4.2,3.5,7.1c0.8,1.4,1.7,3,2.7,4.5       c1,1.6,2.1,3.2,3.4,4.9c1.2,1.7,2.5,3.3,3.9,5c1.4,1.6,2.9,3.3,4.4,4.9c0.8,0.8,1.5,1.6,2.3,2.3c0.8,0.8,1.6,1.5,2.4,2.2       c1.6,1.5,3.3,2.8,4.9,4.1c0.8,0.7,1.6,1.3,2.4,1.9c0.8,0.6,1.6,1.2,2.4,1.7c1.6,1.1,3.1,2,4.5,2.9c1.4,0.8,2.7,1.7,3.9,2.3       c1.2,0.6,2.2,1.2,3.1,1.6c1.8,0.9,2.8,1.4,2.8,1.4s-1-0.4-2.8-1.2c-0.9-0.4-2-0.9-3.2-1.4c-1.3-0.5-2.6-1.3-4.1-2       c-1.5-0.8-3.1-1.7-4.7-2.7c-0.8-0.5-1.7-1-2.5-1.6c-0.8-0.6-1.7-1.1-2.6-1.7c-1.7-1.2-3.5-2.5-5.2-3.9       c-0.9-0.7-1.8-1.4-2.6-2.1c-0.9-0.7-1.7-1.5-2.5-2.2c-1.7-1.5-3.3-3.1-4.9-4.7c-1.5-1.6-3-3.2-4.4-4.9       c-1.4-1.6-2.6-3.3-3.8-4.8c-1.1-1.6-2.2-3.1-3.1-4.5c-1.2-1.9-2.3-3.6-3.1-5.1l1.1-4L205.8,200.6z" id="XMLID_1641_"/></g><g id="XMLID_1637_"><path class="st2" d="M335.5,313.5l-9.9,7.7c-0.1,0.1-0.1,0.2-0.1,0.3l4.3,11.8c0.1,0.3-0.2,0.5-0.4,0.3       l-10.4-7c-0.1-0.1-0.2-0.1-0.3,0l-9.9,7.7c-0.2,0.2-0.5,0-0.4-0.3L312,322c0-0.1,0-0.2-0.1-0.2l-10.4-7       c-0.2-0.2-0.1-0.5,0.1-0.5l12.5-0.5c0.1,0,0.2-0.1,0.2-0.2l3.4-12.1c0.1-0.3,0.4-0.3,0.5,0l4.3,11.8c0,0.1,0.1,0.2,0.2,0.1       l12.5-0.5C335.6,312.9,335.8,313.3,335.5,313.5z" id="XMLID_1639_"/><path class="st2" d="M311.5,312.5c0,0,0-0.1-0.1-0.1c-0.7-1.7-1.9-4.2-3.5-7.1c-0.8-1.4-1.7-3-2.7-4.5       c-1-1.6-2.1-3.2-3.4-4.9c-1.2-1.7-2.5-3.3-3.9-5c-1.4-1.6-2.9-3.3-4.4-4.9c-0.8-0.8-1.5-1.6-2.3-2.3c-0.8-0.8-1.6-1.5-2.4-2.2       c-1.6-1.5-3.3-2.8-4.9-4.1c-0.8-0.7-1.6-1.3-2.4-1.9c-0.8-0.6-1.6-1.2-2.4-1.7c-1.6-1.1-3.1-2-4.5-2.9       c-1.4-0.8-2.7-1.7-3.9-2.3c-1.2-0.6-2.2-1.2-3.1-1.6c-1.8-0.9-2.8-1.4-2.8-1.4s1,0.4,2.8,1.2c0.9,0.4,2,0.9,3.2,1.4       c1.3,0.5,2.6,1.3,4.1,2c1.5,0.8,3.1,1.7,4.7,2.7c0.8,0.5,1.7,1,2.5,1.6c0.8,0.6,1.7,1.1,2.6,1.7c1.7,1.2,3.5,2.5,5.2,3.9       c0.9,0.7,1.8,1.4,2.6,2.1c0.9,0.7,1.7,1.5,2.5,2.2c1.7,1.5,3.3,3.1,4.9,4.7c1.5,1.6,3,3.2,4.4,4.9c1.4,1.6,2.6,3.3,3.8,4.8       c1.1,1.6,2.2,3.1,3.1,4.5c1.2,1.9,2.3,3.6,3.1,5.1l-1.1,4L311.5,312.5z" id="XMLID_1638_"/></g><g id="XMLID_1634_"><path class="st2" d="M175.7,304.1l8.9,8.8c0.1,0.1,0.1,0.2,0,0.3l-5.7,11.2c-0.1,0.2,0.1,0.5,0.4,0.4       l11.2-5.7c0.1,0,0.2,0,0.3,0l8.9,8.8c0.2,0.2,0.5,0,0.5-0.2l-2-12.4c0-0.1,0-0.2,0.1-0.2l11.2-5.7c0.2-0.1,0.2-0.5-0.1-0.5       l-12.4-1.9c-0.1,0-0.2-0.1-0.2-0.2l-2-12.4c0-0.3-0.4-0.3-0.5-0.1l-5.7,11.2c0,0.1-0.1,0.1-0.2,0.1l-12.4-1.9       C175.7,303.5,175.5,303.9,175.7,304.1z" id="XMLID_1636_"/><path class="st2" d="M199.6,305.9c0,0,0-0.1,0.1-0.1c0.9-1.6,2.4-3.9,4.3-6.6c1-1.3,2.1-2.7,3.2-4.2       c1.2-1.4,2.5-3,3.9-4.5c1.4-1.5,2.9-3,4.5-4.5c1.6-1.5,3.2-2.9,5-4.3c0.8-0.7,1.7-1.4,2.6-2c0.9-0.7,1.8-1.3,2.7-1.9       c1.8-1.3,3.6-2.4,5.3-3.5c0.9-0.6,1.8-1.1,2.6-1.6c0.9-0.5,1.7-1,2.6-1.4c1.7-0.9,3.3-1.7,4.8-2.4c1.5-0.7,2.9-1.3,4.2-1.8       c1.3-0.5,2.4-1,3.3-1.3c1.8-0.7,2.9-1,2.9-1s-1.1,0.3-3,0.8c-0.9,0.2-2.1,0.6-3.4,1.1c-1.3,0.4-2.7,1-4.3,1.5       c-1.6,0.6-3.3,1.3-5,2.1c-0.9,0.4-1.8,0.8-2.7,1.3c-0.9,0.5-1.9,0.9-2.8,1.4c-1.9,1-3.8,2.1-5.7,3.2c-0.9,0.6-1.9,1.2-2.8,1.8       c-0.9,0.6-1.9,1.3-2.8,1.9c-1.9,1.3-3.6,2.7-5.4,4.1c-1.7,1.4-3.4,2.9-4.9,4.3c-1.6,1.4-3,2.9-4.3,4.3       c-1.3,1.4-2.6,2.8-3.6,4.1c-1.5,1.7-2.7,3.4-3.7,4.7l0.7,4.1L199.6,305.9z" id="XMLID_1635_"/></g></g><g id="XMLID_1620_"><g id="XMLID_1630_"><path class="st2" d="M283.8,164.2l-12.5,0c-0.1,0-0.2-0.1-0.2-0.2l-3.9-11.9c-0.1-0.3-0.5-0.3-0.5,0       l-3.8,11.9c0,0.1-0.1,0.2-0.2,0.2l-12.5,0c-0.3,0-0.4,0.3-0.2,0.5l10.2,7.3c0.1,0.1,0.1,0.2,0.1,0.3l-3.8,11.9       c-0.1,0.3,0.2,0.5,0.4,0.3l10.1-7.4c0.1-0.1,0.2-0.1,0.3,0l10.2,7.3c0.2,0.2,0.5-0.1,0.4-0.3l-3.9-11.9c0-0.1,0-0.2,0.1-0.3       l10.1-7.4C284.2,164.6,284.1,164.2,283.8,164.2z" id="XMLID_1632_"/><path class="st2" d="M265.5,179.9c0,0,0,0.1,0,0.1c0.5,1.8,1.1,4.5,1.6,7.7c0.3,1.6,0.5,3.4,0.7,5.3       c0.2,1.9,0.3,3.9,0.4,5.9c0.1,2.1,0.1,4.2,0,6.4c-0.1,2.2-0.2,4.4-0.5,6.6c-0.1,1.1-0.2,2.2-0.4,3.3c-0.1,1.1-0.3,2.2-0.5,3.2       c-0.4,2.1-0.8,4.2-1.3,6.3c-0.2,1-0.5,2-0.8,3c-0.2,1-0.5,1.9-0.8,2.8c-0.5,1.8-1.2,3.5-1.7,5.1c-0.6,1.5-1.1,3-1.7,4.2       c-0.6,1.2-1,2.3-1.4,3.2c-0.8,1.8-1.3,2.8-1.3,2.8s0.5-1,1.5-2.7c0.5-0.8,1-1.9,1.6-3.1c0.6-1.2,1.2-2.6,2-4.1       c0.6-1.5,1.4-3.2,2.1-5c0.3-0.9,0.7-1.8,1-2.8c0.3-1,0.7-1.9,1-3c0.6-2,1.2-4.1,1.7-6.3c0.3-1.1,0.5-2.2,0.7-3.3       c0.2-1.1,0.4-2.2,0.6-3.3c0.4-2.2,0.7-4.5,0.9-6.7c0.2-2.2,0.4-4.4,0.4-6.5c0.1-2.1,0-4.2,0-6.1c-0.1-2-0.2-3.8-0.3-5.5       c-0.2-2.3-0.5-4.3-0.8-5.9l-3.4-2.4L265.5,179.9z" id="XMLID_1631_"/></g><g id="XMLID_1627_"><path class="st2" d="M164.1,270.6l1.5-12.4c0-0.1,0-0.2-0.1-0.2l-11.4-5.3c-0.2-0.1-0.2-0.5,0.1-0.5l12.3-2.4       c0.1,0,0.2-0.1,0.2-0.2l1.5-12.4c0-0.3,0.4-0.3,0.5-0.1l6.1,10.9c0,0.1,0.1,0.1,0.2,0.1l12.3-2.4c0.3-0.1,0.4,0.3,0.3,0.5       l-8.5,9.2c-0.1,0.1-0.1,0.2,0,0.3l6.1,10.9c0.1,0.2-0.1,0.5-0.4,0.4l-11.4-5.3c-0.1,0-0.2,0-0.3,0.1l-8.5,9.2       C164.4,271,164.1,270.9,164.1,270.6z" id="XMLID_1629_"/><path class="st2" d="M181.7,254.3c0,0,0.1,0,0.1,0.1c1.7,0.7,4.3,1.6,7.5,2.5c1.6,0.5,3.3,0.9,5.1,1.3       c1.8,0.4,3.8,0.8,5.8,1.1c2,0.3,4.2,0.6,6.3,0.8c2.2,0.2,4.4,0.3,6.6,0.3c1.1,0,2.2,0,3.3,0c1.1,0,2.2-0.1,3.3-0.1       c2.2-0.1,4.3-0.3,6.4-0.6c1-0.1,2-0.3,3-0.4c1-0.1,2-0.3,2.9-0.5c1.9-0.3,3.6-0.7,5.3-1.1c1.6-0.4,3.1-0.8,4.4-1.2       c1.3-0.4,2.4-0.7,3.4-1c1.8-0.6,2.9-1,2.9-1s-1,0.4-2.8,1.2c-0.9,0.4-2,0.8-3.3,1.3c-1.3,0.5-2.8,0.9-4.3,1.5       c-1.6,0.5-3.4,1-5.2,1.5c-0.9,0.2-1.9,0.5-2.9,0.7c-1,0.2-2,0.4-3,0.6c-2.1,0.4-4.2,0.7-6.4,1c-1.1,0.1-2.2,0.3-3.3,0.3       c-1.1,0.1-2.2,0.2-3.4,0.2c-2.3,0.1-4.5,0.1-6.8,0.1c-2.2-0.1-4.4-0.2-6.5-0.4c-2.1-0.2-4.2-0.4-6.1-0.7       c-1.9-0.3-3.8-0.6-5.4-1c-2.2-0.5-4.2-1-5.8-1.5l-2-3.6L181.7,254.3z" id="XMLID_1628_"/></g><g id="XMLID_1624_"><path class="st2" d="M353.3,242.4l-1.5,12.4c0,0.1,0,0.2,0.1,0.2l11.4,5.3c0.2,0.1,0.2,0.5-0.1,0.5l-12.3,2.4       c-0.1,0-0.2,0.1-0.2,0.2l-1.5,12.4c0,0.3-0.4,0.3-0.5,0.1l-6.1-10.9c0-0.1-0.1-0.1-0.2-0.1l-12.3,2.4c-0.3,0.1-0.4-0.3-0.3-0.5       l8.5-9.2c0.1-0.1,0.1-0.2,0-0.3l-6.1-10.9c-0.1-0.2,0.1-0.5,0.4-0.4l11.4,5.3c0.1,0,0.2,0,0.3-0.1l8.5-9.2       C353,242,353.3,242.2,353.3,242.4z" id="XMLID_1626_"/><path class="st2" d="M335.7,258.7c0,0-0.1,0-0.1-0.1c-1.7-0.7-4.3-1.6-7.5-2.5c-1.6-0.5-3.3-0.9-5.1-1.3       c-1.8-0.4-3.8-0.8-5.8-1.1c-2-0.3-4.2-0.6-6.3-0.8c-2.2-0.2-4.4-0.3-6.6-0.3c-1.1,0-2.2,0-3.3,0c-1.1,0-2.2,0.1-3.3,0.1       c-2.2,0.1-4.3,0.3-6.4,0.6c-1,0.1-2,0.3-3,0.4c-1,0.1-2,0.3-2.9,0.5c-1.9,0.3-3.6,0.7-5.3,1.1c-1.6,0.4-3.1,0.8-4.4,1.2       c-1.3,0.4-2.4,0.7-3.4,1c-1.8,0.6-2.9,1-2.9,1s1-0.4,2.8-1.2c0.9-0.4,2-0.8,3.3-1.3c1.3-0.5,2.8-0.9,4.3-1.5       c1.6-0.5,3.4-1,5.2-1.5c0.9-0.2,1.9-0.5,2.9-0.7c1-0.2,2-0.4,3-0.6c2.1-0.4,4.2-0.7,6.4-1c1.1-0.1,2.2-0.3,3.3-0.3       c1.1-0.1,2.2-0.2,3.4-0.2c2.3-0.1,4.5-0.1,6.8-0.1c2.2,0.1,4.4,0.2,6.5,0.4c2.1,0.2,4.2,0.4,6.1,0.7c1.9,0.3,3.8,0.6,5.4,1       c2.2,0.5,4.2,1,5.8,1.5l2,3.6L335.7,258.7z" id="XMLID_1625_"/></g><g id="XMLID_1621_"><path class="st2" d="M233.6,348.8l12.5,0c0.1,0,0.2,0.1,0.2,0.2l3.9,11.9c0.1,0.3,0.5,0.3,0.5,0l3.8-11.9       c0-0.1,0.1-0.2,0.2-0.2l12.5,0c0.3,0,0.4-0.3,0.2-0.5l-10.2-7.3c-0.1-0.1-0.1-0.2-0.1-0.3l3.8-11.9c0.1-0.3-0.2-0.5-0.4-0.3       l-10.1,7.4c-0.1,0.1-0.2,0.1-0.3,0l-10.2-7.3c-0.2-0.2-0.5,0.1-0.4,0.3l3.9,11.9c0,0.1,0,0.2-0.1,0.3l-10.1,7.4       C233.2,348.5,233.3,348.8,233.6,348.8z" id="XMLID_1623_"/><path class="st2" d="M251.9,333.2c0,0,0-0.1,0-0.1c-0.5-1.8-1.1-4.5-1.6-7.7c-0.3-1.6-0.5-3.4-0.7-5.3       c-0.2-1.9-0.3-3.9-0.4-5.9c-0.1-2.1-0.1-4.2,0-6.4c0.1-2.2,0.2-4.4,0.5-6.6c0.1-1.1,0.2-2.2,0.4-3.3c0.1-1.1,0.3-2.2,0.5-3.2       c0.4-2.1,0.8-4.2,1.3-6.3c0.2-1,0.5-2,0.8-3c0.2-1,0.5-1.9,0.8-2.8c0.5-1.8,1.2-3.5,1.7-5.1c0.6-1.5,1.1-3,1.7-4.2       c0.6-1.2,1-2.3,1.4-3.2c0.8-1.8,1.3-2.8,1.3-2.8s-0.5,1-1.5,2.7c-0.5,0.8-1,1.9-1.6,3.1c-0.6,1.2-1.2,2.6-2,4.1       c-0.6,1.5-1.4,3.2-2.1,5c-0.3,0.9-0.7,1.8-1,2.8c-0.3,1-0.7,1.9-1,3c-0.6,2-1.2,4.1-1.7,6.3c-0.3,1.1-0.5,2.2-0.7,3.3       c-0.2,1.1-0.4,2.2-0.6,3.3c-0.4,2.2-0.7,4.5-0.9,6.7c-0.2,2.2-0.4,4.4-0.4,6.5c-0.1,2.1,0,4.2,0,6.1c0.1,2,0.2,3.8,0.3,5.5       c0.2,2.3,0.5,4.3,0.8,5.9l3.4,2.4L251.9,333.2z" id="XMLID_1622_"/></g></g></g><g id="XMLID_1616_"><path class="st2" d="M324.2,394.5l-17.7,3.1c-0.1,0-0.2,0.1-0.3,0.3l-2.5,17.8c-0.1,0.4-0.6,0.5-0.8,0.1     l-8.4-15.9c-0.1-0.1-0.2-0.2-0.3-0.2l-17.7,3.1c-0.4,0.1-0.6-0.4-0.4-0.7l12.5-12.9c0.1-0.1,0.1-0.3,0.1-0.4l-8.4-15.9     c-0.2-0.3,0.2-0.7,0.5-0.6l16.1,7.9c0.1,0.1,0.3,0,0.4-0.1l12.5-12.9c0.3-0.3,0.7,0,0.7,0.3l-2.5,17.8c0,0.1,0.1,0.3,0.2,0.3     l16.1,7.9C324.7,393.9,324.6,394.4,324.2,394.5z" id="XMLID_1618_"/><path class="st2" d="M294.6,377.1c0-0.1,0-0.1,0-0.2c0.2-2.7,0.4-6.6,0.4-11.3c0-2.3-0.2-4.9-0.4-7.6     c-0.2-2.7-0.5-5.5-0.9-8.4c-0.4-2.9-1-5.9-1.6-9c-0.7-3-1.4-6.1-2.3-9.1c-0.4-1.5-0.9-3-1.4-4.5c-0.5-1.5-1-3-1.5-4.5     c-1.1-2.9-2.2-5.8-3.4-8.5c-0.6-1.4-1.2-2.7-1.8-4c-0.6-1.3-1.2-2.6-1.9-3.8c-1.2-2.5-2.5-4.7-3.7-6.8c-1.3-2-2.3-3.9-3.4-5.5     c-1.1-1.6-2-3.1-2.8-4.2c-1.6-2.3-2.6-3.6-2.6-3.6s1,1.2,2.8,3.4c0.9,1.1,1.9,2.5,3.1,4c1.2,1.5,2.4,3.4,3.8,5.3     c1.3,2,2.8,4.2,4.2,6.6c0.7,1.2,1.4,2.4,2.1,3.7c0.7,1.3,1.4,2.6,2.1,3.9c1.4,2.7,2.7,5.5,4,8.4c0.6,1.5,1.3,2.9,1.8,4.4     c0.6,1.5,1.2,3,1.7,4.5c1.1,3,2.1,6.1,2.9,9.2c0.8,3.1,1.6,6.1,2.2,9.1c0.6,3,1.1,5.9,1.5,8.7c0.4,2.8,0.7,5.4,0.9,7.9     c0.3,3.2,0.4,6.1,0.4,8.6l-4.1,4.3L294.6,377.1z" id="XMLID_1617_"/></g><g id="XMLID_1613_"><path class="st2" d="M207.5,401.7l-15.4-9.2c-0.1-0.1-0.3-0.1-0.4,0l-13.5,11.8c-0.3,0.3-0.7,0-0.7-0.4l4-17.5     c0-0.1,0-0.3-0.1-0.3l-15.4-9.2c-0.3-0.2-0.2-0.7,0.2-0.7l17.9-1.6c0.1,0,0.3-0.1,0.3-0.2l4-17.5c0.1-0.4,0.6-0.4,0.8-0.1l7,16.5     c0.1,0.1,0.2,0.2,0.3,0.2l17.9-1.6c0.4,0,0.6,0.4,0.3,0.7l-13.5,11.8c-0.1,0.1-0.1,0.2-0.1,0.4l7,16.5     C208.3,401.5,207.9,401.9,207.5,401.7z" id="XMLID_1615_"/><path class="st2" d="M196.5,369.1c0,0,0.1-0.1,0.1-0.1c1.9-1.9,4.6-4.7,7.7-8.3c1.5-1.8,3.1-3.8,4.7-6     c1.6-2.2,3.2-4.5,4.8-7c1.6-2.5,3.2-5.1,4.7-7.8c1.5-2.7,3-5.5,4.3-8.4c0.7-1.4,1.3-2.9,1.9-4.3c0.6-1.4,1.2-2.9,1.8-4.4     c1.1-2.9,2.1-5.8,3-8.7c0.5-1.4,0.8-2.8,1.2-4.2c0.4-1.4,0.7-2.7,1.1-4.1c0.7-2.6,1.1-5.2,1.6-7.5c0.4-2.4,0.8-4.5,1-6.4     c0.2-1.9,0.5-3.6,0.6-5c0.3-2.8,0.4-4.4,0.4-4.4s0,1.6-0.1,4.4c0,1.4-0.2,3.1-0.3,5c-0.1,2-0.4,4.1-0.6,6.5     c-0.3,2.4-0.6,5-1.2,7.7c-0.2,1.4-0.5,2.8-0.8,4.2c-0.3,1.4-0.6,2.9-1,4.3c-0.7,2.9-1.5,6-2.5,9c-0.5,1.5-1,3-1.5,4.6     c-0.5,1.5-1.1,3-1.7,4.5c-1.2,3-2.5,6-3.8,8.9c-1.4,2.9-2.8,5.7-4.3,8.4c-1.5,2.7-3,5.2-4.5,7.6c-1.5,2.3-3,4.5-4.5,6.5     c-1.9,2.6-3.7,4.9-5.3,6.7l-5.9,0.5L196.5,369.1z" id="XMLID_1614_"/></g><g id="XMLID_1610_"><path class="st2" d="M116,314.1l-1.7-17.9c0-0.1-0.1-0.3-0.3-0.3l-17.5-3.9c-0.4-0.1-0.4-0.6-0.1-0.8l16.5-7.2     c0.1-0.1,0.2-0.2,0.2-0.3l-1.7-17.9c0-0.4,0.4-0.6,0.7-0.3l11.9,13.4c0.1,0.1,0.2,0.1,0.4,0.1l16.5-7.2c0.4-0.2,0.7,0.2,0.5,0.6     l-9.1,15.5c-0.1,0.1-0.1,0.3,0,0.4l11.9,13.4c0.3,0.3,0,0.7-0.4,0.7l-17.5-3.9c-0.1,0-0.3,0-0.3,0.2l-9.1,15.5     C116.5,314.6,116,314.5,116,314.1z" id="XMLID_1612_"/><path class="st2" d="M135.6,285.9c0.1,0,0.1,0,0.2,0c2.7,0.4,6.5,0.9,11.2,1.2c2.3,0.2,4.9,0.2,7.6,0.2     c2.7,0,5.5-0.1,8.5-0.3c2.9-0.2,6-0.5,9.1-0.9c3.1-0.4,6.2-0.9,9.3-1.6c1.6-0.3,3.1-0.7,4.6-1c1.5-0.3,3.1-0.8,4.6-1.2     c3-0.8,5.9-1.8,8.7-2.7c1.4-0.5,2.8-1,4.1-1.5c1.3-0.5,2.6-1,3.9-1.6c2.5-1,4.9-2.2,7-3.2c2.1-1.1,4.1-2,5.8-3     c1.7-1,3.2-1.7,4.4-2.5c2.4-1.5,3.8-2.3,3.8-2.3s-1.3,0.9-3.6,2.5c-1.1,0.8-2.6,1.7-4.2,2.8c-1.6,1.1-3.6,2.1-5.6,3.4     c-2.1,1.1-4.4,2.5-6.9,3.7c-1.2,0.6-2.5,1.3-3.8,1.8c-1.3,0.6-2.7,1.2-4.1,1.8c-2.8,1.2-5.7,2.3-8.7,3.4c-1.5,0.5-3,1-4.6,1.5     c-1.5,0.5-3.1,0.9-4.7,1.4c-3.1,0.9-6.3,1.6-9.4,2.2c-3.1,0.6-6.2,1.1-9.3,1.5c-3,0.4-6,0.7-8.8,0.9c-2.8,0.2-5.4,0.3-7.9,0.3     c-3.3,0-6.1-0.1-8.6-0.2l-4-4.5L135.6,285.9z" id="XMLID_1611_"/></g><g id="XMLID_1607_"><path class="st2" d="M114.2,206.5l10.6-14.5c0.1-0.1,0.1-0.3,0-0.4l-10.5-14.5c-0.2-0.3,0.1-0.7,0.5-0.6     l17.1,5.6c0.1,0,0.3,0,0.4-0.1l10.6-14.5c0.2-0.3,0.7-0.2,0.7,0.2l0,18c0,0.1,0.1,0.3,0.2,0.3l17.1,5.6c0.4,0.1,0.4,0.6,0,0.8     l-17.1,5.5c-0.1,0-0.2,0.2-0.2,0.3l0,18c0,0.4-0.5,0.6-0.7,0.2l-10.5-14.5c-0.1-0.1-0.2-0.2-0.4-0.1l-17.1,5.5     C114.3,207.2,114,206.8,114.2,206.5z" id="XMLID_1609_"/><path class="st2" d="M147.6,198.4c0,0.1,0.1,0.1,0.1,0.2c1.7,2.1,4.3,5,7.6,8.4c1.7,1.7,3.5,3.4,5.5,5.2     c2,1.8,4.2,3.6,6.5,5.4c2.3,1.8,4.8,3.6,7.4,5.4c2.6,1.7,5.2,3.4,8,5c1.4,0.8,2.7,1.6,4.1,2.3c1.4,0.8,2.8,1.4,4.2,2.1     c2.8,1.4,5.6,2.6,8.4,3.8c1.4,0.6,2.7,1.1,4.1,1.6c1.3,0.5,2.7,1,4,1.4c2.6,0.9,5.1,1.6,7.4,2.3c2.3,0.6,4.4,1.2,6.3,1.6     c1.9,0.4,3.6,0.8,4.9,1.1c2.8,0.5,4.3,0.8,4.3,0.8s-1.6-0.2-4.4-0.5c-1.4-0.1-3.1-0.5-5-0.7c-1.9-0.3-4.1-0.8-6.5-1.2     c-2.3-0.5-4.9-1.1-7.6-1.8c-1.3-0.4-2.7-0.7-4.1-1.2c-1.4-0.4-2.8-0.8-4.2-1.3c-2.9-1-5.8-2.1-8.7-3.3c-1.5-0.6-3-1.2-4.4-1.9     c-1.5-0.7-2.9-1.3-4.4-2.1c-2.9-1.4-5.7-3-8.5-4.6c-2.7-1.6-5.4-3.3-7.9-5c-2.5-1.7-4.9-3.5-7.1-5.2c-2.2-1.7-4.3-3.4-6.1-5     c-2.5-2.1-4.5-4.1-6.2-5.9l0-6L147.6,198.4z" id="XMLID_1608_"/></g><g id="XMLID_1604_"><path class="st2" d="M208.7,114.2l17.9-0.5c0.1,0,0.3-0.1,0.3-0.2l5.1-17.2c0.1-0.4,0.6-0.4,0.8,0l6,16.9     c0,0.1,0.2,0.2,0.3,0.2l17.9-0.5c0.4,0,0.6,0.5,0.3,0.7l-14.2,11c-0.1,0.1-0.2,0.2-0.1,0.4l6,16.9c0.1,0.4-0.3,0.7-0.6,0.5     l-14.8-10.1c-0.1-0.1-0.3-0.1-0.4,0l-14.2,11c-0.3,0.2-0.7-0.1-0.6-0.4l5.1-17.2c0-0.1,0-0.3-0.1-0.4L208.5,115     C208.2,114.8,208.3,114.3,208.7,114.2z" id="XMLID_1606_"/><path class="st2" d="M235.5,135.8c0,0.1,0,0.1,0,0.2c-0.6,2.6-1.4,6.4-2,11.1c-0.3,2.3-0.5,4.9-0.7,7.6     c-0.2,2.7-0.3,5.5-0.3,8.5c0,3,0.1,6,0.3,9.1c0.2,3.1,0.5,6.2,0.9,9.4c0.2,1.6,0.4,3.1,0.7,4.7c0.2,1.6,0.6,3.1,0.9,4.6     c0.6,3.1,1.3,6,2.1,8.9c0.4,1.4,0.8,2.8,1.2,4.2c0.4,1.4,0.9,2.7,1.3,4c0.8,2.6,1.8,5,2.7,7.2c1,2.2,1.7,4.2,2.6,6     c0.8,1.8,1.5,3.3,2.2,4.5c1.3,2.5,2,3.9,2,3.9s-0.8-1.4-2.3-3.8c-0.7-1.2-1.5-2.7-2.5-4.4c-1-1.7-1.9-3.7-3-5.8     c-1-2.2-2.1-4.5-3.2-7.1c-0.5-1.3-1.1-2.6-1.6-4c-0.5-1.4-1.1-2.7-1.5-4.2c-1-2.9-1.9-5.8-2.8-8.9c-0.4-1.5-0.8-3.1-1.2-4.7     c-0.4-1.6-0.7-3.1-1-4.7c-0.7-3.2-1.1-6.4-1.6-9.5c-0.4-3.2-0.7-6.3-0.9-9.3c-0.2-3-0.3-6-0.3-8.8c0-2.8,0.1-5.5,0.3-7.9     c0.2-3.2,0.5-6.1,0.8-8.5l4.7-3.6L235.5,135.8z" id="XMLID_1605_"/></g><g id="XMLID_1601_"><path class="st2" d="M325.2,123.7l12.9,12.5c0.1,0.1,0.3,0.1,0.4,0.1l15.9-8.4c0.3-0.2,0.7,0.2,0.6,0.5     l-7.9,16.1c-0.1,0.1,0,0.3,0.1,0.4l12.9,12.5c0.3,0.3,0,0.7-0.3,0.7l-17.8-2.5c-0.1,0-0.3,0.1-0.3,0.2l-7.9,16.1     c-0.2,0.4-0.7,0.3-0.8-0.1l-3.1-17.7c0-0.1-0.1-0.2-0.3-0.3l-17.8-2.5c-0.4-0.1-0.5-0.6-0.1-0.8l15.9-8.4     c0.1-0.1,0.2-0.2,0.2-0.3l-3.1-17.7C324.5,123.6,324.9,123.4,325.2,123.7z" id="XMLID_1603_"/><path class="st2" d="M328.5,157.9c-0.1,0-0.1,0.1-0.2,0.1c-2.3,1.4-5.6,3.5-9.3,6.3c-1.9,1.4-3.9,3-5.9,4.7     c-2,1.8-4.2,3.6-6.3,5.7c-2.1,2-4.2,4.3-6.3,6.5c-2.1,2.3-4.1,4.7-6.1,7.2c-1,1.2-1.9,2.5-2.9,3.8c-1,1.3-1.8,2.6-2.7,3.8     c-1.8,2.6-3.4,5.2-4.9,7.7c-0.8,1.3-1.5,2.6-2.2,3.8c-0.7,1.2-1.3,2.5-2,3.7c-1.3,2.4-2.3,4.8-3.3,7c-0.9,2.2-1.8,4.2-2.5,6     c-0.7,1.8-1.3,3.4-1.7,4.7c-0.9,2.7-1.4,4.2-1.4,4.2s0.4-1.5,1.1-4.3c0.3-1.4,0.9-3,1.4-4.9c0.5-1.9,1.3-3.9,2.1-6.2     c0.9-2.2,1.8-4.7,2.9-7.2c0.5-1.3,1.1-2.6,1.7-3.9c0.6-1.3,1.2-2.7,1.9-4c1.4-2.7,2.8-5.5,4.5-8.2c0.8-1.4,1.6-2.8,2.5-4.1     c0.9-1.4,1.7-2.7,2.7-4c1.8-2.7,3.8-5.3,5.7-7.8c2-2.5,4-4.9,6.1-7.2c2-2.3,4.1-4.4,6.1-6.3c2-1.9,4-3.7,5.8-5.3     c2.5-2.1,4.7-3.9,6.7-5.4l5.9,0.8L328.5,157.9z" id="XMLID_1602_"/></g><g id="XMLID_1598_"><path class="st2" d="M397.2,206.2l0.8,17.9c0,0.1,0.1,0.3,0.2,0.3l17.3,4.8c0.4,0.1,0.4,0.6,0,0.8l-16.8,6.3     c-0.1,0-0.2,0.2-0.2,0.3l0.8,17.9c0,0.4-0.5,0.6-0.7,0.3l-11.2-14c-0.1-0.1-0.2-0.1-0.4-0.1l-16.8,6.3c-0.4,0.1-0.7-0.3-0.5-0.6     l9.9-15c0.1-0.1,0.1-0.3,0-0.4l-11.2-14c-0.2-0.3,0-0.7,0.4-0.6l17.3,4.8c0.1,0,0.3,0,0.4-0.1l9.9-15     C396.7,205.7,397.2,205.8,397.2,206.2z" id="XMLID_1600_"/><path class="st2" d="M376.1,233.4c-0.1,0-0.1,0-0.2,0c-2.6-0.6-6.5-1.3-11.1-1.8c-2.3-0.3-4.9-0.5-7.6-0.6     c-2.7-0.1-5.5-0.2-8.5-0.1c-3,0-6,0.2-9.1,0.4c-3.1,0.3-6.2,0.6-9.4,1.1c-1.6,0.2-3.1,0.5-4.7,0.8c-1.6,0.3-3.1,0.6-4.6,0.9     c-3,0.7-6,1.4-8.9,2.3c-1.4,0.4-2.8,0.9-4.2,1.3c-1.4,0.4-2.7,0.9-4,1.4c-2.6,0.9-5,1.9-7.2,2.8c-2.2,1-4.2,1.8-5.9,2.7     c-1.7,0.9-3.3,1.6-4.5,2.3c-2.5,1.3-3.9,2.1-3.9,2.1s1.4-0.8,3.7-2.3c1.2-0.8,2.7-1.6,4.4-2.6c1.7-1,3.7-2,5.8-3.1     c2.2-1,4.5-2.2,7.1-3.3c1.3-0.6,2.6-1.1,3.9-1.6c1.4-0.5,2.7-1.1,4.2-1.6c2.8-1,5.8-2,8.9-2.9c1.5-0.4,3.1-0.9,4.6-1.3     c1.6-0.4,3.1-0.8,4.7-1.1c3.2-0.7,6.4-1.3,9.5-1.7c3.2-0.4,6.3-0.8,9.3-1c3-0.3,6-0.4,8.8-0.4c2.8,0,5.5,0,7.9,0.1     c3.3,0.1,6.1,0.4,8.6,0.7l3.7,4.7L376.1,233.4z" id="XMLID_1599_"/></g><g id="XMLID_243_"><path class="st2" d="M401.2,291.7l-9.2,15.4c-0.1,0.1-0.1,0.3,0,0.4l11.8,13.5c0.3,0.3,0,0.7-0.4,0.7l-17.5-4     c-0.1,0-0.3,0-0.3,0.1l-9.2,15.4c-0.2,0.3-0.7,0.2-0.7-0.2l-1.6-17.9c0-0.1-0.1-0.3-0.2-0.3l-17.5-4c-0.4-0.1-0.4-0.6-0.1-0.8     l16.5-7.1c0.1-0.1,0.2-0.2,0.2-0.3l-1.6-17.9c0-0.4,0.4-0.6,0.7-0.3l11.8,13.5c0.1,0.1,0.2,0.1,0.4,0.1l16.5-7.1     C401.1,290.9,401.4,291.3,401.2,291.7z" id="XMLID_1597_"/><path class="st2" d="M368.7,302.8c0,0-0.1-0.1-0.1-0.1c-1.9-1.9-4.7-4.6-8.3-7.6c-1.8-1.5-3.8-3.1-6-4.7     c-2.2-1.6-4.5-3.2-7-4.8c-2.5-1.6-5.1-3.1-7.8-4.6c-2.7-1.5-5.5-2.9-8.4-4.2c-1.4-0.7-2.9-1.3-4.3-1.9c-1.4-0.6-2.9-1.2-4.4-1.7     c-2.9-1.1-5.8-2.1-8.7-3c-1.4-0.5-2.8-0.8-4.2-1.2c-1.4-0.4-2.7-0.7-4.1-1c-2.7-0.7-5.2-1.1-7.5-1.6c-2.4-0.4-4.5-0.8-6.5-1     c-1.9-0.2-3.6-0.5-5-0.6c-2.8-0.2-4.4-0.4-4.4-0.4s1.6,0,4.4,0.1c1.4,0,3.1,0.2,5,0.3c2,0.1,4.1,0.4,6.5,0.6     c2.4,0.3,5,0.6,7.7,1.1c1.4,0.2,2.8,0.5,4.2,0.8c1.4,0.3,2.9,0.6,4.3,1c2.9,0.7,6,1.5,9,2.4c1.5,0.5,3.1,0.9,4.6,1.5     c1.5,0.5,3,1.1,4.6,1.7c3,1.1,6,2.4,8.9,3.8c2.9,1.4,5.7,2.8,8.4,4.3c2.7,1.5,5.2,3,7.6,4.5c2.4,1.5,4.6,3,6.5,4.5     c2.6,1.9,4.9,3.7,6.8,5.3l0.5,5.9L368.7,302.8z" id="XMLID_1596_"/></g></g></g></svg>