<?xml version="1.0" encoding="utf-8"?>
<!-- Generator: Adobe Illustrator 16.0.0, SVG Export Plug-In . SVG Version: 6.00 Build 0)  -->
<!DOCTYPE svg PUBLIC "-//W3C//DTD SVG 1.1//EN" "http://www.w3.org/Graphics/SVG/1.1/DTD/svg11.dtd">
<svg version="1.1" id="Layer_1" xmlns="http://www.w3.org/2000/svg" xmlns:xlink="http://www.w3.org/1999/xlink" x="0px" y="0px"
	 width="600px" height="500px" viewBox="0 0 600 500" enable-background="new 0 0 600 500" xml:space="preserve">
<g id="Layer_2">
</g>
<g>
	<g>
		<path fill="#FFFFFF" d="M40.331,429.723c-4.264,0-7.584,1.745-9.973,5.233c-2.387,3.491-3.582,8.304-3.582,14.437
			c0,12.75,4.85,19.125,14.551,19.125c2.929,0,5.773-0.408,8.519-1.227c2.751-0.812,5.515-1.795,8.297-2.942v15.14
			c-5.531,2.444-11.784,3.67-18.764,3.67c-10,0-17.669-2.9-23-8.702c-5.334-5.802-7.999-14.188-7.999-25.152
			c0-6.858,1.291-12.887,3.872-18.084c2.583-5.196,6.302-9.19,11.152-11.981c4.849-2.8,10.554-4.201,17.107-4.201
			c7.16,0,14.005,1.561,20.53,4.673l-5.48,14.094c-2.448-1.146-4.898-2.114-7.342-2.898C45.768,430.12,43.14,429.723,40.331,429.723
			z"/>
		<path fill="#FFFFFF" d="M134.919,449.033c0,11.147-2.736,19.622-8.206,25.423c-5.471,5.802-13.477,8.703-24.021,8.703
			c-10.395,0-18.361-2.916-23.908-8.745c-5.544-5.835-8.316-14.322-8.316-25.471c0-11.032,2.756-19.453,8.271-25.27
			c5.513-5.816,13.529-8.725,24.045-8.725c10.545,0,18.538,2.885,23.976,8.656C132.195,429.376,134.919,437.854,134.919,449.033z
			 M89.323,449.033c0,12.811,4.455,19.213,13.368,19.213c4.534,0,7.895-1.555,10.084-4.666c2.19-3.114,3.287-7.962,3.287-14.547
			c0-6.618-1.111-11.506-3.333-14.666c-2.22-3.156-5.539-4.735-9.947-4.735C93.807,429.631,89.323,436.098,89.323,449.033z"/>
		<path fill="#FFFFFF" d="M148.736,482.25v-66.26h17.902v51.803h25.519v14.457H148.736z"/>
		<path fill="#FFFFFF" d="M260.863,447.713c0,11.061-3.043,19.578-9.133,25.566c-6.089,5.979-14.646,8.97-25.675,8.97h-21.437
			v-66.261h22.933c10.636,0,18.846,2.721,24.635,8.159C257.97,429.587,260.863,437.445,260.863,447.713z M242.281,448.354
			c0-6.074-1.199-10.576-3.602-13.509c-2.405-2.93-6.053-4.395-10.949-4.395h-5.209v37.116h3.988c5.438,0,9.426-1.576,11.967-4.737
			C241.01,459.674,242.281,454.847,242.281,448.354z"/>
		<path fill="#FFFFFF" d="M292.224,482.251l-17.629-0.001v-66.26h39.159v14.365h-21.53v12.646h19.854v14.366h-19.854V482.251z"/>
		<path fill="#FFFFFF" d="M344.389,458.142v24.111h-17.902v-66.264h21.709c18.01,0,27.014,6.528,27.014,19.581
			c0,7.675-3.748,13.611-11.238,17.812l19.305,28.871h-20.303l-14.051-24.11L344.389,458.142L344.389,458.142z M344.389,444.681
			h3.354c6.254,0,9.383-2.763,9.383-8.296c0-4.561-3.068-6.842-9.197-6.842h-3.539V444.681z"/>
		<path fill="#FFFFFF" d="M453.164,449.036c0,11.146-2.736,19.618-8.205,25.421c-5.469,5.801-13.479,8.703-24.023,8.703
			c-10.393,0-18.361-2.918-23.904-8.746c-5.547-5.836-8.318-14.324-8.318-25.472c0-11.032,2.756-19.452,8.271-25.268
			c5.514-5.819,13.529-8.727,24.043-8.727c10.545,0,18.535,2.886,23.979,8.657C450.442,429.376,453.164,437.854,453.164,449.036z
			 M407.567,449.036c0,12.809,4.455,19.212,13.369,19.212c4.535,0,7.895-1.557,10.084-4.667c2.193-3.114,3.287-7.963,3.287-14.545
			c0-6.621-1.109-11.507-3.332-14.668c-2.219-3.157-5.537-4.733-9.947-4.733C412.053,429.634,407.567,436.098,407.567,449.036z"/>
		<path fill="#FFFFFF" d="M530.071,482.255h-23.477l-24.203-46.685h-0.406c0.574,7.342,0.861,12.944,0.861,16.813v29.868h-15.863
			v-66.264h23.389l24.109,46.052h0.273c-0.422-6.679-0.635-12.041-0.635-16.091V415.99h15.951V482.255z"/>
		<path fill="#FFFFFF" d="M575.481,482.255h-17.898v-51.622h-16.178v-14.641h50.217v14.641h-16.139v51.622H575.481z"/>
	</g>
	<g>
		<path opacity="0.8" fill="#2A95C5" enable-background="new    " d="M401.602,165.88c-1.574-2.627-4.98-3.479-7.607-1.909
			L216.051,270.531c-2.629,1.574-3.481,4.982-1.911,7.608c1.574,2.627,4.979,3.482,7.611,1.909l177.943-106.561
			C402.321,171.915,403.176,168.508,401.602,165.88z"/>
		<path opacity="0.8" fill="#2A95C5" enable-background="new    " d="M385.858,210.451c-1.576-2.627-4.98-3.481-7.607-1.908
			L200.305,315.105c-2.627,1.571-3.484,4.979-1.909,7.606c1.574,2.627,4.98,3.479,7.606,1.905l177.947-106.559
			C386.574,216.484,387.432,213.076,385.858,210.451z"/>
		<path opacity="0.8" fill="#2A95C5" enable-background="new    " d="M183.2,191.098c-1.59,2.62-0.752,6.03,1.865,7.617
			l177.353,107.546c2.619,1.589,6.031,0.754,7.617-1.866c1.59-2.619,0.752-6.029-1.867-7.619l-177.35-107.544
			C188.197,187.644,184.789,188.48,183.2,191.098z"/>
		<path opacity="0.8" fill="#2A95C5" enable-background="new    " d="M229.964,184.194c-1.589,2.621-0.752,6.032,1.867,7.62
			L409.18,299.362c2.621,1.584,6.029,0.749,7.619-1.868c1.59-2.62,0.752-6.029-1.867-7.617L237.582,182.33
			C234.963,180.744,231.552,181.578,229.964,184.194z"/>
		<path opacity="0.8" fill="#2A95C5" enable-background="new    " d="M284.927,116.84c-3.066,0-5.549,2.483-5.549,5.545v207.411
			c0,3.061,2.482,5.547,5.549,5.547c3.058,0,5.545-2.486,5.545-5.547V122.385C290.472,119.324,287.985,116.84,284.927,116.84z"/>
		<path opacity="0.8" fill="#2A95C5" enable-background="new    " d="M315.074,153.249c-3.062,0-5.547,2.482-5.547,5.544v207.41
			c0,3.062,2.486,5.547,5.547,5.547c3.062,0,5.545-2.484,5.545-5.547v-207.41C320.621,155.731,318.137,153.249,315.074,153.249z"/>
	</g>
</g>
</svg>
