<?xml version="1.0" encoding="UTF-8"?>
<svg width="230px" height="44px" viewBox="0 0 230 44" version="1.1" xmlns="http://www.w3.org/2000/svg" xmlns:xlink="http://www.w3.org/1999/xlink">
    <!-- Generator: Sketch 46.2 (44496) - http://www.bohemiancoding.com/sketch -->
    <title>&amp;tradition_logo_black</title>
    <desc>Created with Sketch.</desc>
    <defs></defs>
    <g id="Page-1" stroke="none" stroke-width="1" fill="none" fill-rule="evenodd">
        <g id="&amp;tradition_logo_black" transform="translate(-1.000000, -1.000000)" fill-rule="nonzero" fill="#00EDFF">
            <g id="g10" transform="translate(116.166667, 22.706667) scale(-1, 1) rotate(-180.000000) translate(-116.166667, -22.706667) translate(0.666667, 0.706667)">
                <g id="g12" transform="translate(0.200000, 0.000000)">
                    <path d="M124.958397,22.6026661 C127.281197,22.6026661 129.163997,24.4869327 129.163997,26.809866 C129.163997,29.1343993 127.281197,31.0182659 124.958397,31.0182659 C122.632797,31.0182659 120.751064,29.1343993 120.751064,26.809866 C120.751064,24.4869327 122.632797,22.6026661 124.958397,22.6026661" id="path14"></path>
                    <path d="M219.411995,2.8151066 L219.411995,14.364533 C219.411995,16.5989329 218.997328,17.7994662 217.755995,18.9593329 C216.350661,20.3239995 214.279995,20.9869328 211.215995,20.9869328 C207.490661,20.9869328 205.378662,19.6625328 203.930662,16.7229329 L203.930662,20.5739995 L190.601329,20.5739995 L190.601329,19.8281328 L192.175995,19.8281328 C193.209329,19.8281328 193.705328,19.2906662 193.705328,18.2135995 L193.705328,2.98021326 C193.705328,1.90469329 193.209329,1.44791996 192.050662,1.44791996 L190.601329,1.44791996 L190.601329,0.704166649 L206.041328,0.704166649 L206.041328,1.44791996 L205.173328,1.44791996 C204.467995,1.44791996 203.930662,2.15207995 203.930662,3.02239992 L203.930662,12.831773 C203.930662,16.1431996 205.751995,19.2073329 207.697328,19.2073329 C208.690661,19.2073329 209.189328,18.3369329 209.189328,16.8489329 L209.189328,2.60781327 C209.189328,1.90469329 208.733328,1.44791996 207.905328,1.44791996 L207.158661,1.44791996 L207.158661,0.704166649 L222.021328,0.704166649 L222.021328,1.44791996 L220.818661,1.44791996 C219.951995,1.44791996 219.411995,1.98697328 219.411995,2.8151066" id="path16"></path>
                    <path d="M54.354132,20.9453328 C51.993732,20.9453328 50.3806654,19.7863995 49.2202654,17.3437329 L49.2202654,20.5322662 L31.5947992,20.5322662 L31.5947992,30.4671992 L30.9739992,30.4671992 C30.1458659,28.3557326 28.615066,24.3811994 23.9363994,21.8969328 C22.6125328,21.1521328 21.7843995,20.9046661 19.6739995,20.6145328 L19.6739995,18.6682662 L21.4125328,18.6682662 L21.4125328,5.21614654 C21.4125328,2.11041328 24.5994661,0 29.2349326,0 C33.8697325,0 35.5869324,2.10259995 36.2254658,4.31874656 L35.4926658,4.31874656 C35.0073325,2.73541326 34.1213325,1.82135995 33.0447992,1.82135995 C32.1338659,1.82135995 31.5947992,2.44114661 31.5947992,3.60155991 L31.5947992,19.7863995 L37.6302657,19.7863995 C38.6250657,19.7863995 39.0374657,19.2073329 39.0374657,17.6343996 L39.0374657,2.85677326 C39.0374657,1.82135995 38.5817324,1.44791996 37.4229324,1.44791996 L36.1390658,1.44791996 L36.1390658,0.704166649 L52.4087987,0.704166649 L52.4087987,1.44791996 L50.7114654,1.44791996 C49.7587988,1.44791996 49.3030654,2.11041328 49.3030654,3.35417325 L49.3030654,14.8603996 C49.3030654,16.8062662 51.4150654,20.0349328 53.278132,20.0349328 C53.6083987,20.0349328 53.8150653,19.8697328 53.8150653,19.5791995 C53.8150653,19.3723995 53.6911987,19.1650662 53.3603987,18.7526662 C52.4494654,17.7161329 52.034932,16.6822662 52.034932,15.5635996 C52.034932,13.6598663 53.6911987,11.9218797 55.4297319,11.9218797 C57.5833319,11.9218797 59.1963985,13.7838663 59.1963985,16.1859996 C59.1963985,18.8759995 57.0859986,20.9453328 54.354132,20.9453328" id="path18"></path>
                    <path d="M178.449329,21.3593328 C171.369329,21.5661328 165.077329,17.4270662 165.077329,10.8453064 C165.077329,4.59374655 170.625329,0.081770798 178.283996,0.081770798 C186.397329,0.081770798 191.777329,4.34635989 191.777329,10.7630264 C191.777329,17.0130662 186.603995,21.1119995 178.449329,21.3593328 M181.263995,3.60155991 C181.263995,1.69635996 180.394662,0.828125313 178.449329,0.828125313 C176.503996,0.828125313 175.591996,1.73802662 175.591996,3.68385324 L175.591996,18.0067995 C175.591996,19.7863995 176.503996,20.6562662 178.449329,20.6562662 C180.475995,20.6562662 181.263995,19.7863995 181.263995,17.6343996 L181.263995,3.60155991" id="path20"></path>
                    <path d="M86.7557312,4.31874656 C86.4745312,2.96978659 85.9505312,2.19374661 85.2505312,2.19374661 C84.4223979,2.19374661 83.9250646,3.14583992 83.9250646,4.63645322 L83.9250646,14.1978663 C83.9250646,18.4202662 82.3942646,21.3593328 72.9973315,21.3593328 C64.4291984,21.3593328 59.7521318,19.4557328 59.7521318,15.9359996 C59.7521318,14.0322663 61.7797318,12.583333 64.3879984,12.583333 C67.2849317,12.583333 69.3546649,14.1562663 69.3546649,16.3515996 C69.3546649,18.0067995 68.0713316,18.9182662 67.782265,19.0833329 C67.3677316,19.3723995 67.161465,19.5791995 67.161465,19.7863995 C67.161465,20.2421328 68.361465,20.5311995 70.4311982,20.5311995 C72.7078648,20.5311995 73.7426648,19.5374662 73.7426648,17.4687996 L73.7426648,13.080733 C70.1822649,11.3421864 68.8583983,10.9697864 64.5942651,10.5546931 C60.9515985,10.1838531 59.5863985,9.68593309 58.6745319,8.32030646 C58.1369319,7.49218648 57.8473319,6.58177317 57.8473319,5.54687986 C57.8473319,1.86197329 60.4958652,0.0833333313 65.8359984,0.0833333313 C71.2583982,0.0833333313 72.6250649,1.48958663 73.8254648,2.93906659 C74.2379981,0.372395991 75.5229314,0.0833333313 80.8625313,0.0833333313 C85.2521312,0.0833333313 86.9619978,1.09895864 87.4973311,4.31874656 L86.7557312,4.31874656 Z M73.7838648,6.12603985 C73.7838648,3.47655991 72.4187982,1.61458663 70.4718649,1.61458663 C68.361465,1.61458663 68.361465,3.9739599 68.361465,5.83697319 C68.361465,9.4791731 68.361465,9.85155975 72.0035982,11.4661464 C72.5838649,11.7135464 72.9145315,11.880213 73.7838648,12.2942664 L73.7838648,6.12603985 L73.7838648,6.12603985 Z" id="path22"></path>
                    <path d="M163.025329,2.52447994 L163.025329,20.5729328 L144.711996,20.5729328 L144.711996,30.4661326 L144.091996,30.4661326 C143.263996,28.3557326 141.73333,24.3811994 137.054663,21.8983995 C135.730663,21.1521328 134.902663,20.9046661 132.79173,20.6145328 L132.79173,18.6693329 L134.52933,18.6693329 L134.52933,5.21614654 C134.52933,2.11041328 137.715997,0 142.354663,0 C146.986663,0 148.70533,2.10417328 149.343996,4.31874656 L148.60933,4.31874656 C148.12533,2.73437326 147.239996,1.82030662 146.16133,1.82030662 C145.250663,1.82030662 144.711996,2.44270661 144.711996,3.60155991 L144.711996,19.8281328 L151.518663,19.8281328 C152.303996,19.8281328 152.799996,19.3723995 152.799996,18.7093329 L152.799996,3.43593325 C152.799996,2.11041328 152.303996,1.44895996 151.22933,1.44895996 L149.322663,1.44895996 L149.322663,0.703125316 L166.130663,0.703125316 L166.130663,1.44895996 L164.225329,1.44895996 C163.479996,1.44895996 163.025329,1.86197329 163.025329,2.52447994" id="path24"></path>
                    <path d="M132.013063,1.44895996 C131.268263,1.44895996 130.81253,1.86197329 130.81253,2.52447994 L130.81253,20.5729328 L117.151064,20.5729328 L117.151064,19.8281328 L119.304664,19.8281328 C120.091197,19.8281328 120.58853,19.3723995 120.58853,18.7093329 L120.58853,3.43593325 C120.58853,2.11041328 120.091197,1.44895996 119.013997,1.44895996 L115.74893,1.44895996 C114.71453,1.44895996 114.175464,1.94530662 114.175464,2.8151066 L114.175464,30.7978659 L99.9374642,30.7978659 L99.9374642,30.0530659 L102.378131,30.0530659 C103.454131,30.0530659 103.951597,29.5562659 103.951597,28.4791993 L103.951597,17.6343996 C102.752131,20.2421328 100.930264,21.4010661 98.0327975,21.4010661 C92.154131,21.4010661 87.8078645,16.9713329 87.8078645,11.0119731 C87.8078645,4.88541321 92.236931,0.372395991 98.2395975,0.372395991 C102.171864,0.372395991 103.206264,2.52447994 104.075997,4.30469323 L104.075997,0.703125316 L133.915997,0.703125316 L133.915997,1.44895996 L132.013063,1.44895996 Z M103.993197,6.95417316 C103.993197,4.75885321 102.130664,1.36562663 100.102664,1.36562663 C98.6947975,1.36562663 98.2811975,2.40103994 98.2811975,5.42187986 L98.2811975,17.9234662 C98.2811975,19.3723995 98.9010642,20.2005328 99.9786642,20.2005328 C102.213064,20.2005328 103.993197,17.3030662 103.993197,13.619733 L103.993197,6.95417316 L103.993197,6.95417316 Z" id="path26"></path>
                    <path d="M226.113328,23.9750661 C224.177328,23.9750661 222.594661,22.4046661 222.594661,20.4583995 C222.594661,18.5119995 224.177328,16.9411996 226.113328,16.9411996 C228.049328,16.9411996 229.621328,18.5119995 229.621328,20.4583995 C229.621328,22.4046661 228.049328,23.9750661 226.113328,23.9750661 M226.113328,17.3863996 C224.418661,17.3863996 223.039994,18.7551995 223.039994,20.4583995 C223.039994,22.1598661 224.418661,23.5297327 226.113328,23.5297327 C227.805328,23.5297327 229.174661,22.1598661 229.174661,20.4583995 C229.174661,18.7551995 227.805328,17.3863996 226.113328,17.3863996" id="path28"></path>
                    <path d="M227.573328,19.1494662 L226.905328,20.3879995 C227.470661,20.5494662 227.786661,20.9139995 227.786661,21.4202661 C227.786661,21.5921328 227.743994,21.7551995 227.653328,21.8969328 C227.390661,22.3630661 227.015994,22.5067994 226.022661,22.5067994 L224.238661,22.5067994 L224.238661,22.3333328 C224.602661,22.2926661 224.674661,22.1911994 224.674661,21.6745328 L224.674661,19.3333329 C224.674661,18.7343995 224.541328,18.6535995 224.155994,18.6535995 L224.155994,18.4921329 L226.254661,18.4921329 L226.254661,18.6535995 C225.738661,18.6745329 225.655994,18.7759995 225.655994,19.3333329 L225.655994,20.3150662 L225.890661,20.3150662 L226.905328,18.4921329 L228.089328,18.4921329 L228.089328,18.6535995 C227.886661,18.6937329 227.754661,18.8150662 227.573328,19.1494662 M225.890661,20.5494662 C225.839994,20.5494662 225.767994,20.5598662 225.655994,20.5687995 L225.655994,22.2822661 L225.839994,22.2822661 C226.426661,22.2822661 226.719994,21.9983995 226.719994,21.4515995 C226.719994,20.9035995 226.397328,20.5494662 225.890661,20.5494662" id="path30"></path>
                    <path d="M157.101329,22.6026661 C159.425329,22.6026661 161.307996,24.4869327 161.307996,26.809866 C161.307996,29.1343993 159.425329,31.0182659 157.101329,31.0182659 C154.777329,31.0182659 152.894663,29.1343993 152.894663,26.809866 C152.894663,24.4869327 154.777329,22.6026661 157.101329,22.6026661" id="path32"></path>
                    <path d="M3.38958658,34.8734658 C1.82603995,34.2603991 -0.0312506659,32.3229325 0.144791663,29.3062659 C0.14635417,29.2745326 0.149999996,29.2458659 0.15156253,29.2145326 C0.155729196,29.1614659 0.159375063,29.1093326 0.164583329,29.0583993 C0.604687985,24.735466 5.76614652,24.3125327 8.64530645,24.4182661 L8.64374645,24.4182661 C8.64374645,24.4182661 8.64635978,24.4182661 8.64895978,24.4182661 C8.76770645,24.4234661 8.87707978,24.4286661 8.98645311,24.4349327 C8.98645311,24.4349327 10.5343731,24.5530661 12.3447864,25.1171994 C12.4687464,25.027066 12.5968797,24.942666 12.7218797,24.8671994 C12.7249997,24.8671994 12.7275997,24.8671994 12.730213,24.868266 L12.7229197,24.8723994 C12.9421863,24.7515994 13.185933,24.6379994 13.460933,24.5322661 C13.4822663,24.5259994 13.4978663,24.5182661 13.519333,24.5103994 C14.379733,24.1911994 15.5270663,23.9713327 17.0890662,23.9713327 C17.3385329,23.9713327 17.5833329,23.9781327 17.8259996,23.9906661 C25.8207994,23.9906661 26.7275993,31.0573326 26.7275993,31.0573326 L26.287466,31.0573326 C25.3901327,27.7317326 23.8677327,27.027066 22.6125328,27.027066 C22.5754661,27.027066 22.5395994,27.0297327 22.5026661,27.032266 C22.3322661,27.042666 22.1655994,27.0687993 22.0062661,27.1057327 C20.9557328,27.3697326 20.0463995,28.2535993 19.4969328,28.9035993 C19.2421329,29.2302659 18.9917329,29.5702659 18.7421329,29.9087993 L18.4354662,30.3473326 C18.2677329,30.5885326 18.1083995,30.8202659 17.9530662,31.0469326 L17.6655996,31.4713325 C18.1473329,32.6207992 18.8931995,34.5921325 20.3103995,36.3109324 C20.3234662,36.3281324 20.3385328,36.3473324 20.3526662,36.3630658 C20.9806661,37.1145324 21.5259995,37.4245324 21.9431995,37.5338657 C21.9713328,37.5421324 21.9978661,37.5463991 22.0259994,37.5526657 C22.4645328,37.6442657 22.7473328,37.5166657 22.8130661,37.4827991 C22.8551994,37.4281324 22.8859994,37.3645324 22.8859994,37.2811991 C22.8859994,37.1286657 22.7942661,36.9765324 22.5499994,36.6718657 C21.8806661,35.9114658 21.5765328,35.1494658 21.5765328,34.3281325 C21.5765328,32.9297325 22.7942661,31.6510659 24.0713327,31.6510659 C25.6541327,31.6510659 26.8411993,33.0207992 26.8411993,34.7863991 C26.8411993,36.7630657 25.289066,38.284399 23.2811994,38.284399 C23.2811994,38.284399 19.8593328,38.8354657 17.1619996,32.2265325 C15.8969329,34.1406658 14.9806663,35.7135991 13.8447997,37.7953324 C15.7969329,38.372399 17.3073329,39.2526657 17.3073329,40.8734656 C17.3073329,42.6609323 15.7139996,43.7041322 12.9661463,43.7041322 C8.15677313,43.7041322 5.54583986,41.6150656 5.54583986,37.7953324 C5.54583986,37.3005324 5.60103986,36.8343991 5.76458652,35.8994658 C5.76458652,35.8994658 5.77395986,35.8499991 5.79426652,35.7614658 C5.79426652,35.7614658 4.95417321,35.4869324 3.38958658,34.8734658 M8.98645311,24.8291994 C8.65937312,24.8177327 8.41250646,24.8505327 8.14374646,24.9193327 C7.37135982,25.118266 6.75677316,25.928666 6.27239984,27.357866 C5.3072932,30.4453326 4.77395988,33.3343992 5.03437321,34.3463991 C5.1541732,34.8135991 5.42655986,35.1155991 5.90885319,35.2969325 C7.29270648,31.7639992 9.57551976,27.8161326 11.7130264,25.607866 C10.8437464,25.1343994 9.92499975,24.8291994 8.98645311,24.8291994 M13.3499997,38.8125324 C12.7723997,40.0218657 12.580733,40.6541323 12.580733,41.285999 C12.580733,42.3578656 13.3234397,43.0994656 14.367733,43.0994656 C15.6030663,43.0994656 16.6207996,42.1098656 16.6207996,40.9005323 C16.6207996,39.636399 15.7421329,38.8406657 13.6526663,38.206799 C13.5431997,38.4270657 13.5155997,38.482799 13.3499997,38.8125324" id="path34"></path>
                </g>
            </g>
        </g>
    </g>
</svg>