<?xml version="1.0" encoding="UTF-8"?>
<svg width="676px" height="165px" viewBox="0 0 676 165" version="1.1" xmlns="http://www.w3.org/2000/svg" xmlns:xlink="http://www.w3.org/1999/xlink">
    <!-- Generator: Sketch 46.2 (44496) - http://www.bohemiancoding.com/sketch -->
    <title>skarp</title>
    <desc>Created with Sketch.</desc>
    <defs></defs>
    <g id="Page-1" stroke="none" stroke-width="1" fill="none" fill-rule="evenodd">
        <path d="M638.999998,3.49999999 C678.000005,3.49999999 677.000005,24 674.500005,44 C673.622533,51.0197802 672.444004,56.9833404 671.000005,63 C665.000005,88 656.999998,97.5469971 613.999998,97.5469971 L595.000002,97.5469971 L584.000002,161 L532.5,161 L559.5,3.49999999 L638.999998,3.49999999 Z M606.5,30 L599.5,71 C600.5,70.5 601.5,70.5 602.5,70.5 C613.658,70.5 617.5,69 620,60 C620.977363,56.4814935 623.5,44 623.5,38 C623.5,33.5002029 621,30 614.5,30 L606.5,30 Z M394,161 L420.5,3.5 L500,3.5 C512.567,3.5 524.500007,5 531.500007,13 C538.500007,21 538.000007,31.5 536.000007,43 C533.157899,59.3421237 531.000007,67 525.000007,73.5 C519.000007,80 508.5,81.5 504,82 C509.5,82 519.5,86 522.500007,93.5279999 C524.735062,99.1364822 525.500007,104.5 523.000007,119 L517.5,153 C517,157 518,157.5 521,157.5 L520.5,161 L468.5,161 C465.538993,161 464.5,160 465,157 L472,116 C473,110 474.5,102 473.5,99 C472.5,96 470.5,94 465,94 L460,94 C459,94 458,94 457,93.5279999 L445.5,161 L394,161 Z M467.5,30 L460.5,71 C461.5,70.5 462.5,70.5 463.5,70.5 C474.658,70.5 478.5,69 481,60 C481.977363,56.4814935 484.5,44 484.5,38 C484.5,33.5002029 482,30 475.5,30 L467.5,30 Z M381.500006,3.49999999 L385.49999,161 L333.500006,161 L334.500006,139 L309.000006,139 L303.000006,161 L205.499998,161 L191.499998,90 L179.499998,161 L128,161 L154.5,3.49999999 L206.499998,3.49999999 L195.499998,67.9999991 L230.499998,3.49999999 L279.500006,3.49999999 L237.499998,74.4999991 L255.499998,145.999999 L307.500006,3.49999999 L381.500006,3.49999999 Z M317.5,108.992001 L335.5,108.992001 L338,37.5 L317.5,108.992001 Z M52.4999982,122 C51.0030691,130.5 49.9999982,137.5 58.9999982,137.5 C66.500002,137.5 69.9281912,135.002676 71.500002,124 C73.500002,110 74.000002,107 65.0030685,102 L30.0000001,82.0166092 C17.0000001,74.5 12.54,64.215 16.0030685,44 C18.114558,31.4977505 21.0816156,23.0939009 25.0000001,18 C34.9999982,5 49.4999982,4.30509434e-10 88.500002,-1.13686838e-13 C132.499982,-4.85944635e-10 139.499994,18.5 133.499994,50.5 L83.000002,50.5 L85.000002,39 C86.000002,32 86.0030679,26.9890003 79.0030685,27 C72.0030691,27.0109997 70.000002,29 68.0030685,39 C66.0061349,49 65.0030691,52.5 72.500002,56.5 L96.000002,69 C119.500003,81.5 129.500003,88 124.500003,119.5 C119.500003,151 106.000003,164.5 50.9999992,164.5 C29.4999992,164.5 19.1061457,160.882429 12.0030685,156 C-3.99999983,145 -2.98749826e-09,125 1.99999999,110.5 L54.4999982,110.5 L52.4999982,122 Z" id="skarp" fill="#00EDFF"></path>
    </g>
</svg>