<?xml version="1.0" encoding="utf-8"?>
<!-- Generator: Adobe Illustrator 15.1.0, SVG Export Plug-In . SVG Version: 6.00 Build 0)  -->
<!DOCTYPE svg PUBLIC "-//W3C//DTD SVG 1.1//EN" "http://www.w3.org/Graphics/SVG/1.1/DTD/svg11.dtd">
<svg version="1.1" id="Layer_1" xmlns="http://www.w3.org/2000/svg" xmlns:xlink="http://www.w3.org/1999/xlink" x="0px" y="0px"
	 width="100px" height="90.91px" viewBox="0 0 100 90.91" enable-background="new 0 0 100 90.91" xml:space="preserve">
<path fill="#fff" d="M81.819,71.145v-9.957c5.431-3.15,9.089-9.008,9.089-15.734c0-10.039-8.14-18.18-18.182-18.18
	c-3.638,0-7.007,1.091-9.849,2.934C60.081,18.123,49.298,9.09,36.363,9.09C21.3,9.09,9.092,21.303,9.092,36.366
	c0,8.067,3.524,15.295,9.092,20.285v11.174C7.326,61.532,0,49.818,0,36.366C0,16.282,16.282,0,36.363,0
	C50.01,0,61.887,7.528,68.105,18.648c1.51-0.257,3.039-0.466,4.621-0.466C87.79,18.182,100,30.395,100,45.454
	C100,57.326,92.4,67.394,81.819,71.145z"/>
<circle fill="#fff" cx="31.817" cy="59.092" r="4.546"/>
<path fill="#fff" d="M31.817,72.73c2.512,0,4.546,2.035,4.546,4.546s-2.034,4.542-4.546,4.542c-2.509,0-4.544-2.033-4.544-4.542
	C27.273,74.763,29.308,72.73,31.817,72.73z"/>
<circle fill="#fff" cx="50.001" cy="68.184" r="4.546"/>
<circle fill="#fff" cx="50.001" cy="86.364" r="4.546"/>
<circle fill="#fff" cx="68.18" cy="59.092" r="4.546"/>
<path fill="#fff" d="M68.18,72.73c2.511,0,4.546,2.035,4.546,4.546s-2.035,4.542-4.546,4.542c-2.51,0-4.543-2.033-4.543-4.542
	C63.637,74.763,65.674,72.73,68.18,72.73z"/>
</svg>
