<?xml version="1.0" encoding="utf-8"?>
<!-- Generator: Adobe Illustrator 17.0.0, SVG Export Plug-In . SVG Version: 6.00 Build 0)  -->
<!DOCTYPE svg PUBLIC "-//W3C//DTD SVG 1.1//EN" "http://www.w3.org/Graphics/SVG/1.1/DTD/svg11.dtd">
<svg version="1.1" id="Falcon_logo" xmlns="http://www.w3.org/2000/svg" xmlns:xlink="http://www.w3.org/1999/xlink" x="0px"
	 y="0px" width="434.178px" height="135.431px" viewBox="0 0 434.178 135.431" enable-background="new 0 0 434.178 135.431"
	 xml:space="preserve">
<path fill="#161418" d="M164.705,27.959c17.346,4.957,49.176,4.672,55.71,4.557c0.266,2.125,0.646,4.203,1.129,6.223
	c-3.567,0.354-36.194,3.458-52.055-0.034c0,0,10.076,14.779,30.561,16.12c17.555,1.151,24.98-1.637,26.751-2.46
	c6.841,12.266,18.155,20.293,30.97,20.293c0.041,0,0.081-0.004,0.122-0.004c0.637,0.012,1.28,0.003,1.934-0.029
	c0,0,0.443-0.043,1.098-0.143c1.953-0.302,5.809-1.12,5.619-2.879c-0.306-3.107-20.318-2.855-21.746-48.444
	c0,0-5.406-4.126-23.438-8.975c-15.899-4.277-41.04-10-82.095-12.182C139.265,0,145.31,22.416,164.705,27.959z"/>
<polygon fill="#161418" points="24.515,106.382 11.69,106.382 11.69,98.867 25.827,98.867 25.827,88.966 0,88.966 0,133.94 
	11.69,133.94 11.69,116.284 24.515,116.284 "/>
<path fill="#161418" d="M40.854,88.966L23.558,133.94h12.406l3.102-7.815H55.17l2.922,7.815h12.466L53.62,88.966H40.854z
	 M42.287,117.179l4.831-14.314h0.12l4.771,14.314H42.287z"/>
<polygon fill="#161418" points="85.526,88.966 73.836,88.966 73.836,133.94 99.544,133.94 99.544,124.038 85.526,124.038 "/>
<path fill="#161418" d="M106.724,95.05c-4.295,4.413-6.622,10.318-6.622,16.461c0,6.682,2.267,12.527,7.217,17
	c4.653,4.236,10.617,6.62,16.88,6.62c3.638,0,6.442-0.893,10.319-2.087v-14.016c-2.446,2.922-6.263,4.77-10.081,4.77
	c-7.277,0-12.168-5.129-12.168-12.228c0-6.979,4.831-12.465,11.99-12.465c3.996,0,7.873,1.728,10.259,4.95V90.041
	c-3.46-1.434-6.919-2.269-10.677-2.269C117.518,87.771,111.137,90.517,106.724,95.05z"/>
<path fill="#161418" d="M162.429,87.475c-12.943,0-24.873,9.542-24.873,23.144c0,14.551,10.439,24.812,24.873,24.812
	c14.435,0,24.873-10.261,24.873-24.812C187.302,97.017,175.372,87.475,162.429,87.475z M162.429,124.098
	c-6.979,0-12.705-5.667-12.705-13.422c0-6.201,5.726-11.868,12.705-11.868c6.978,0,12.705,5.667,12.705,11.868
	C175.134,118.431,169.407,124.098,162.429,124.098z"/>
<polygon fill="#161418" points="224.636,116.463 224.516,116.463 203.102,88.966 191.412,88.966 191.412,133.94 203.102,133.94 
	203.102,106.382 203.222,106.382 224.636,133.94 236.326,133.94 236.326,88.966 224.636,88.966 "/>
<path fill="#161418" d="M258.403,107.337l-3.22-1.254c-2.804-1.072-6.264-2.922-6.264-6.44c0-3.937,3.938-6.383,7.516-6.383
	c3.399,0,5.547,1.431,7.217,4.236l4.475-2.685c-2.446-4.354-6.562-6.8-11.572-6.8c-6.8,0-13.241,4.354-13.241,11.632
	c0,6.264,4.652,9.185,9.781,11.393l3.102,1.311c3.877,1.61,7.754,3.698,7.754,8.53c0,4.712-3.459,8.769-8.292,8.769
	c-4.831,0-8.768-3.58-8.708-8.53l-5.666,1.192c0.954,7.219,6.621,12.587,13.898,12.587c8.052,0,14.374-5.847,14.374-14.018
	C269.558,113.361,264.785,109.843,258.403,107.337z"/>
<path fill="#161418" d="M295.071,88.011c-12.884,0-23.561,10.557-23.561,23.441c0,13.362,10.558,23.443,23.561,23.443
	c13.003,0,23.561-10.081,23.561-23.443C318.633,98.568,307.956,88.011,295.071,88.011z M295.071,129.646
	c-9.722,0-17.954-7.934-17.954-18.194c0-9.901,7.396-18.191,17.954-18.191c10.558,0,17.953,8.29,17.953,18.191
	C313.024,121.712,304.794,129.646,295.071,129.646z"/>
<path fill="#161418" d="M321.036,111.691c0,13.003,10.618,23.204,23.442,23.204c3.937,0,8.351-1.135,11.81-3.162v-6.62
	c-3.34,2.982-7.575,4.65-11.989,4.65c-10.02,0-17.654-8.411-17.654-18.252c0-9.961,7.693-18.372,17.773-18.372
	c4.235,0,8.648,1.551,11.87,4.416v-6.503c-3.4-2.087-7.397-3.042-11.332-3.042C331.713,88.011,321.036,98.391,321.036,111.691z"/>
<rect x="360.871" y="88.966" fill="#161418" width="5.608" height="44.974"/>
<path fill="#161418" d="M369.149,133.94h6.023l5.131-11.273h20.638l5.13,11.273h6.024l-21.474-46.884L369.149,133.94z
	 M382.63,117.535l7.992-18.191l7.993,18.191H382.63z"/>
<polygon fill="#161418" points="420.518,128.811 420.518,88.966 414.912,88.966 414.912,133.94 434.178,133.94 434.178,128.811 "/>
</svg>
