<?xml version="1.0" encoding="UTF-8" standalone="no"?>
<svg width="580px" height="333px" viewBox="0 0 580 333" version="1.1" xmlns="http://www.w3.org/2000/svg" xmlns:xlink="http://www.w3.org/1999/xlink" xmlns:sketch="http://www.bohemiancoding.com/sketch/ns">
    <!-- Generator: Sketch 3.0.1 (7597) - http://www.bohemiancoding.com/sketch -->
    <title>23</title>
    <description>Created with Sketch.</description>
    <defs></defs>
    <g id="Page-1" stroke="none" stroke-width="1" fill="none" fill-rule="evenodd" sketch:type="MSPage">
        <g id="23" sketch:type="MSLayerGroup" transform="translate(0.000000, 1.000000)">
            <path d="M0.06,-0.482 L579.351,-0.482 L579.351,332 L0.06,332 L0.06,-0.482 Z" id="Fill-1" fill="#4A843E" sketch:type="MSShapeGroup"></path>
            <path d="M274.902,127.174 C276.954,89.331 255.988,61.258 200.54,61.258 C146.149,61.258 127.57,92.01 127.57,132.594 L160.34,132.594 C160.34,106.61 170.808,89.331 201.228,89.331 C230.988,89.331 242.485,103.187 240.789,125.162 C238.104,171.77 126.547,156.193 125.548,232.589 L125.229,262.662 C193.135,262.662 204.285,262.662 274.229,263.006 L274.229,234.961 L158.638,234.961 L158.638,231.262 C158.638,182.238 270.837,196.113 274.902,127.174" id="Fill-3" fill="#FFFFFF" sketch:type="MSShapeGroup"></path>
            <path d="M448.208,200.181 C448.208,154.181 412.709,138.339 373.867,138.339 L440.821,100.493 L440.821,63.658 L305.647,63.658 L305.647,92.677 L403.64,92.677 L333.324,138.665 L333.324,163.671 L363.077,164.012 C404.629,164.381 414.755,179.203 414.755,200.181 C414.755,219.107 403.64,236.988 375.244,236.988 C344.814,236.988 330.276,220.078 330.276,194.405 L298.206,194.405 C298.206,234.267 319.461,265.033 373.867,265.033 C426.935,265.033 448.208,234.635 448.208,200.181" id="Fill-4" fill="#FFFFFF" sketch:type="MSShapeGroup"></path>
        </g>
    </g>
</svg>