<?xml version="1.0" encoding="UTF-8" standalone="no"?>
<svg width="537px" height="61px" viewBox="0 0 537 61" version="1.1" xmlns="http://www.w3.org/2000/svg" xmlns:xlink="http://www.w3.org/1999/xlink" xmlns:sketch="http://www.bohemiancoding.com/sketch/ns">
    <!-- Generator: Sketch 3.0.1 (7597) - http://www.bohemiancoding.com/sketch -->
    <title>Logo_on_white</title>
    <description>Created with Sketch.</description>
    <defs>
        <linearGradient x1="50.0013762%" y1="100%" x2="50.0013762%" y2="0%" id="linearGradient-1">
            <stop stop-color="#E37A26" offset="0%"></stop>
            <stop stop-color="#F9A21E" offset="47.25%"></stop>
        </linearGradient>
        <linearGradient x1="49.9989499%" y1="99.9985457%" x2="49.9989499%" y2="0%" id="linearGradient-2">
            <stop stop-color="#FFFFFF" offset="0%"></stop>
            <stop stop-color="#F9A21E" offset="100%"></stop>
        </linearGradient>
        <linearGradient x1="3.51%" y1="0.03%" x2="3.51%" y2="4.88%" id="linearGradient-3">
            <stop stop-color="#484848" offset="0%"></stop>
            <stop stop-color="#000000" offset="100%"></stop>
        </linearGradient>
        <linearGradient x1="49.9993112%" y1="0.394843146%" x2="49.9993112%" y2="99.6067039%" id="linearGradient-4">
            <stop stop-color="#484848" offset="0%"></stop>
            <stop stop-color="#000000" offset="100%"></stop>
        </linearGradient>
    </defs>
    <g id="Page-1" stroke="none" stroke-width="1" fill="none" fill-rule="evenodd" sketch:type="MSPage">
        <g id="trustpilot" sketch:type="MSLayerGroup" transform="translate(-81.000000, -40.000000)">
            <g id="Logo_on_white" transform="translate(82.000000, 40.000000)" sketch:type="MSShapeGroup">
                <g id="Group">
                    <path d="M120.794,3.693 C120.794,4.276 120.763,4.798 120.702,5.23 C120.631,5.673 120.534,6.021 120.392,6.287 C120.251,6.548 120.079,6.742 119.884,6.87 C119.676,6.994 119.451,7.055 119.2,7.055 L102.188,7.055 L102.188,59.498 C102.188,59.754 102.122,59.967 101.999,60.156 C101.875,60.342 101.655,60.492 101.345,60.597 C101.031,60.704 100.621,60.804 100.108,60.884 C99.592,60.95 98.946,60.999 98.17,60.999 C97.423,60.999 96.782,60.95 96.252,60.884 C95.717,60.804 95.302,60.704 94.985,60.597 C94.675,60.492 94.463,60.341 94.336,60.156 C94.212,59.967 94.15,59.754 94.15,59.498 L94.15,7.055 L77.13,7.055 C76.881,7.055 76.661,6.994 76.454,6.87 C76.255,6.742 76.092,6.548 75.967,6.287 C75.839,6.021 75.738,5.674 75.658,5.23 C75.583,4.798 75.548,4.276 75.548,3.693 C75.548,3.097 75.583,2.576 75.658,2.127 C75.738,1.67 75.839,1.305 75.967,1.026 C76.092,0.752 76.255,0.544 76.454,0.416 C76.661,0.297 76.882,0.23 77.13,0.23 L119.2,0.23 C119.451,0.23 119.677,0.296 119.884,0.416 C120.079,0.544 120.251,0.752 120.392,1.026 C120.533,1.304 120.63,1.67 120.702,2.127 C120.764,2.576 120.794,3.098 120.794,3.693 L120.794,3.693 Z" id="Shape" fill="#231F20"></path>
                    <path d="M172.402,59.498 C172.402,59.754 172.359,59.967 172.252,60.156 C172.164,60.342 171.965,60.502 171.652,60.615 C171.338,60.748 170.906,60.836 170.344,60.904 C169.783,60.965 169.032,61 168.1,61 C167.288,61 166.625,60.965 166.112,60.904 C165.6,60.836 165.188,60.736 164.875,60.597 C164.562,60.462 164.318,60.267 164.15,60.011 C163.974,59.767 163.827,59.458 163.7,59.073 L158.143,44.819 C157.49,43.202 156.804,41.708 156.111,40.356 C155.408,39.004 154.574,37.838 153.606,36.85 C152.639,35.871 151.504,35.104 150.196,34.565 C148.889,34.018 147.316,33.745 145.479,33.745 L140.098,33.745 L140.098,59.497 C140.098,59.753 140.032,59.966 139.886,60.155 C139.745,60.341 139.533,60.491 139.233,60.596 C138.932,60.703 138.535,60.803 138.023,60.883 C137.506,60.949 136.861,60.998 136.079,60.998 C135.302,60.998 134.657,60.949 134.144,60.883 C133.627,60.803 133.212,60.703 132.898,60.596 C132.588,60.491 132.377,60.34 132.244,60.155 C132.125,59.966 132.063,59.753 132.063,59.497 L132.063,3.507 C132.063,2.288 132.377,1.441 133.022,0.954 C133.658,0.474 134.334,0.229 135.053,0.229 L147.903,0.229 C149.431,0.229 150.703,0.274 151.715,0.348 C152.726,0.42 153.64,0.516 154.449,0.61 C156.785,1.011 158.848,1.651 160.642,2.522 C162.432,3.392 163.938,4.497 165.157,5.843 C166.367,7.178 167.282,8.719 167.887,10.446 C168.496,12.169 168.797,14.083 168.797,16.167 C168.797,18.2 168.523,20.011 167.975,21.618 C167.433,23.218 166.65,24.636 165.621,25.868 C164.592,27.1 163.365,28.165 161.928,29.071 C160.497,29.979 158.888,30.739 157.109,31.362 C158.117,31.796 159.013,32.348 159.825,33.014 C160.634,33.69 161.385,34.494 162.092,35.422 C162.79,36.363 163.452,37.438 164.084,38.66 C164.698,39.861 165.325,41.24 165.948,42.771 L171.368,56.085 C171.806,57.208 172.083,57.999 172.212,58.444 C172.332,58.902 172.402,59.25 172.402,59.498 L172.402,59.498 Z M160.294,17.012 C160.294,14.645 159.764,12.639 158.704,11.005 C157.643,9.375 155.868,8.194 153.377,7.479 C152.595,7.259 151.716,7.106 150.736,7.007 C149.752,6.914 148.47,6.87 146.879,6.87 L140.099,6.87 L140.099,27.252 L147.953,27.252 C150.073,27.252 151.897,26.99 153.448,26.479 C154.99,25.961 156.275,25.247 157.3,24.327 C158.329,23.405 159.086,22.327 159.571,21.081 C160.051,19.834 160.294,18.475 160.294,17.012 L160.294,17.012 Z" id="Shape" fill="#231F20"></path>
                    <path d="M226.271,38.057 C226.271,41.674 225.75,44.905 224.69,47.741 C223.634,50.585 222.123,52.979 220.153,54.944 C218.192,56.905 215.798,58.389 212.975,59.401 C210.161,60.422 206.95,60.926 203.364,60.926 C200.076,60.926 197.091,60.449 194.387,59.498 C191.693,58.549 189.374,57.144 187.439,55.285 C185.508,53.43 184.024,51.101 182.981,48.322 C181.939,45.527 181.418,42.306 181.418,38.662 L181.418,1.706 C181.418,1.459 181.475,1.25 181.599,1.057 C181.723,0.875 181.939,0.731 182.239,0.624 C182.549,0.518 182.946,0.422 183.441,0.35 C183.927,0.27 184.571,0.231 185.372,0.231 C186.11,0.231 186.737,0.27 187.258,0.35 C187.775,0.422 188.186,0.518 188.477,0.624 C188.764,0.73 188.976,0.875 189.1,1.057 C189.224,1.25 189.285,1.459 189.285,1.706 L189.285,37.685 C189.285,40.451 189.62,42.857 190.293,44.908 C190.973,46.967 191.945,48.676 193.216,50.039 C194.484,51.406 196.022,52.439 197.82,53.125 C199.609,53.813 201.628,54.162 203.872,54.162 C206.169,54.162 208.218,53.83 210.007,53.142 C211.809,52.474 213.324,51.462 214.57,50.111 C215.811,48.757 216.757,47.086 217.414,45.088 C218.081,43.106 218.409,40.774 218.409,38.102 L218.409,1.706 C218.409,1.459 218.47,1.25 218.595,1.057 C218.719,0.875 218.931,0.731 219.235,0.624 C219.545,0.518 219.951,0.422 220.454,0.35 C220.962,0.27 221.602,0.231 222.367,0.231 C223.104,0.231 223.723,0.27 224.226,0.35 C224.734,0.422 225.132,0.518 225.423,0.624 C225.719,0.73 225.931,0.875 226.072,1.057 C226.21,1.25 226.271,1.459 226.271,1.706 L226.271,38.057 L226.271,38.057 Z" id="Shape" fill="#231F20"></path>
                    <path d="M271.624,43.547 C271.624,46.322 271.107,48.787 270.091,50.943 C269.07,53.101 267.658,54.929 265.854,56.431 C264.044,57.939 261.915,59.074 259.468,59.833 C257.016,60.589 254.388,60.974 251.555,60.974 C249.576,60.974 247.748,60.81 246.066,60.464 C244.374,60.134 242.871,59.728 241.547,59.237 C240.226,58.751 239.112,58.251 238.216,57.735 C237.32,57.217 236.701,56.78 236.356,56.413 C235.998,56.048 235.737,55.579 235.575,55.022 C235.407,54.458 235.323,53.702 235.323,52.76 C235.323,52.094 235.353,51.541 235.416,51.1 C235.474,50.659 235.566,50.299 235.69,50.026 C235.809,49.753 235.963,49.563 236.141,49.456 C236.326,49.351 236.543,49.298 236.782,49.298 C237.206,49.298 237.811,49.56 238.584,50.071 C239.361,50.591 240.355,51.157 241.574,51.757 C242.788,52.372 244.256,52.943 245.969,53.462 C247.688,53.997 249.671,54.267 251.92,54.267 C253.62,54.267 255.185,54.046 256.598,53.583 C258.011,53.124 259.227,52.479 260.251,51.647 C261.258,50.807 262.048,49.782 262.596,48.569 C263.135,47.354 263.409,45.971 263.409,44.421 C263.409,42.743 263.03,41.312 262.279,40.132 C261.514,38.944 260.516,37.905 259.266,37.007 C258.016,36.112 256.598,35.29 254.999,34.548 C253.409,33.802 251.77,33.038 250.101,32.265 C248.426,31.495 246.796,30.634 245.22,29.689 C243.638,28.748 242.229,27.64 240.983,26.363 C239.733,25.086 238.721,23.584 237.944,21.871 C237.171,20.156 236.782,18.094 236.782,15.695 C236.782,13.226 237.232,11.035 238.134,9.105 C239.023,7.169 240.271,5.553 241.87,4.246 C243.466,2.942 245.366,1.94 247.571,1.26 C249.769,0.571 252.154,0.231 254.704,0.231 C256.013,0.231 257.323,0.35 258.653,0.571 C259.97,0.801 261.219,1.11 262.389,1.486 C263.561,1.866 264.599,2.295 265.516,2.758 C266.417,3.23 267.028,3.614 267.31,3.906 C267.602,4.193 267.791,4.418 267.879,4.586 C267.977,4.754 268.052,4.971 268.109,5.223 C268.17,5.483 268.219,5.793 268.246,6.163 C268.277,6.525 268.299,6.994 268.299,7.567 C268.299,8.12 268.268,8.605 268.224,9.03 C268.183,9.459 268.109,9.82 268.016,10.108 C267.927,10.39 267.795,10.611 267.631,10.744 C267.464,10.876 267.274,10.951 267.063,10.951 C266.722,10.951 266.206,10.735 265.485,10.306 C264.774,9.882 263.904,9.41 262.865,8.87 C261.831,8.339 260.603,7.858 259.198,7.412 C257.78,6.975 256.189,6.749 254.427,6.749 C252.789,6.749 251.357,6.976 250.142,7.412 C248.928,7.858 247.919,8.446 247.134,9.165 C246.339,9.899 245.752,10.765 245.354,11.763 C244.961,12.771 244.762,13.841 244.762,14.962 C244.762,16.601 245.142,18.011 245.903,19.202 C246.663,20.39 247.674,21.438 248.933,22.347 C250.202,23.257 251.637,24.097 253.245,24.851 C254.856,25.611 256.5,26.384 258.17,27.163 C259.844,27.934 261.478,28.788 263.096,29.71 C264.708,30.644 266.138,31.73 267.411,32.993 C268.664,34.261 269.682,35.745 270.454,37.468 C271.235,39.188 271.624,41.211 271.624,43.547 L271.624,43.547 Z" id="Shape" fill="#231F20"></path>
                    <path d="M321.559,3.686 C321.559,4.277 321.528,4.79 321.466,5.219 C321.4,5.657 321.303,6.013 321.162,6.274 C321.028,6.54 320.847,6.733 320.648,6.857 C320.449,6.985 320.218,7.042 319.97,7.042 L302.987,7.042 L302.987,59.397 C302.987,59.645 302.926,59.866 302.799,60.047 C302.678,60.236 302.457,60.387 302.148,60.496 C301.836,60.601 301.428,60.695 300.913,60.769 C300.394,60.849 299.75,60.89 298.977,60.89 C298.226,60.89 297.585,60.849 297.065,60.769 C296.529,60.695 296.115,60.601 295.805,60.496 C295.492,60.387 295.276,60.236 295.148,60.047 C295.027,59.865 294.961,59.645 294.961,59.397 L294.961,7.041 L277.978,7.041 C277.731,7.041 277.505,6.984 277.301,6.856 C277.098,6.732 276.935,6.539 276.811,6.273 C276.692,6.012 276.586,5.656 276.505,5.218 C276.43,4.788 276.387,4.276 276.387,3.685 C276.387,3.097 276.43,2.567 276.505,2.126 C276.586,1.669 276.692,1.3 276.811,1.025 C276.935,0.751 277.098,0.543 277.301,0.415 C277.505,0.296 277.731,0.229 277.978,0.229 L319.971,0.229 C320.219,0.229 320.45,0.295 320.649,0.415 C320.847,0.543 321.029,0.751 321.163,1.025 C321.304,1.299 321.4,1.669 321.467,2.126 C321.527,2.567 321.559,3.098 321.559,3.686 L321.559,3.686 Z" id="Shape" fill="#231F20"></path>
                    <path d="M368.276,17.943 C368.276,20.968 367.778,23.695 366.774,26.129 C365.774,28.559 364.354,30.635 362.498,32.34 C360.646,34.059 358.372,35.385 355.673,36.317 C352.978,37.255 349.768,37.717 346.02,37.717 L339.153,37.717 L339.153,59.498 C339.153,59.754 339.077,59.967 338.94,60.156 C338.799,60.342 338.584,60.492 338.288,60.597 C337.996,60.704 337.584,60.804 337.067,60.884 C336.56,60.95 335.912,60.999 335.133,60.999 C334.356,60.999 333.705,60.95 333.198,60.884 C332.672,60.804 332.26,60.704 331.952,60.597 C331.636,60.492 331.422,60.341 331.299,60.156 C331.171,59.967 331.112,59.754 331.112,59.498 L331.112,3.693 C331.112,2.447 331.439,1.56 332.093,1.026 C332.747,0.496 333.475,0.23 334.292,0.23 L347.235,0.23 C348.548,0.23 349.797,0.283 351.003,0.398 C352.199,0.503 353.622,0.738 355.248,1.096 C356.888,1.453 358.558,2.126 360.258,3.106 C361.955,4.086 363.394,5.296 364.577,6.728 C365.765,8.164 366.676,9.82 367.311,11.707 C367.953,13.594 368.276,15.67 368.276,17.943 L368.276,17.943 Z M359.812,18.598 C359.812,16.137 359.352,14.084 358.429,12.437 C357.514,10.784 356.375,9.547 355.019,8.739 C353.663,7.931 352.262,7.414 350.818,7.198 C349.364,6.985 347.951,6.871 346.582,6.871 L339.152,6.871 L339.152,31.126 L346.397,31.126 C348.827,31.126 350.845,30.814 352.447,30.19 C354.051,29.563 355.402,28.71 356.489,27.6 C357.58,26.493 358.409,25.17 358.972,23.629 C359.529,22.088 359.812,20.408 359.812,18.598 L359.812,18.598 Z" id="Shape" fill="#929497"></path>
                    <path d="M387.297,59.459 C387.297,59.705 387.236,59.926 387.111,60.107 C386.986,60.288 386.77,60.439 386.457,60.545 C386.148,60.656 385.742,60.748 385.226,60.828 C384.722,60.904 384.073,60.939 383.3,60.939 C382.558,60.939 381.921,60.904 381.396,60.828 C380.866,60.748 380.446,60.656 380.142,60.545 C379.832,60.44 379.612,60.289 379.487,60.107 C379.368,59.925 379.305,59.705 379.305,59.459 L379.305,1.72 C379.305,1.468 379.376,1.25 379.509,1.067 C379.65,0.885 379.88,0.735 380.211,0.633 C380.533,0.523 380.953,0.422 381.461,0.35 C381.978,0.276 382.588,0.231 383.3,0.231 C384.072,0.231 384.722,0.276 385.226,0.35 C385.743,0.422 386.149,0.523 386.457,0.633 C386.77,0.735 386.986,0.885 387.111,1.067 C387.236,1.251 387.297,1.468 387.297,1.72 L387.297,59.459 L387.297,59.459 Z" id="Shape" fill="#929497"></path>
                    <path d="M433.516,57.498 C433.516,58.111 433.489,58.637 433.428,59.057 C433.365,59.477 433.264,59.844 433.117,60.135 C432.981,60.43 432.813,60.653 432.609,60.783 C432.411,60.926 432.169,61 431.88,61 L405.142,61 C404.426,61 403.756,60.758 403.115,60.271 C402.479,59.789 402.16,58.937 402.16,57.722 L402.16,1.729 C402.16,1.482 402.215,1.26 402.343,1.075 C402.472,0.889 402.687,0.739 402.992,0.634 C403.309,0.524 403.729,0.427 404.261,0.351 C404.785,0.277 405.426,0.232 406.181,0.232 C406.954,0.232 407.599,0.277 408.116,0.351 C408.633,0.427 409.04,0.524 409.353,0.634 C409.665,0.739 409.883,0.89 410.006,1.075 C410.133,1.261 410.196,1.482 410.196,1.729 L410.196,54.034 L431.881,54.034 C432.169,54.034 432.411,54.104 432.61,54.247 C432.814,54.384 432.982,54.589 433.118,54.852 C433.264,55.118 433.365,55.465 433.429,55.907 C433.488,56.34 433.516,56.869 433.516,57.498 L433.516,57.498 Z" id="Shape" fill="#929497"></path>
                    <path d="M488.281,29.865 C488.281,34.619 487.718,38.918 486.594,42.744 C485.471,46.564 483.794,49.816 481.562,52.506 C479.335,55.186 476.536,57.25 473.17,58.692 C469.804,60.135 465.867,60.854 461.384,60.854 C456.952,60.854 453.12,60.196 449.89,58.881 C446.661,57.555 443.985,55.639 441.876,53.115 C439.77,50.601 438.196,47.474 437.167,43.742 C436.136,40.008 435.612,35.715 435.612,30.865 C435.612,26.222 436.181,22.008 437.3,18.205 C438.422,14.418 440.11,11.191 442.358,8.535 C444.602,5.876 447.408,3.836 450.779,2.394 C454.149,0.955 458.071,0.23 462.563,0.23 C466.901,0.23 470.678,0.884 473.898,2.187 C477.109,3.495 479.788,5.399 481.93,7.898 C484.066,10.404 485.656,13.5 486.704,17.183 C487.751,20.869 488.281,25.096 488.281,29.865 L488.281,29.865 Z M480,30.41 C480,27.07 479.699,23.969 479.111,21.098 C478.515,18.237 477.529,15.748 476.152,13.637 C474.775,11.532 472.931,9.879 470.631,8.696 C468.328,7.52 465.476,6.925 462.082,6.925 C458.689,6.925 455.84,7.565 453.535,8.836 C451.233,10.113 449.364,11.805 447.925,13.931 C446.482,16.06 445.454,18.54 444.833,21.372 C444.209,24.214 443.901,27.194 443.901,30.317 C443.901,33.776 444.187,36.962 444.766,39.881 C445.34,42.783 446.313,45.297 447.671,47.402 C449.038,49.515 450.866,51.158 453.15,52.32 C455.436,53.49 458.308,54.074 461.772,54.074 C465.19,54.074 468.071,53.437 470.407,52.16 C472.735,50.885 474.617,49.17 476.041,46.998 C477.462,44.824 478.479,42.314 479.083,39.471 C479.689,36.617 480,33.594 480,30.41 L480,30.41 Z" id="Shape" fill="#929497"></path>
                    <path d="M535.225,3.693 C535.225,4.276 535.194,4.798 535.127,5.23 C535.069,5.673 534.964,6.021 534.821,6.287 C534.683,6.548 534.513,6.742 534.312,6.87 C534.107,6.994 533.886,7.055 533.637,7.055 L516.627,7.055 L516.627,59.498 C516.627,59.754 516.561,59.967 516.427,60.156 C516.309,60.342 516.092,60.492 515.78,60.597 C515.467,60.704 515.056,60.804 514.538,60.884 C514.031,60.95 513.381,60.999 512.598,60.999 C511.858,60.999 511.211,60.95 510.686,60.884 C510.157,60.804 509.732,60.704 509.424,60.597 C509.112,60.492 508.894,60.341 508.772,60.156 C508.647,59.967 508.584,59.754 508.584,59.498 L508.584,7.055 L491.56,7.055 C491.321,7.055 491.096,6.994 490.893,6.87 C490.689,6.742 490.522,6.548 490.396,6.287 C490.28,6.021 490.172,5.674 490.094,5.23 C490.014,4.798 489.979,4.276 489.979,3.693 C489.979,3.097 490.014,2.576 490.094,2.127 C490.172,1.67 490.28,1.305 490.396,1.026 C490.522,0.752 490.689,0.544 490.893,0.416 C491.096,0.297 491.321,0.23 491.56,0.23 L533.638,0.23 C533.887,0.23 534.108,0.296 534.313,0.416 C534.514,0.544 534.684,0.752 534.822,1.026 C534.965,1.304 535.07,1.67 535.128,2.127 C535.193,2.576 535.225,3.098 535.225,3.693 L535.225,3.693 Z" id="Shape" fill="#929497"></path>
                    <path d="M-0.439,1.277 L-0.439,26.965 C-0.439,26.965 18.954,36.223 28.826,52.776 C28.826,52.776 33.181,16.221 57.636,1.278 L-0.439,1.278 L-0.439,1.277 Z" id="Shape" fill="#F9A21E"></path>
                    <path d="M-0.497,48.133 L-0.497,59.502 L25.636,59.502 C25.636,59.502 15.68,48.904 -0.497,48.133 L-0.497,48.133 Z M32.65,59.48 L57.635,59.48 L57.635,26.293 C43.496,30.123 32.65,59.48 32.65,59.48 L32.65,59.48 Z" id="Shape" fill="url(#linearGradient-1)"></path>
                    <path d="M-0.108,1.666 L57.031,1.666 C57.031,1.666 47.645,4.971 37.542,23.594 C37.542,23.594 15.447,25.842 -0.054,19.094 L-0.108,1.666 L-0.108,1.666 Z" id="Shape" opacity="0.5" fill="url(#linearGradient-2)"></path>
                    <g transform="translate(0.000000, 1.000000)" id="Shape">
                        <path d="M57.565,0.326 C57.591,0.312 57.613,0.291 57.636,0.277" fill="url(#linearGradient-3)"></path>
                        <path d="M28.826,51.775 C18.954,35.222 -0.439,25.964 -0.439,25.964 L-0.439,47.142 C15.703,47.937 25.637,58.501 25.637,58.501 L32.651,58.48 C32.651,58.48 43.496,29.123 57.636,25.292 L57.636,0.326 L57.565,0.326 C33.177,15.297 28.826,51.775 28.826,51.775 L28.826,51.775 Z" fill="url(#linearGradient-4)"></path>
                    </g>
                </g>
            </g>
        </g>
    </g>
</svg>