<?xml version="1.0" encoding="UTF-8" standalone="no"?>
<svg width="922px" height="123px" viewBox="0 0 922 123" version="1.1" xmlns="http://www.w3.org/2000/svg" xmlns:xlink="http://www.w3.org/1999/xlink" xmlns:sketch="http://www.bohemiancoding.com/sketch/ns">
    <!-- Generator: Sketch 3.0 (7574) - http://www.bohemiancoding.com/sketch -->
    <title>kraftvaerk</title>
    <description>Created with Sketch.</description>
    <defs></defs>
    <g id="Page-1" stroke="none" stroke-width="1" fill="none" fill-rule="evenodd" sketch:type="MSPage">
        <g id="kraftvaerk" sketch:type="MSLayerGroup" fill="#000000">
            <path d="M376.4,25.3 L398.3,25.3 L398.3,121.6 L423,121.6 L423,25.3 L445,25.3 L445,1.5 L376.4,1.5 L376.4,25.3 Z" id="Shape" sketch:type="MSShapeGroup"></path>
            <path d="M499,98.8 C497.5,96.9 495.4,94.3 493.2,91.4 C490.8,88.3 488.9,86.2 488.9,81.6 L488.9,1.4 L463.9,1.4 L463.9,83.1 C463.9,88 464.5,91.4 467.5,95.6 C471.5,101 477.9,109.5 481.5,114 C486,119.7 493.3,123 501,123 C508.8,123 516.1,119.7 520.5,114 C524.1,109.5 530.6,101 534.5,95.6 C537.5,91.4 538.1,88 538.1,83.1 L538.1,1.4 L513.1,1.4 L513.1,81.5 C513.1,86.1 511.3,88.2 508.9,91.2 C506.6,94.2 504.4,96.8 503,98.7 C502.2,100 499.9,100 499,98.8 L499,98.8 Z" id="Shape" sketch:type="MSShapeGroup"></path>
            <path d="M268.7,27.5 C264.8,22.1 258.3,13.6 254.7,9.1 C250.2,3.4 242.9,0.1 235.2,0.1 C227.4,0.1 220.1,3.4 215.7,9.1 C212.1,13.6 205.6,22.1 201.7,27.5 C198.7,31.7 198.1,35.1 198.1,40 L198.1,121.7 L223.1,121.7 L223.1,77.2 L247.5,77.2 L247.5,121.6 L272.5,121.6 L272.5,40 C272.3,35.1 271.7,31.6 268.7,27.5 L268.7,27.5 Z M222.9,53.4 L222.9,41.5 C222.9,36.9 224.9,34.9 227.2,31.8 C229.5,28.8 231.6,26.2 233,24.3 C234,23 236.3,23.1 237.2,24.3 C238.7,26.2 240.7,28.9 243,31.8 C245.4,34.9 247.3,36.9 247.3,41.5 L247.3,53.4 L222.9,53.4 L222.9,53.4 Z" id="Shape" sketch:type="MSShapeGroup"></path>
            <path d="M632.7,27.5 C628.8,22.1 622.3,13.6 618.7,9.1 C614.2,3.4 606.9,0.1 599.2,0.1 C591.4,0.1 584.1,3.4 579.7,9.1 C576.1,13.6 569.6,22.1 565.7,27.5 C562.7,31.7 562.1,35.1 562.1,40 L562.1,121.7 L587.1,121.7 L587.1,77.2 L611.5,77.2 L611.5,121.6 L636.5,121.6 L636.5,40 C636.3,35.1 635.7,31.6 632.7,27.5 L632.7,27.5 Z M586.9,53.4 L586.9,41.5 C586.9,36.9 588.9,34.9 591.2,31.8 C593.5,28.8 595.6,26.2 597,24.3 C598,23 600.3,23.1 601.2,24.3 C602.7,26.2 604.7,28.9 607,31.8 C609.4,34.9 611.3,36.9 611.3,41.5 L611.3,53.4 L586.9,53.4 L586.9,53.4 Z" id="Shape" sketch:type="MSShapeGroup"></path>
            <path d="M724.9,25.3 L724.9,1.5 L658.9,1.5 L658.9,81.7 C658.9,86.6 659.5,90 662.5,94.2 C666.4,99.6 672.9,108.1 676.5,112.6 C681,118.3 688.3,121.6 696,121.6 L724.8,121.6 L724.8,98 L697.8,98 C696.2,98 694.8,97.5 693.9,96.3 C692.4,94.4 690.4,91.7 688.1,88.8 C685.7,85.7 683.8,83.7 683.8,79.1 L683.8,75.2 L717.8,75.2 L717.8,51.8 L683.8,51.8 L683.8,25.3 L724.9,25.3 L724.9,25.3 Z" id="Shape" sketch:type="MSShapeGroup"></path>
            <path d="M325.6,34.3 C327.9,31.3 329.8,28.8 331.3,26.9 C332.2,25.7 333.6,25.2 335.2,25.2 L362.3,25.2 L362.3,1.5 L333.5,1.5 C325.7,1.5 318.4,4.8 314,10.5 C310.4,15 303.9,23.5 300,28.9 C297,33.1 296.4,36.5 296.4,41.4 L296.4,121.6 L321.4,121.6 L321.4,77.2 L354.2,77.2 L354.2,53.4 L321.4,53.4 L321.4,44 C321.3,39.4 323.2,37.4 325.6,34.3 L325.6,34.3 Z" id="Shape" sketch:type="MSShapeGroup"></path>
            <path d="M73.3,71.8 C70.3,68.1 59.1,54 58.4,53.2 C63,45 68.6,35.1 70.8,31.4 C73.4,26.9 74.4,24.8 74.4,19.9 L74.4,1.5 L49.7,1.5 L49.7,16 C49.7,20.6 48.9,21.8 47,25.2 C45.7,27.6 37.9,41.3 32.2,51.3 C31.8,52 30.9,53.4 29,53.4 L24.7,53.4 L24.7,1.5 L0,1.5 L0,121.6 L24.7,121.6 L24.7,77.2 L42.2,77.2 C47,77.2 50.9,81.1 50.9,85.9 L50.9,121.6 L75.7,121.6 L75.7,80.3 C75.8,77 75.5,74.5 73.3,71.8 L73.3,71.8 Z" id="Shape" sketch:type="MSShapeGroup"></path>
            <path d="M918.8,71.8 C915.9,68.2 904.6,54 903.9,53.2 C908.5,45.1 914.1,35.1 916.3,31.4 C918.9,26.9 919.9,24.8 919.9,19.9 L919.9,1.5 L895.2,1.5 L895.2,16 C895.2,20.6 894.4,21.8 892.5,25.2 C891.2,27.6 883.4,41.3 877.7,51.3 C877.3,52 876.4,53.4 874.5,53.4 L870.2,53.4 L870.2,1.5 L845.5,1.5 L845.5,121.6 L870.2,121.6 L870.2,77.2 L887.7,77.2 C892.5,77.2 896.4,81.1 896.4,85.9 L896.4,121.6 L921.2,121.6 L921.2,80.3 C921.3,77 921,74.5 918.8,71.8 L918.8,71.8 Z" id="Shape" sketch:type="MSShapeGroup"></path>
            <path d="M171.9,94.8 C169.2,91 161,79.6 155.9,72.3 C155.9,72.3 168.8,58.6 171.9,55.3 C174.3,52.7 174.4,50.1 174.4,46.8 L174.4,28.8 C174.4,25.5 174,23.1 171.9,20.3 C169.2,16.6 163.8,9.8 161.3,6.7 C158.2,2.8 155.7,1.5 150.4,1.5 L99.5,1.5 L99.5,121.6 L124.2,121.6 L124.2,77 L129.4,77 C131.3,77 132.2,78.2 132.6,78.8 C135.6,83.3 138.8,87.9 141.2,91.6 C143.8,95.6 146.1,99 147.4,101 C149.5,104.3 150.9,105.7 150.9,110.3 L150.9,121.7 L175.6,121.7 L175.6,106.4 C175.6,101.5 175,99 171.9,94.8 L171.9,94.8 Z M149.5,43.8 C149.5,49.1 145.2,53.4 139.9,53.4 L124.2,53.4 L124.2,25.3 L139.9,25.3 C145.2,25.3 149.5,29.6 149.5,34.9 L149.5,43.8 L149.5,43.8 Z" id="Shape" sketch:type="MSShapeGroup"></path>
            <path d="M819.9,94.8 C817.2,91 809,79.6 803.9,72.3 C803.9,72.3 816.8,58.6 819.9,55.3 C822.3,52.7 822.4,50.1 822.4,46.8 L822.4,28.8 C822.4,25.5 822,23.1 819.9,20.3 C817.2,16.6 811.8,9.8 809.3,6.7 C806.2,2.8 803.7,1.5 798.4,1.5 L747.3,1.5 L747.3,121.6 L772,121.6 L772,77 L777.2,77 C779.1,77 780,78.2 780.4,78.8 C783.4,83.3 786.6,87.9 789,91.6 C791.6,95.6 793.9,99 795.2,101 C797.3,104.3 798.7,105.7 798.7,110.3 L798.7,121.7 L823.4,121.7 L823.4,106.4 C823.6,101.5 823,99 819.9,94.8 L819.9,94.8 Z M797.5,43.8 C797.5,49.1 793.2,53.4 787.9,53.4 L772.2,53.4 L772.2,25.3 L787.9,25.3 C793.2,25.3 797.5,29.6 797.5,34.9 L797.5,43.8 L797.5,43.8 Z" id="Shape" sketch:type="MSShapeGroup"></path>
        </g>
    </g>
</svg>