<?xml version="1.0" encoding="utf-8"?>
<!-- Generator: Adobe Illustrator 19.1.0, SVG Export Plug-In . SVG Version: 6.00 Build 0)  -->
<!DOCTYPE svg PUBLIC "-//W3C//DTD SVG 1.1//EN" "http://www.w3.org/Graphics/SVG/1.1/DTD/svg11.dtd">
<svg version="1.1" id="Layer_1" xmlns="http://www.w3.org/2000/svg" xmlns:xlink="http://www.w3.org/1999/xlink" x="0px" y="0px"
	 viewBox="0 0 420.8 551.7" enable-background="new 0 0 420.8 551.7" xml:space="preserve">
<g>
	<path fill="#0F2041" d="M59.7,510.7h26.8v8H68.7v9h13.5v7.7H68.7v15.2h-9V510.7z"/>
	<path fill="#0F2041" d="M109.1,551.6c-3,0-5.7-0.5-8.2-1.6c-2.5-1.1-4.7-2.6-6.6-4.4c-1.9-1.9-3.3-4.1-4.4-6.7
		c-1.1-2.6-1.6-5.3-1.6-8.3c0-3,0.5-5.8,1.6-8.3c1.1-2.5,2.5-4.8,4.4-6.6c1.9-1.9,4.1-3.4,6.6-4.4c2.5-1.1,5.3-1.6,8.2-1.6
		c3,0,5.7,0.5,8.2,1.6c2.5,1.1,4.7,2.6,6.6,4.4c1.9,1.9,3.3,4.1,4.4,6.6c1.1,2.6,1.6,5.3,1.6,8.3c0,3-0.5,5.7-1.6,8.3
		c-1.1,2.6-2.5,4.8-4.4,6.7c-1.9,1.9-4,3.3-6.6,4.4C114.8,551.1,112,551.6,109.1,551.6z M109.1,543.1c1.8,0,3.3-0.3,4.7-1
		c1.4-0.7,2.6-1.6,3.6-2.8c1-1.2,1.7-2.5,2.2-4c0.5-1.5,0.8-3.1,0.8-4.8c0-1.7-0.3-3.3-0.8-4.9c-0.5-1.5-1.3-2.8-2.2-4
		c-1-1.1-2.2-2-3.6-2.7c-1.4-0.7-3-1-4.7-1c-1.8,0-3.3,0.3-4.8,1c-1.4,0.7-2.6,1.6-3.6,2.7c-1,1.1-1.7,2.5-2.2,4
		c-0.5,1.5-0.8,3.1-0.8,4.9c0,1.7,0.3,3.3,0.8,4.8c0.5,1.5,1.3,2.8,2.2,4c1,1.2,2.2,2.1,3.6,2.8
		C105.7,542.8,107.3,543.1,109.1,543.1z"/>
	<path fill="#0F2041" d="M135.8,510.7h9.1v23.6c0,1.3,0.1,2.5,0.4,3.6c0.3,1,0.7,2,1.3,2.7c0.6,0.8,1.4,1.3,2.4,1.8
		c1,0.4,2.2,0.6,3.6,0.6c1.4,0,2.6-0.2,3.6-0.6c1-0.4,1.8-1,2.4-1.8c0.6-0.8,1-1.7,1.3-2.7c0.3-1.1,0.4-2.2,0.4-3.6v-23.6h9.2v24.8
		c0,2.4-0.4,4.6-1.2,6.6c-0.8,2-1.9,3.7-3.4,5.1c-1.5,1.4-3.2,2.5-5.3,3.3c-2.1,0.8-4.4,1.2-6.9,1.2c-2.6,0-4.9-0.4-6.9-1.2
		c-2.1-0.8-3.8-1.9-5.3-3.3c-1.5-1.4-2.6-3.2-3.4-5.1c-0.8-2-1.2-4.2-1.2-6.6V510.7z"/>
	<path fill="#0F2041" d="M176.8,510.7h8.6l17.3,25.9v-25.9h8.9v39.9h-8.2l-17.7-26.4v26.4h-8.9V510.7z"/>
	<path fill="#0F2041" d="M219.4,510.7h15.1c3.1,0,5.9,0.4,8.5,1.2c2.6,0.8,4.9,2,6.8,3.7c1.9,1.6,3.4,3.7,4.4,6.3
		c1.1,2.5,1.6,5.6,1.6,9c0,3.3-0.5,6.2-1.6,8.7c-1.1,2.4-2.6,4.5-4.5,6.2c-1.9,1.7-4.2,2.9-6.8,3.7c-2.6,0.8-5.5,1.2-8.5,1.2h-15
		V510.7z M233.9,542.6c4,0,7.1-1,9.2-3.1c2.2-2.1,3.2-5,3.2-8.7c0-1.8-0.3-3.5-0.7-5c-0.5-1.5-1.3-2.8-2.3-3.8
		c-1-1.1-2.3-1.9-3.9-2.5c-1.6-0.6-3.4-0.9-5.6-0.9h-5.5v23.9H233.9z"/>
	<path fill="#0F2041" d="M262.3,510.7h27.3v7.9h-18.3v7.8h14.2v7.7h-14.2v8.6h19.6v8h-28.6V510.7z"/>
	<path fill="#0F2041" d="M297,510.7h14.8c2.3,0,4.4,0.3,6.1,1c1.8,0.7,3.2,1.6,4.4,2.7c1.2,1.1,2.1,2.5,2.6,4
		c0.6,1.5,0.9,3.1,0.9,4.8c0,2.6-0.6,4.9-1.7,6.8c-1.1,1.9-2.7,3.5-4.8,4.6l8.9,16h-9.9l-7.4-14.7h-5v14.7H297V510.7z M311.4,528.7
		c1.7,0,3-0.5,3.9-1.5c1-1,1.4-2.2,1.4-3.8c0-1.6-0.5-2.9-1.4-3.9c-1-1-2.3-1.4-3.9-1.4h-5.6v10.6H311.4z"/>
	<path fill="#0F2041" d="M335.4,538.7c0.5,0.6,1.1,1.1,1.8,1.7c0.7,0.6,1.5,1.1,2.3,1.6c0.9,0.5,1.8,0.9,2.8,1.2
		c1,0.3,2.1,0.4,3.3,0.4c0.7,0,1.4-0.1,2-0.3c0.7-0.2,1.3-0.5,1.8-0.9c0.6-0.4,1-0.8,1.4-1.4c0.3-0.5,0.5-1.1,0.5-1.8
		c0-1.5-0.7-2.6-2.2-3.4c-1.4-0.8-3.7-1.6-6.8-2.4c-1.5-0.4-2.9-0.9-4.2-1.6c-1.3-0.7-2.4-1.5-3.4-2.5c-0.9-1-1.7-2-2.2-3.3
		c-0.5-1.2-0.8-2.6-0.8-4.1c0-1.7,0.3-3.3,0.9-4.7c0.6-1.5,1.5-2.8,2.7-3.9c1.2-1.1,2.7-2,4.5-2.7c1.8-0.7,4-1,6.4-1
		c2,0,3.8,0.2,5.4,0.6c1.6,0.4,2.9,0.9,4,1.5c1.1,0.6,2,1.2,2.7,1.8c0.7,0.6,1.2,1.1,1.6,1.5l-5.2,5.7c-0.4-0.4-0.9-0.7-1.5-1.2
		c-0.6-0.4-1.2-0.8-1.9-1.2c-0.7-0.4-1.5-0.7-2.4-0.9c-0.9-0.2-1.8-0.4-2.7-0.4c-0.6,0-1.3,0.1-1.9,0.3c-0.6,0.2-1.2,0.5-1.7,0.8
		c-0.5,0.3-0.9,0.7-1.2,1.2c-0.3,0.5-0.4,0.9-0.4,1.5c0,1.4,0.7,2.5,2.2,3.3c1.4,0.8,3.4,1.5,5.9,2.1c1.5,0.4,2.9,0.8,4.3,1.5
		c1.4,0.6,2.7,1.4,3.8,2.4c1.1,1,2,2.2,2.7,3.7c0.7,1.5,1,3.2,1,5.3c0,1.8-0.4,3.5-1.2,5c-0.8,1.5-1.9,2.8-3.3,3.9
		c-1.4,1.1-3,2-4.8,2.6c-1.9,0.6-3.9,0.9-6,0.9c-2,0-3.8-0.2-5.4-0.6c-1.6-0.4-3.1-0.9-4.4-1.5c-1.3-0.6-2.5-1.3-3.6-2.1
		c-1.1-0.8-2-1.6-2.7-2.5L335.4,538.7z"/>
</g>
<g>
	<g>
		<path fill="#0F2041" d="M157.5,122.9h115.9v34.4h-76.9v39.1H255v33.4h-58.5v65.7h-39.1V122.9z"/>
	</g>
	<g>
		<path fill="#0F2041" d="M210.4,420.8C94.4,420.8,0,326.4,0,210.4C0,94.4,94.4,0,210.4,0c116,0,210.4,94.4,210.4,210.4
			C420.8,326.4,326.4,420.8,210.4,420.8z M210.4,23.6c-103,0-186.8,83.8-186.8,186.7c0,103,83.8,186.7,186.8,186.7
			s186.7-83.8,186.7-186.7C397.1,107.4,313.4,23.6,210.4,23.6z"/>
	</g>
</g>
</svg>
